<svg version="1.2" xmlns="http://www.w3.org/2000/svg" viewBox="0 0 1537 1537" width="60" height="60">
	<title>Logo2025</title>
	<style>
		.s0 { fill: #fefefe } 
		.s1 { fill: #000103 } 
		.s2 { fill: #dc1e2c } 
		.s3 { fill: #7c1314 } 
		.s4 { fill: #d99b8a } 
		.s5 { fill: #ec1d32 } 
		.s6 { fill: #f8f8f8 } 
		.s7 { fill: #ad1f23 } 
		.s8 { fill: #951b1d } 
		.s9 { fill: #e5c5bb } 
		.s10 { fill: #ffffff } 
		.s11 { fill: #231f20 } 
		.s12 { fill: #000001 } 
	</style>
	<g id="katman 1">
		<g id="&lt;Group&gt;">
			<path id="&lt;Path&gt;" class="s0" d="m1508.8 768.7c0 409-331.5 740.5-740.5 740.5-409 0-740.5-331.5-740.5-740.5 0-409 331.5-740.5 740.5-740.5 409 0 740.5 331.5 740.5 740.5z"/>
			<path id="&lt;Compound Path&gt;" fill-rule="evenodd" class="s1" d="m1067.4 60.8c91.5 38.7 173.6 94.1 244.2 164.6 70.5 70.6 125.9 152.7 164.6 244.2 40.1 94.8 60.4 195.4 60.4 299.1 0 103.7-20.3 204.3-60.4 299.1-38.7 91.5-94.1 173.6-164.6 244.2-70.6 70.5-152.7 125.9-244.2 164.6-94.8 40.1-195.4 60.4-299.1 60.4-103.7 0-204.3-20.3-299.1-60.4-91.5-38.7-173.6-94.1-244.2-164.6-70.5-70.6-125.9-152.7-164.6-244.2-40.1-94.8-60.4-195.4-60.4-299.1 0-103.7 20.3-204.3 60.4-299.1 38.7-91.5 94.1-173.6 164.6-244.2 70.6-70.5 152.7-125.9 244.2-164.6 94.8-40.1 195.4-60.4 299.1-60.4 103.7 0 204.3 20.3 299.1 60.4zm-1039.6 707.9c0 409 331.5 740.5 740.5 740.5 409 0 740.5-331.5 740.5-740.5 0-409-331.5-740.5-740.5-740.5-409 0-740.5 331.5-740.5 740.5z"/>
		</g>
		<path id="&lt;Compound Path&gt;" fill-rule="evenodd" class="s1" d="m983.7 258.9c65.9 27.9 125 67.8 175.8 118.6 50.8 50.8 90.7 109.9 118.6 175.8 28.9 68.2 43.5 140.7 43.5 215.4 0 74.7-14.6 147.1-43.5 215.4-27.9 65.9-67.8 125-118.6 175.8-50.8 50.8-109.9 90.7-175.8 118.6-68.2 28.8-140.7 43.5-215.4 43.5-74.7 0-147.1-14.7-215.4-43.5-65.9-27.9-125-67.8-175.8-118.6-50.8-50.8-90.7-109.9-118.6-175.8-28.8-68.3-43.5-140.7-43.5-215.4 0-74.7 14.7-147.2 43.5-215.4 27.9-65.9 67.8-125 118.6-175.8 50.8-50.8 109.9-90.7 175.8-118.6 68.3-28.9 140.7-43.5 215.4-43.5 74.7 0 147.2 14.6 215.4 43.5zm-740.9 509.8c0 290.2 235.3 525.5 525.5 525.5 290.2 0 525.5-235.3 525.5-525.5 0-290.2-235.3-525.5-525.5-525.5-290.2 0-525.5 235.3-525.5 525.5z"/>
		<path id="&lt;Path&gt;" class="s2" d="m1253.8 768.7c0 269.5-217.3 488-485.5 488-268.1 0-485.5-218.5-485.5-488 0-269.6 217.4-488.1 485.5-488.1 268.2 0 485.5 218.5 485.5 488.1z"/>
		<g id="&lt;Group&gt;">
			<g id="&lt;Group&gt;">
				<path id="&lt;Compound Path&gt;" fill-rule="evenodd" class="s0" d="m1209.1 789.6l-1.9 8.8-2.1 9.3-0.8 3.5-0.3 1.5-0.9 1.2-0.1 0.1-0.5 1.7-0.3 1.2-0.2 0.5-0.2 0.5-0.5 1.1-0.1 0.1 0.3 1.5-0.6 1.7-1.3 4.2c0 0-4.1 12.7-4.8 14.7l-0.3 1-0.2 0.9-4.5 15-1.9 6.4-6.5-1.3-7.2-1.5c-4.6 5.6-11.6 9-19.1 9-1.8 0-3.3-0.2-4.3-0.4h-0.1l-5.1-0.4-2.2-0.2-1.8-1.5-3.3-2.8-13.3-1.5h-1l-2-0.1-0.9-0.1-0.8-0.2-1.6-0.5-3.7-0.4c-3.3-0.5-6.5-0.9-9.7-1.3q-1.2 0.5-2.5 0.8-1.1 1.7-2.4 3.1c-4.4 4.7-9.2 7-12 8.4-0.5 0.2-0.9 0.4-1.2 0.5l-15.9 8.9-6.8 3.7-3.3-7-1.1-2.2c-2.5 0.9-5 1.8-7.5 2.7q-1.3 0.4-2.6 0.9c-3.8 1.3-7.2 1.6-9 1.7l-0.1 0.1-0.8 0.1-0.8 0.2-0.4 0.1h-0.1l-1.4 0.6-1.4 0.6h-1.5l-3.4 0.1-12.4 0.1c-0.6 0.2-1.4 0.4-1.6 0.5-1.9 0.8-3.3 1.4-4.2 2-0.4 0.3-1.5 1.3-2.3 1.9q-1.1 1-2.1 1.9-0.4 0.3-0.6 0.6l-0.3 0.2q-0.5 0.5-1.1 1l-1.9 1.8-0.8 0.8-1 0.5-2.4 1.1q-1.7 0.8-3.5 1.7c-3.1 1.6-6.4 3.1-10 4.7-8.4 3.5-15.5 6.2-22.2 8.6-5.1 1.8-9.6 2-12.3 2h-0.3q-0.2 0-0.5 0.1-1.7 0.1-3.4 0.3h-0.1c-3.7 0.4-7.8 0.8-12.3 0.8h-0.2c-6.5 0-13.1-1.8-18.8-4.9q-1.6-0.1-2.9-0.2c-0.5 0.4-1.1 0.9-1.8 1.4q-1.7 1.4-3.5 2.8l-4 3.1-1.8 1.3-2.1 0.1-3.7 0.3c-2 1.6-8 6.5-17.1 6.8q-1.7 0-3.5 0.1-0.1 0-0.2 0c-1.3 8.8-6.3 16.2-13.7 20.3-1.1 2.5-2.6 4.8-4.5 6.9l-2.5 14.3-1.3 7.5-7.5-1.7-17.4-3.9q-1.1-0.2-2.1-0.4c-1.8-0.4-3.6-0.8-5.6-1.3-10.1-2.6-17.5-9.3-20.8-18.6q-3.2-2.9-5.5-6.6-1 0.1-2 0.1c-5.6 0-10-1.8-12-2.7-2-0.6-3.8-1.2-5.3-1.7-0.3-0.2-1-0.4-1.5-0.6h-0.1q-2.6 0-5.2-0.5c-0.9 0.8-1.9 1.6-2.6 2.3-1 5.8-3.7 11.1-7.9 15.6l3 6.5-8.3 2.2-13.6 3.6-19.8 5.3q-1.4 0.4-2.8 0.8-0.5 0.3-1.1 0.5c-1.5 0.9-5.4 3-10.7 3.5-1.4 0.7-2.9 1.4-4.8 2.1-5 1.8-9.9 2.7-14.5 2.7-2.8 0-5.6-0.3-8.3-1-6.5-1.7-12-4.3-16.8-6.6l-1-0.5c-3-1.4-5.7-3.2-8.2-5.7q-5-2.3-9-6.5c-1.5-0.3-3.1-0.6-4.8-0.9q-2.6-0.5-5.2-1c-1.5-0.3-4.7-1-8.3-2.8h-0.3-0.6l-0.6-0.1-1.4-0.2-5.3-0.8q-0.1 1.4-0.3 2.8c-0.4 3.6-1.5 6.4-2 7.8v0.1l-0.3 0.9-0.1 0.5-0.3 0.4-0.5 1.1-1 2.1-1 2.1-7.7 15.9-3.3 6.8-6.7-3.5-10.4-5.5-3 1.9-1.8 1.2-2.1-0.1h-0.4c-2.4 1.4-6.2 3.4-11.1 4.4q-2.8 0.6-5.7 0.6c-3.3 0-6-0.6-8.3-1.2l-0.9 0.2-0.9 0.1h-1l-2.2-0.2q-0.2-0.1-0.4-0.1h-0.3c-1.8-0.1-4.8-0.2-8.2-1.1-3.1-0.8-5.5-1.9-6.9-2.5v-0.1c-6.2-2-11.5-5.6-15.5-10.3l-0.2 0.8-7.3-2.6-2.9-1q-1.1 1.3-2.4 2.7l-7.1 7.7-2.9 3.1-4.1-1-7.2-1.7-8.2 5.2-2.7 1.7-3.1-0.9-3.1-0.8-2.9-0.8-1.5-2.6-2.7-4.6c-3.1 0-12-0.8-18.6-8.7l-5.5 1.4-1.9-6.8-4.6-15.8-0.7-2.3q-0.8-2.8-1.6-5.5l-0.2-0.9q-1.2-4.2-2.4-8.5c-4.1-2.8-9.3-7.8-11.5-15.6q-1.1-0.1-2.3-0.4c-4.1-0.9-8.6-2-13.6-3.4-9.5-2.7-17.1-10.8-19-20.3-1-5-2-10.1-2.9-15v-0.1l-1.6-6v-0.1l-0.1-0.1-0.9-4.1-0.1-0.2v-0.1l-1.7-8.5-2.5-12.5c-2.3-3.8-3.2-7.6-3.9-10.4q-0.6-2.2-1-4.2-0.7-0.3-1.4-0.5c-8.7-3.5-14.7-10.3-16.5-18.8-1.2-5.3-2.2-10.7-3.2-15.5l-1.5-4.9v-0.1l-0.1-0.2-0.2-0.7-0.3-1.2-0.2-0.7-0.3-0.8-0.1-0.4-0.1-0.3-0.1-0.9-1.6-8.2-0.5-2.6-0.4-1.1-0.9-2.8-0.6-1.9-0.3-0.9v-0.9l-0.2-2.1v-0.6l-0.1-1.5-2.6-7.2-1.1-3.4 1.9-3 4.5-7 0.5-0.8 0.1-3.3 0.3-4.9 4.6-1.6 4.8-1.6c-0.7-8.1 1.6-15.6 6.9-21.6q0.4-1 0.9-1.9c-0.4-4.4-0.1-8.5 0.9-12.2q-0.8-3.4-1.6-6.8c-0.8-3.4-1-6.8-0.4-10.2 0.1-2.8 0.4-5.3 1.1-7.8 2.1-7.5 7.4-13.9 13.9-17.4 4.8-6.1 11.8-10.1 19.3-10.9 5.1-4.8 11.2-7.3 17.8-7.3h0.5c2.1-0.5 5.3-1.2 9.2-1.2 4.7 0 9.2 1 13.4 3q0.3-0.1 0.6-0.1c3.6-1.7 7.7-2.6 11.9-2.6 3.2 0 5.8 0.5 7.4 0.8 6.3 0.7 12.1 3.8 16.4 8.7 3 3.7 5.3 8.6 6.4 13.7 0.8 0.2 2 0.5 3.5 0.8 5.3 1.1 11 1.9 17 2.8q4.2 0.6 8.4 1.2l2.3 0.4c2.6 0 5.3 0 8.1 0q4.4 0.1 8.8 0.1 1.3 0 2.5 0c1.2 0 2.9-0.2 4.7-0.4h0.5l12.7-4.4 3.3-1.1 1.5-0.5 1.4 0.2 3.5 0.2 14.1 1.1h2.7l1 0.1h0.5 0.4l1.1 0.2q0.5 0.1 1 0.1l1.9-2.6c4.3-6.7 9.9-9.6 14.3-10.9 0.5-0.4 1.1-0.8 1.4-1.1q1.2-1 2.6-2c2.7-2.1 5.3-3.6 7.4-4.9h0.1q0.7-0.5 1.5-0.9 2.4-1.5 4.8-2.9l0.1-0.2 0.8-1.1 1.1-0.8 2.6-1.8q0.3-0.2 0.7-0.5l0.1-0.1c1.3-0.9 2.9-2.1 5-3.3 0.6-0.3 1.6-1 2.5-1.6 4.2-2.9 10.4-7.2 19.3-9 1.3-0.2 4.3-1.8 5.5-2.5 7.3-3.9 16.2-7.9 27.3-7.9q0.8 0 1.6 0 0.8 0 1.5 0c3.1 0 6.6-0.3 10.8-0.9q1.1-0.2 2.1-0.4h0.2c3-0.5 7-1.3 11.7-1.3q2 0 4.1 0.2c4.1-1 8-1.4 11.2-1.6 3.4-3.6 7.4-6.1 12.1-7.4 2.3-0.7 4.6-1 7-1 9.2 0 15.5 4.7 18.5 7l0.1 0.1 0.2 0.1c3 2.1 5.7 4.9 7.7 8.1 1.2-0.6 2.6-1.4 4.2-2 4.3-1.9 8.7-2.8 13.2-2.8 10 0 19 4.8 24.4 12.6 2.9-0.8 5.5-1 7.6-1q2.3 0 4.7 0.4c0.8 0.1 1.9 0.2 3 0.3 2 0.2 4.5 0.5 7.2 1 3.1 0.5 8.7 2.1 13.8 6.3q2.5 0.2 4.9 0.7c3.3-1.2 6.8-1.9 10.2-1.9 5.1 0 10 1.4 14.3 3.9 2.8 0.2 5.5 0.4 7.8 0.4q0.7 0 1.3 0 1.5-0.1 2.3-0.1c3-1.3 5.7-2 7.7-2.5 3.1-2.4 6.8-4.1 10.7-4.9l4-1.1 0.7-0.3 0.3-0.1 0.7-0.3 2-0.8 0.9-0.4 1-0.1 1.7-0.2v-3.4l8.1 1 5.2 0.5h0.4l2.9-0.4 1.2-0.1 1.2 0.3 2.9 0.6 0.4 0.1 0.5 0.1 1 0.2 0.4 0.1 0.4 0.2 0.6 0.2 1 0.1h0.2 0.4 0.2 0.2 0.4 3.2l9-0.1h0.2c3.1-1.9 6.5-3.4 10.4-4.5 3.8-4.3 9.1-7.3 14.9-8.6 2.3-2 4.5-3.6 6.3-4.9 5.5-8.4 14.7-13.4 24.9-13.4q1.9 0 3.7 0.2c3.6-1.6 7.5-2.5 11.3-2.6q3.9-0.1 7.6-0.1 3.2-2.7 7.3-4.5c3.3-1.6 7-2.4 10.8-2.5q2.4-0.4 4.7-0.4c7.2 0 13.8 2.7 18.7 7.7q3 1.1 5.9 2.3l3.4 1.3 6.8 2.6c6.3 1.3 11.9 4.7 15.9 9.8 11 3.8 15.3 11.8 16.8 14.8q0 0.1 0.1 0.2l0.2 0.2v0.1c4.5 5.7 6.7 12.5 6.8 19.6q3-0.4 6-0.4c7.2 0 14 2 20 5.9 2.5 1.7 4.8 3.1 6.9 4.4 1.8 0.8 3.5 1.6 5 2.6 2.1 1.3 3.8 2.7 4.9 3.6l0.1 0.1q0.2 0.2 0.5 0.4l7.9 6.2 3.4 2.7-0.7 4.3-1.7 10c-0.1 0.8-0.2 1.5-0.4 2.5-0.4 2.4-0.8 5.1-1.5 8.1-1.4 6.1-2.9 12.3-4.3 17.8q0.6 1.6 1.1 3.3l10.8-0.6 9.4-0.6-1.8 9.3-4.1 21.3 12.2 5 5.4 2.1-0.9 5.8-1 6.6c12 9 14.1 22.4 11.9 32.5zm-833.2 10.1l-5.9-4.6-1.4-1.1 0.3 1.8c0.7 3.6 1.5 7.3 2.2 11 0.5-0.2 0.9-0.4 1.1-0.6zm802.3-17.2c-0.3-0.3-0.8-0.6-1.8-1-6.2-2.8-10.4-8.6-11.5-15.4-2.5-0.3-5.5-1-8.3-2.9-0.7 0-1.4-0.1-2.4-0.2l-1.5-0.1-8.2-0.7 1.6-8 2.2-11.5 0.5-2.5c-4.5-1.4-7.5-5.2-8-10.7-0.2-2.3-0.4-2.8-0.6-3-2.7-2.1-3.8-5.7-3.7-8.7q-2.7-1.4-4.4-3.7l-2.8-3.6 2-4 0.4-0.8c2.2-4.5 3-6.1 3.2-6.7 1.5-5.9 3.2-12.5 4.7-19q0.4-2 0.7-4.2c-0.6-0.2-1.4-0.6-2.2-1.1-2.9-1.8-6-3.7-9.4-5.9-0.9-0.6-1.7-0.8-2.7-0.8-1.1 0-2.4 0.2-4 0.7l-1.2 0.3c-3.2 1-6.8 2-10.9 2-2.7 0-5.2-0.4-7.7-1.4l-0.4-0.1c-2.4-0.9-7.8-2.9-9-9.5-0.1-0.2-0.3-0.3-0.3-0.4-2.9-3.4-8.7-10.5-4.7-20.7 0.2-0.6 0.7-2 0.3-2.5l-0.4-0.4-0.3-0.6q-0.3-0.4-0.6-0.9c-0.6-0.8-1.3-1.8-1.9-3v-0.1q-0.2 0-0.4-0.1c-3.4-1.1-8.2-2.7-11.6-7.1q-1.8 0.5-3.6 0.5c-4.8 0-8.7-2.8-10.7-7.1q-6.1-2.3-12.1-4.7-1.9-0.8-3.3-2.1c-1.9 4.2-5.7 6.5-10.8 6.5h-0.4c-2.6-0.1-5.2-0.1-7.9-0.1q-3.3 0-6.9 0c-2.3 2.5-5.3 3.8-8.9 3.8-1 0-2.1-0.1-3.4-0.4q-1.3-0.2-2.6-0.5-0.5-0.1-1.1-0.3c-1.1 2.1-2.7 3.7-3.9 4.6-1.3 1-2.5 1.9-3.7 2.8-1.5 1.1-2.9 2.1-4.1 3.1l-0.7 0.6c-2.6 2.3-6.2 5.4-11.5 6.2-3.2 5.4-8.9 6.8-11.6 7.4-3.8 0.9-6.1 1.8-7.8 3.6-2.3 2.7-6.4 4.5-10.2 4.6q-1 0-2 0c-2.6 0-5.1-0.1-7.5-0.3q-1.7-0.1-3.4-0.2l-3.6-0.2-0.5-0.8-1 0.1h-0.5-0.6-0.2l-0.1 0.1-1.6-0.3-4.4-0.6h-0.2l-0.1-0.1-0.5-0.1h-0.2l-0.6-0.1-0.5-0.2-0.7-0.3q-1.5 0.2-2.9 0.4-1.2 0.2-2.5 0.4l-1.3 0.2h-0.1l-0.2 0.1-3.4 0.4-0.5 0.3-0.7 0.4-0.8 0.2-1.9 0.5-5 1.4c-3.5 3-7.6 4.1-10.7 4.8-1.4 0.4-2.8 0.8-3.9 1.3-4.4 2.1-9.4 2.2-13 2.3q-1.2 0.1-2.4 0.1c-3.7 0-7.4-0.3-11-0.6h-0.7-0.2c-2.7-0.2-6.4-0.5-10-2.6-2.4 2.3-5.1 2.7-6.7 2.7-1.9 0-3.6-0.6-4.7-1-2.7-1.2-5.4-1.8-8-1.8q-0.5 0-1.1 0.1-1 0-2.1 0c-7.4 0-11.3-3.4-13.3-6.9q-1.7-0.3-3.5-0.4-1.4-0.2-2.8-0.3c-3.4 4.5-7.4 6.7-12.1 6.7-3.4 0-6.9-1.3-10.7-3.9-3.9-2.7-9.7-6.8-12.3-14.2q-1.2 0.5-2.5 1.2c-2.6 1.4-5.6 3-9 3.7q-3.4 0.7-6.8 0.7c-7.3 0-14-2.5-19.9-7.6-1.2-1-3.2-2.8-4.5-5.6-2.8 2.2-6.5 4.7-11 4.7-5.2 0.1-9.9 0.2-14.2 1.7-1.4 0.5-2.6 0.7-3.9 0.7q-1.3 0-2.6-0.3-1.2-0.4-2.6-0.4c-1.8 0-3.8 0.4-6 0.8q-1.6 0.3-3.2 0.5c-5.8 0.9-10.9 1.3-15.6 1.3q-1.3 0-2.6 0-0.3 0-0.5 0c-4.2 0-8.2 1.9-12.2 4.1-4.1 2.2-8.9 4.6-14.4 5.7-2.5 0.5-4.8 2.1-7.4 3.9-1.5 1.1-3.1 2.1-4.8 3.1-0.6 0.4-1.4 0.9-2.2 1.5q-0.2 0.1-0.3 0.2l-0.2 0.3-0.7 0.5-1.2 1.1-1.1 1-0.3 0.2-0.4 0.4-0.5 0.4-0.6 0.4-2.1 1.3q-2.5 1.4-4.9 2.9-1 0.6-2 1.2c-1.6 1-3.1 1.8-4.3 2.8q-1 0.7-1.9 1.5c-2.4 1.9-5.1 4.1-8.6 5.6l-0.1 0.9-0.1 0.2v0.2l-0.1 0.4-0.1 0.4-0.1 0.8-0.4 0.8-0.2 0.5-0.5 1.9-1.4 1.5-1.6 1.6-0.6 0.6-0.7 0.5c-6.1 3.9-13 5.9-20.7 5.9q-3.6 0-7.5-0.6l-2.8-0.1h-0.2-0.2l-13.2-1-14 4.8-0.8 0.3h-0.9q-1.5 0.2-3 0.3c-2.5 0.3-5 0.6-7.7 0.6q-1.5 0-2.9 0-4.7 0-9.4-0.1-3.9 0-7.7-0.1-0.1 0.1-0.2 0.1-0.6 0.2-1.3 0.4l-1.8 0.5-1.8-0.5-0.7-0.1-0.1-0.1-1.4-0.3-1.1-0.8-0.2-0.1q-3.1-0.5-6.3-0.9c-6.3-0.9-12.8-1.8-19.2-3.2-7.9-1.7-16.7-4.2-23.1-12.1-1.5-1.9-4-5-4.7-9.3-1.4 0.7-2.9 1-4.1 1q-1.2 0-2.3-0.3-0.7 0.5-1.5 0.9c-1.9 1.1-4.1 1.6-6.4 1.6-4.4 0-8.6-1.9-11.2-5.3l-0.1-0.1c-0.6 0.1-1.3 0.3-2 0.5-1.4 0.3-2.9 0.6-4.7 0.8-4.1 3.9-9.2 6.2-15.3 6.9q0 0.1 0 0.2c-1.2 2-3.3 5.8-7.6 7.5v0.6l-0.2 0.8q0 0 0 0.1 1.3 5.6 2.8 11.3l0.9 3.7 1.8 7.1-4.2 1q0.2 0.9 0.4 1.9c0.3 1.6 0.7 3.3 0.8 5.3 0.2 3.2-1 8.5-5.2 10.6-0.6 1.9-1.8 4.2-3.7 5.8q0 0.2 0.1 0.4l0.5 1.3v1.4 0.2l1.2 3.2 0.3 0.6 0.1 0.8 1.1 6.8 1.1 3.2 0.5 1.7-0.2 1.2c0.1 0.6 0.3 2 1 5.4 0.1 0.6 0.4 1.7 0.6 2.8 0.3 1.1 0.6 2.2 0.6 2.6l0.1 0.3 0.1 0.4q0.1 0.5 0.2 1.1c0.2 1 0.4 2.1 0.5 3.4q0 1.1 0.2 2.1c0.2 2.5 0.5 5.3 0.2 8.2-0.1 2.5-0.9 4.8-1.5 6.7q-0.2 0.6-0.4 1.3l3.8 18 1.7 8.2 0.5 2.2q0.5 2.4 0.9 4.7c0.7 3.4 1.3 6.5 2 9.6h0.5 0.4c1.2 0 4 0.3 6.1 3.2l5.5 6.5-7.6 4.3h-0.1l4.6 23.2 0.1 0.4q0.6 0.9 1 1.9l0.2 0.6 0.1 0.5 0.7 4.1c0.7 3.7 1.4 7.5 2.1 11.3q3.5 0.9 6.6 1.6c2.4-1.9 5.1-2.3 6.5-2.5q0.4-0.1 0.7-0.1 1.6-0.4 3-0.4c2.8 0 6.5 1 8.7 5.7l5.5-0.7 1.3 6.8q0.4 2.1 0.7 4.2c0.5 3 1 5.9 1.6 8.7 1 0.3 2.1 0.7 3.2 1q1.2 0.3 2.3 0.7l3.1 1 1.3 3 0.2 0.2 0.2 0.6 0.2 0.6 0.2 0.9 0.2 0.7v0.7 0.6l0.1 1.8q0.1 0.7 0.1 1.4c0 0.3 0 0.7 0 0.8 1 4 2.1 8 3.2 11.9l0.2 0.8q0.1 0.3 0.2 0.7l4.9-1.3 1.4 7.8q0.1 1 0.3 1.9c0.2 1.2 0.4 2.3 0.6 3.5q0.1 0.6 0.3 1.3 1.1-0.2 2.2-0.3c1.7-2.2 4.5-3.9 9.3-4q0.4 0 0.8 0c1.5-0.1 2.4-0.5 2.6-0.6 1.1-0.5 2.6-1.1 4.5-1.1 0.7 0 3 0.1 5 1.7q0-0.4 0-0.7 0.1-0.2 0.1-0.4v-10.4l9 3.2c1.1-0.8 2.6-1.3 4.5-1.3 2.1 0 3.7 0.7 5.3 1.7q0.6-0.1 1.1-0.1c3.6 0 6.6 1.8 8.3 4.7q0.2 0.1 0.4 0.1 0.4-0.5 0.8-0.9l3.1-3.5 4.4 1.4 5.1 1.5 3 0.9 1.4 2.8q0.9 1.8 1.3 3.7 0 0.1 0.1 0.2 0.2 0.2 0.5 0.4c1.3 1 4 3 4.5 6.8 0.1 0.9 0.3 1.2 0.3 1.2 0 0 0.2 0.2 0.8 0.3 1.3 0.4 2.5 1 3.4 1.4 0.5 0.2 1.1 0.5 1.4 0.6 0.4 0.1 1 0.1 1.7 0.2 1.7-1 3.4-1.2 4.5-1.2 2.2 0 3.9 0.8 4.9 1.2l0.3 0.1c0.9 0.2 1.7 0.5 2.4 0.7q0.2 0.1 0.4 0.2c0.6-0.3 1.3-0.7 1.8-1q0.5-0.2 0.9-0.5l0.9-1.1 1.8-0.6 2.6-1 0.2-0.6 2.8-0.5 3.9-2.8 0.5-0.4 0.7-0.3c2.1-1 4.4-1.5 6.7-1.5q1.8 0 3.5 0.4 0.2-2 0.3-4.2 0.1-1.2 0.2-2.4l0.1-0.7-0.2-0.8 0.1-1.1q0-0.5 0.1-1.1c0-0.4 0.1-0.9 0.1-1.2q-0.1-3.1-0.2-6.2v-2.5l-0.1-3.8 3.1-2.3 0.3-0.2 0.2-0.1 0.3-0.2 0.8-0.5q1.1-0.7 2.4-1.1l1.1-0.3h1.1l4.2 0.1h0.4 0.3l0.4 0.1 0.2-0.1h0.2l0.2-0.1q0.1 0 0.2 0h0.1l0.1-0.1 3.2-0.7 1.3-0.3 0.7-0.5h2.2 1 3 0.5l0.6 0.1 12.4 1.8q0.5 0 0.9 0c3.6 0 8.2 0.4 12.4 3.4q0.2 0.1 0.3 0.1 2.3 0.4 4.5 0.9c3 0.5 6.2 1.1 9.3 1.9 3.9 1 7.9 2.4 10.6 5.7q0.5 0.6 0.9 1.2c0.2 0.3 0.5 0.6 0.7 0.9 3.3 0.3 5.3 2.5 6.2 3.5l0.1 0.2c0.6 0.5 1.2 1.1 1.6 1.6 0.2 0.2 0.5 0.5 0.7 0.7l0.7 0.4c4 1.8 7.7 3.6 11.4 4.5q0 0 0.2 0.1c0.4 0 1.6-0.1 3.7-0.9 0.6-0.2 1.4-0.6 2.2-1.1 2.3-1.2 5.4-2.9 9.6-2.9q0.1 0 0.2 0 0.2-0.1 0.5-0.3 0.5-0.2 1-0.5c1.1-0.5 2.4-1.1 3.9-1.6 3.3-0.9 6.5-1.8 9.7-2.6l3.3-0.9q1.7-0.5 3.4-0.9 1.2-1.3 2.3-2.5c1.2-1.2 2.3-2.4 3.4-3.7l6.3-8.1 1.4 2.2q0 0 0 0c3.1-6.6 8.2-10.9 12.7-14.6 1.6-1.4 3.1-2.7 4.4-4 4.4-4.2 8.9-5.1 11.9-5.1 3.1 0 6.2 0.9 9.4 2.6q0.2 0.1 0.3 0.2c4.4 0 8 1.3 11.3 2.5 1.3 0.5 2.6 1 3.8 1.3q0.9 0.2 1.7 0.6 2.3-1.5 4.8-1.9 0.2-0.5 0.3-1l0.1-0.3c0.3-1.4 1-4.3 3.9-6.2 2.5-1.6 5-3 7.2-4.3q1.1-0.7 2.1-1.2l11-6.6v12.9q0 2.3 0.1 4.8c0.1 4.1 0.2 8.8-0.2 13.5-0.5 5.2 0.3 5.7 1.4 6.4 0.6 0.3 2.1 1.2 3.2 2.9 0.2 0.3 0.5 0.8 0.8 1.2 0.9 1.2 2 2.7 2.8 4.6 1-1.4 2.4-2.5 4.1-3.3 0-0.3 0.1-0.5 0.1-0.7-0.3-4.5 1.2-10.3 10.1-12.4q0.4-0.1 0.9-0.2c0.4-3.9 0.7-7.8 1.1-11.6l0.5-5.5 0.8-7.8 7.7 1.2 7.4 1.3 2.2-0.8 0.4-0.1 0.3-0.1c3.8-0.8 7.4-0.8 10.6-0.8q0.6 0 1.1 0l0.6-0.5c2.9-2.5 7-5.9 13.1-6.1h0.2q0.5-0.4 1.1-0.9c2.5-2 5.2-4.1 8.3-5.9 3.4-1.9 7.2-2.4 10.3-2.7l0.6-0.1q0.7-0.1 1.4-0.1c1.4 0 2.6 0.3 3.6 0.4 0.3 0.1 0.7 0.2 0.8 0.2q0.9-0.1 1.7-0.1c5.5 0 9.9 2.2 13.1 4 1 0.6 2.5 1 3.7 1 2.9 0 5.9-0.3 9.1-0.6q2-0.2 4-0.4 1.3-0.1 2.6-0.1c0.9-0.1 2.2-0.1 2.6-0.2 6.2-2.2 12.7-4.8 20.6-8.1 2.7-1.1 5.4-2.4 8.2-3.8q1.4-0.7 2.8-1.4 0 0 0 0c0.7-0.6 1.5-1.4 2.3-2.1q0.8-0.7 1.7-1.4c1.7-1.6 3.7-3.3 5.9-4.8 2.6-1.6 5.6-3.2 9.4-4.7 2.1-0.9 4.2-1.5 6-2q1.1-0.3 2.2-0.6l1-0.3h1.1 1.4l12.6-0.1 0.3-0.1 1-0.5 1.1-0.1 2.1-0.2 0.3-0.1 2-0.4 0.4-0.1h0.4q0.8-0.1 1.7-0.2c0.3 0 0.7 0 1 0q1.3-0.5 2.6-1c4.5-1.5 8.8-3 12.8-4.9 0.8-0.4 1.9-1.4 3-2.3 1-0.9 2.1-1.9 3.4-2.8 1.3-1 4.1-2.7 7.1-2.7 1.4 0 2.8 0.4 3.9 1 1.8 0.9 3.5 2.2 5.1 4q0.2-0.4 0.3-0.8 0.4-1.2 0.9-2.4c1.9-4.9 6.5-8 11.7-8q1.3 0 2.6 0.2c0.5 0.1 0.8 0.2 1 0.2q0.1 0 0.1 0c2.2-1.6 5-2.4 8.4-2.4q1.1 0 2.2 0.1c4.9 0.5 9.8 1.1 14.5 1.8q2.7 0.3 5.4 0.7h0.6l0.5 0.2 0.3 0.1h0.2l1.1 0.1h0.3 0.2l22.7 2.7 3.7 0.4 0.2 0.3q0.8-0.6 1.5-1.1c0.8-0.6 1.8-1.3 2.1-1.7 2.6-3.7 5.7-4.7 7.8-4.9 0.7-2 1.6-5 3.1-9.5l-0.2-1.1-0.5-2.3 1-2.1 3-6.7 0.7-2.3 0.9-3 0.4-1.2 0.3-0.5 1.7-7.8c0.7-2.9 1.3-5.7 1.9-8.8q0.1-0.1 0.1-0.2zm-450.5 162.8q0 0 0 0 0.1 0.1 0.1 0.1 0 0-0.1-0.1z"/>
				<g id="&lt;Group&gt;">
					<path id="&lt;Path&gt;" class="s3" d="m1139.9 687.9c0-3.4 0.2-6.8 0.1-10.2-0.2-4.7 1.6-6.4 6.3-5.4 0.7 0.1 1.3 0 2 0-0.5 3.1-0.9 6.2-1.6 9.3-1.5 6.5-3.2 13-4.8 19.5-0.2 0.9-3.6 7.6-4 8.5-1.3-0.3-1.5-4.5-0.9-7q-0.4-0.7-0.9-1.4 1.9-6.6 3.8-13.3z"/>
					<path id="&lt;Path&gt;" class="s4" d="m1179.1 808.8q-1.2 2.6-2.4 5.3-1.7-2.2-3.4-4.5c-0.9-0.6-1.7-1.7-2.6-1.9-2.1-0.2-2.7-1.1-2.6-3.1 0.1-0.7-0.1-1.7-0.5-2.3-1.7-2-1.4-3.8 0.3-5.8 1.4 1.7 2.8 3.2 4.3 4.9 1.8-1.4 3.4-2.7 5.1-4-1.8-2.3-4.2-4.5-0.9-7.3q0.7 0.6 1.5 1.2c0.8 1.2 1.5 2.5 2.4 3.7 1.2-0.7 2-1.2 2.8-1.7q-0.9 4.5-1.8 9-0.2 0.3-0.5 0.7c-0.3-0.8-0.6-1.5-1-2.6-2 1.5-3.8 2.8-6.1 4.5 2 1.5 3.7 2.7 5.4 3.9z"/>
					<path id="&lt;Path&gt;" class="s3" d="m1183.4 793q-0.3 0.1-0.3 0.3c-0.8 0.5-1.6 1-2.8 1.7-0.9-1.2-1.6-2.5-2.4-3.7q0.9-2.7 1.8-5.4 0.2-0.6 0.4-1.1 0.2-0.3 0.5-0.6 2.3 0 4.7 0.1-1 4.4-1.9 8.7z"/>
					<path id="&lt;Path&gt;" class="s3" d="m1179.1 808.8c-1.7-1.2-3.4-2.4-5.4-3.9 2.3-1.7 4.1-3 6.1-4.5 0.4 1.1 0.7 1.8 1 2.6q-0.8 2.9-1.7 5.8z"/>
					<path id="&lt;Path&gt;" class="s3" d="m1175.8 816q-1.9-1-3.8-2 0.7-2.2 1.3-4.4 1.7 2.3 3.4 4.5-0.4 0.9-0.9 1.9z"/>
					<path id="&lt;Path&gt;" class="s5" d="m387.8 733.8c0.1 0.8 0 12.1-0.3 13-0.9-0.5-3.1-5.5-3.7-6.2"/>
					<path id="&lt;Path&gt;" class="s5" d="m380.6 737q-6 0.8-11.9 1.6c-1.3-3.3-2-6.4 1.9-8.7 0.8-0.5 1.4-1.7 1.5-2.7 0.3-2.2 1.3-3.3 3.5-4 0.8-0.2 1.5-2.4 1.4-3.6-0.1-2.6-1-5.1-1.3-7.7-0.3-2.5-0.9-5.4 2.7-6.3q2.7-1.5 5.4-3c2.5 0.1 3.4-1.2 3.1-3.6-0.2-1.8-0.6-3.7-0.5-5.5 0.1-3.8-2.1-5-5.4-5.3q-3.1-0.6-6.3-1.2c0-1.3-0.3-2.7 0.1-3.9 0.3-0.9 1.3-2.5 1.9-2.4 4.9 0.5 5.7-3.7 7.7-6.5 0.5-0.8 1.7-1.7 2.6-1.7 5.4-0.3 10.1-2 13.8-6.1 0.4-0.5 1.1-1.2 1.5-1.1 4.4 0.8 8.7-2.8 13.1-0.3q1 0.9 1.9 1.9c0 0 0 0 0 0 2 2.6 5.9 3.4 8.5 1.9 2.2-1.2 4.2-3.3 7.1-1.5 0.3 0.2 1.3-0.3 1.5-0.7 2.1-4 5.6-1.5 8.4-1.5 0.5 0 1.8 3 1.5 4.4-0.6 3.7 1.2 6.2 3.3 8.9 4.9 6 11.9 7.9 18.9 9.5 8.8 1.9 17.9 2.8 26.8 4.2q0.8 0.6 1.6 1.1c-0.7 1.1-1.9 2.1-2.1 3.3-0.8 3.4-1.7 6.5-4.9 8.3q-0.9 0.1-1.7 0.2-1.1 0.3-2.2 0.6-3 0.4-6 0.9c-1.3 0.1-2.6 0.6-3.9 0.4-5.4-0.7-10.9-1.9-16.4-2.3-2.3-0.1-4.7 1.5-7 2.4q-2.9 2.2-5.7 4.3c-2-0.4-4-0.8-6-1.4-2-0.5-8.4 1.8-9.7 3.6q-3.9 5.3-7.8 10.6c-0.1 0 0 0.2-0.1 0.3-0.5 1-0.8 2.3-1.7 2.9-2.6 1.8-5.4 3.4-8.1 5.1q-0.3 0.3-0.6 0.6-3.8 2.6-7.6 5.2c-2.6-0.2-15 6.2-17.6 6"/>
					<path id="&lt;Path&gt;" class="s4" d="m442.1 921.2c-2.3-0.7-4.7-1.2-6.9-2.2-1.2-0.6-2.8-1.7-3.1-2.9-1.1-4.9-1.9-9.9-2.8-15-1.4 0.1-2.6 0.3-3.9 0.4-0.4-0.7-0.7-1.6-1.2-2.2-1.2-1.6-0.7-4.9-4.4-3.9-2 0.5-4.2 0.1-5.4 2.5-0.3 0.6-1.9 0.9-2.8 0.7-4.1-0.9-8.2-1.9-12.2-3.1-0.7-0.2-1.6-0.9-1.7-1.6-1.3-6.2-2.4-12.4-3.5-18.7 0.8 0.1 1.7 0.2 2.5 0.4q6.5 1.2 13.1 2.4 2-1.6 4-3.1 1.9-0.4 3.8-0.7 1.7 3.2 3.5 6.5c5.3-1.3 5.1 2.8 5.8 5.9q0.4 1.5 0.5 2.9c0.7 8.2 1.6 9.1 9.9 10 0.6 2.9 1.1 5.9 1.9 8.8 0.3 1.1 1.2 2 1.8 3.1q0.5 4.9 1.1 9.8z"/>
					<path id="&lt;Path&gt;" class="s3" d="m409.8 878q-6.6-1.2-13.1-2.4c-0.8-0.2-1.7-0.3-2.5-0.4q-0.1-0.2-0.3-0.3-0.3-0.4-0.5-0.7c0 0-0.1-0.1-0.1-0.1q-0.2-1-0.4-2-2.7-13.2-5.3-26.4 7.1 1.6 14.2 3.2c0.9 1.1 2.3 2.1 2.6 3.3 1.9 8.6 3.6 17.2 5.4 25.8z"/>
					<path id="&lt;Path&gt;" class="s4" d="m393.3 841.2q-1.5 0.3-3.1 0.7 0.8-0.5 1.6-0.9c-0.1-0.2-0.2-0.4-0.3-0.4-6.2 0.8-6.3 0.9-7.8-5-1.3-5-2.1-10.1-3.2-15.1q2.9-0.6 5.8-1.2c5.2-1.7 10.5-3.4 16.1-5.2 0.6 2.8 1.1 5.3 1.5 7.8 0.3 1.6 0.3 3.3 2.6 3.3 0.4 1 1 2.1 1.2 3.1 0.6 2.2 0.9 4.3 1.3 6.5-3.9 2.4-3.9 2.4-5.2-2-1.1-3.7-8.2-7.9-13.2-7.3q0.4 3.5 0.8 7 0.9 4.4 1.9 8.7z"/>
					<path id="&lt;Path&gt;" class="s3" d="m359 787.8q-1.2-6.1-2.4-12.2c0-0.8-0.1-1.6-0.1-2.7 3.1 2 6 2.5 9.4-1-1.9-0.6-3.3-1-4.6-1.5-1.2-0.5-2.5-0.8-3.4-1.6-1.2-1.1-2.2-2.6-3.3-3.9q-0.5-1.3-0.9-2.5 3.3 0 6.6 0.1c1.9 1 3.2 0.4 3.8-1.6q1.3-0.2 2.7-0.4 2.9 13.7 5.9 27.4c-0.2 1.5 0.3 3.4-2 3.7q-4.9 0.7-9.8 1.4 0-0.3-0.2-0.4-0.5-1.3-1.1-2.7c0 0 0-0.1 0-0.1q-0.3-1-0.6-2z"/>
					<path id="&lt;Path&gt;" class="s4" d="m360.9 793q4.9-0.7 9.8-1.4c2.3-0.3 1.8-2.2 2-3.7q0.9 0.6 1.7 1.3 0.1 0.5 0.3 0.9 0 0.6 0 1.1c0.1 1.1 0.2 2.3 0.4 3.5q1.6 7.7 3.2 15.4c-1.6 3-8.4 5.4-11.6 4.2-0.7-0.3-1.6-0.8-1.7-1.4-1.4-6.6-2.7-13.3-4.1-19.9z"/>
					<path id="&lt;Path&gt;" class="s3" d="m378.3 810.1q-1.6-7.7-3.2-15.4c-0.2-1.2-0.3-2.4-0.4-3.5 2.1 0.4 5.2-1.3 6 2.5 1.2 6.3 2.4 12.6 3.7 18.9 0.4 2.3 1.3 4.5 1.9 6.7q-2.9 0.6-5.8 1.2-1.1-5.2-2.2-10.4z"/>
					<path id="&lt;Path&gt;" class="s3" d="m374.7 687q3.2 0.6 6.3 1.2 1.4 7.2 2.8 14.4-2.7 1.5-5.4 3c-1.4-5.6-2.8-11.2-4.1-16.8-0.2-0.5 0.2-1.2 0.4-1.8z"/>
					<path id="&lt;Path&gt;" class="s3" d="m354.9 770.3q-0.1-2.7-0.3-5.4c1.1 1.3 2.1 2.8 3.3 3.9 0.9 0.8 2.2 1.1 3.4 1.6 1.3 0.5 2.7 0.9 4.6 1.5-3.4 3.5-6.3 3-9.4 1 0 1.1 0.1 1.9 0.1 2.7q-0.8-2.6-1.7-5.3z"/>
					<path id="&lt;Path&gt;" class="s5" d="m357.6 757.9q1.6-0.6 3.3-1.2 0.6 0 1.3 0 1 2.1 1.9 4.2c-0.6 2-1.9 2.6-3.8 1.5q-1.4-1.9-2.7-3.9 0-0.3 0-0.6z"/>
					<path id="&lt;Path&gt;" class="s5" d="m357.6 758.5q1.3 2 2.7 3.9-3.3 0-6.6 0 1.1-1.7 2.1-3.3 0.9-0.3 1.8-0.6z"/>
					<path id="&lt;Path&gt;" class="s5" d="m364.1 760.9q-0.9-2.1-1.9-4.2c4.4-0.8 4.4-0.8 4.6 3.8q-1.4 0.2-2.7 0.4z"/>
					<path id="&lt;Path&gt;" class="s4" d="m359.6 789.9q0.6 1.4 1.1 2.7-0.5-1.3-1.1-2.7z"/>
					<path id="&lt;Path&gt;" class="s4" d="m392.9 872.1q0.2 1 0.4 2-0.2-1-0.4-2z"/>
					<path id="&lt;Path&gt;" class="s4" d="m359 787.8q0.3 1 0.6 2-0.3-1-0.6-2z"/>
					<path id="&lt;Path&gt;" class="s4" d="m393.4 874.2q0.2 0.3 0.5 0.7-0.3-0.4-0.5-0.7z"/>
					<path id="&lt;Path&gt;" class="s6" d="m815.9 704.1c7.2 5.7 13.8 10.7 20.1 16 2.3 2 4.1 1.8 6.6 0.7 7.5-3.3 15-6.5 22.6-9.7 0.1 0 0.3 0 0.9 0.1-2.3 4.1-4.5 8.1-6.8 12-1.6 2.8-3.3 5.6-4.9 8.4-1 1.6-0.8 2.6 0.9 3.9 6.5 4.9 12.7 10.1 19.1 15.3 0.5 0.4 0.8 0.8 1.6 1.7-8.5-1.2-16.4-2.1-24.3-3.4-6.5-1-6.5-1.1-9.6 4.4q-4.8 8.4-9.6 16.8c-0.3 0.4-0.5 0.9-0.8 1.4q-0.4-0.2-0.7-0.4c-1.8-7.6-3.6-15.3-5.2-22.9-0.4-1.8-1-2.6-2.9-2.8-7.2-0.8-14.4-1.8-21.6-2.7-2.2-0.3-4.3-0.6-6.5-1.6 7.9-3.4 15.8-6.8 23.8-10.1 1.9-0.8 3-1.7 2.4-4.1-1.7-7.3-3.3-14.7-5.1-23z"/>
					<path id="&lt;Path&gt;" class="s7" d="m721.6 899c1.8-1.3 3.4-2.9 5.9-1.6 0.4 0.1 1.4-0.7 1.9-1.3 2.1-2.4 4-4.8 5.9-7.3 0.2 0.1 0.5 0 0.6 0.2q1.4 1.4 2.7 2.9c1.6-1.7 4.6-3.6 4.4-5-0.5-4 1.4-6.8 3.5-9 4.8-5.1 10.4-9.6 15.6-14.3q0.1 13.5 0.2 27.1c-4.8 4.3-9.9 8.4-14.4 13-2.6 2.7-5.1 5.8-5.2 10.1-0.1 3.9-1.6 5.6-5.6 6.4-0.5-1.1-1.1-2.1-1.8-3.4-2.2 2.8-4.1 5.2-6 7.6-0.5 0.6-1.5 1.5-1.6 1.4-2.4-1.9-4.1 0.5-6 1.1q0-14-0.1-27.9z"/>
					<path id="&lt;Path&gt;" class="s3" d="m486.2 705q0.8-0.1 1.7-0.2c0.8 0.6 2.1 1.1 2.2 1.8 0.8 4.2 1.3 8.5 1.9 12.8-2.5 2-5 4-7.7 6.2 3.4 2.8 7.2 1.5 10.8 1.6 2.6 0 3.6 0.9 3.2 4.2-2.8 0.5-5.8 1.1-8.8 1.6-4.7 0.7-9.3 1.3-14 1.8-2.8 0.2-5.6 0.2-8.4 0.3q-5.8 0.3-11.6 0.6c-1.1-7.7-2-15.5-3.2-23.3-0.3-1.8-1.1-3.6-1.6-5.4 2.3-0.9 4.7-2.5 7-2.4 5.5 0.4 11 1.6 16.4 2.3 1.3 0.2 2.6-0.3 3.9-0.4q3-0.5 6-0.9 1.1-0.3 2.2-0.6z"/>
					<path id="&lt;Path&gt;" class="s3" d="m590.5 883.9c6.3-0.7 12.6-1.8 18.9-1.8 6.1 0 12.2 1.1 18.3 1.9 0.5 0 1 0.7 1.5 1.1 0.2 7 0.2 14 0.6 20.9 0.4 5.8 0.6 5.8-5.4 6.1-1-0.1-2-0.2-2.9-0.3-5.6-0.2-11.2-0.5-16.8-0.5-3.8 0-7.6 0.4-11.5 0.7-0.2-0.6-0.5-1.2-0.6-1.8q-1-13.2-2.1-26.3z"/>
					<path id="&lt;Path&gt;" class="s3" d="m1018.7 811.5c3.9-0.7 7.9-1.6 11.9-2 6.2-0.6 12.5-0.9 18.7-1.3 0.8 0.4 1.6 0.8 2.2 1.1-1.2 6.9-2.3 13.5-3.6 20-0.4 2.5-1.2 5-1.9 7.5-5.5 0.7-11 1.6-16.6 2.1-4.6 0.4-9.3 0.5-13.9 0.7-0.5-0.7-1.4-1.4-1.3-2 0.6-4 1.5-7.8 2.1-11.8 0.9-4.8 1.6-9.5 2.4-14.3z"/>
					<path id="&lt;Path&gt;" class="s3" d="m1129.6 788c4.7 0 9.4 0.2 14.1-0.1 3.3-0.2 6.6-0.5 8.1-4.5 0.5-1.1 3.3-1.6 5.1-1.7 1.5-0.1 3.1 0.7 4.7 1.1-0.1 1.1-0.1 2.1-0.4 3.1-1.2 4.9-2.4 9.8-3.8 14.6-1.1 3.9-2.5 7.8-3.8 11.6-1.6-0.2-3.2-0.9-4.7-0.6-2.1 0.4-4.9 1-5.8 2.5-1.4 2.3-3 3.2-5.4 3.2-5.1 0.2-10.2 0.1-15.3 0.1q3.6-14.6 7.2-29.3z"/>
					<path id="&lt;Path&gt;" class="s8" d="m961.3 840c4.1-1.3 8.2-2.5 12.2-4 6.2-2.3 12.3-4.8 18.4-7.2-0.4 2.5-0.7 5.1-1.1 7.6q-1.4 10.1-2.8 20.1c-5.6 2.6-11 5.5-16.7 7.8-4.3 1.7-8.9 2.7-13.3 4-0.2-1.9-0.6-3.9-0.4-5.7 0.4-3.1 1.2-6.1 1.7-9.2 0.7-4.4 1.3-8.9 2-13.4z"/>
					<path id="&lt;Path&gt;" class="s8" d="m561.9 949.2c-2.9 1.7-5.6 2.9-9.3 1.4-3.3-1.2-7.2-1.6-10.7-1.2-4.5 0.6-7.5-2.2-11-3.8-1.1-0.5-1.2-3.2-1.7-4.9 0-2.3 0.2-4.6 0-6.9-0.6-5.3-1.3-10.7-1.9-16 3.9 1.3 7.5 4.1 12.1 3.3 0.7-0.1 1.5 0.6 2.2 1q1.8 13.4 3.5 26.9c4.9 0.4 4.9 0.4 4.3-4.4q-1.3-11.7-2.6-23.4c3.5 1.8 7.1 2.5 10.9 1 0.3 0.4 0.7 0.9 0.8 1.3 0.7 7.4 1.3 14.8 2.1 22.2 0.1 1 0.9 2 1.3 2.9q0 0.3 0 0.6z"/>
					<path id="&lt;Path&gt;" class="s8" d="m386.3 819.3c-0.6-2.2-1.5-4.4-1.9-6.7-1.3-6.3-2.5-12.6-3.7-18.9-0.8-3.8-3.9-2.1-6-2.5q0-0.6 0-1.1c6.7 0.2 12.4-3.2 18.6-5 2.2-0.7 4.4-1.3 6.5-1.9q0.8 4.4 1.6 8.8c0 0 0-0.1 0-0.1q0 0.4 0.1 0.8c-0.9 0.6-1.7 1.1-2.2 1.5 2.1 1.9 3.7 3.3 5.3 4.8 0.2 1.5 0.2 3 0.5 4.5 0.9 4.9 1.9 9.7 2.8 14.6q-0.9 1.8-1.9 3.6 0.3 1.7 0.5 3.5c-2.3 0-2.3-1.7-2.6-3.3-0.4-2.5-0.9-5-1.5-7.8-5.6 1.8-10.9 3.5-16.1 5.2z"/>
					<path id="&lt;Path&gt;" class="s3" d="m961.3 840c-0.7 4.5-1.3 9-2 13.4-0.5 3.1-1.3 6.1-1.7 9.2-0.2 1.8 0.2 3.8 0.4 5.7-0.5 0.2-1 0.6-1.5 0.6-6.9 0.5-13.8 0.9-20.7 1.3 0.3-2.7 0.6-5.3 1-7.9q1.4-10.4 2.9-20.7 0.6 0 1.3-0.1 0.7-0.2 1.3-0.5 8.7-0.5 17.4-1 0.5 0 1 0 0.3 0 0.6 0z"/>
					<path id="&lt;Path&gt;" class="s8" d="m772 862.3q1.9 1 3.9 2c-0.3 8.6-0.7 17.3-0.8 25.9-0.1 0.7 1.3 2.1 1.8 2 1-0.1 2.6-1.1 2.6-1.8 0.5-8.7 0.7-17.4 1-26.2q8.1 2.6 16.2 5.2c-0.2 1.1-0.5 2.3-0.5 3.5-0.3 8.1-0.5 16.3-0.8 24.5-1.4-0.2-2.9-0.3-4.3-0.7-4.1-1.2-8.1-3.2-12.2-3.6-3.7-0.3-6.7-1.7-9.9-3.1 2.3-0.4 2.3-2.1 2.3-3.9 0.2-7.9 0.4-15.9 0.7-23.8z"/>
					<path id="&lt;Path&gt;" class="s3" d="m852.3 848.7c4.5 1.5 9.5-1.1 13.8 1.7-0.5 6.3-0.9 12.5-1.5 18.7-0.4 3.3-1 6.5-1.5 9.8q-3.5 0.1-7 0.2-0.3 2.6-0.6 5.1 0 0.7-0.1 1.4-0.2 1.9-0.5 3.9 0 0.3 0 0.6-0.3 2.1-0.7 4.2-1.4 0.8-2.8 1.5 1.3 1.7 2.5 3.4 0.2 1.1 0.3 2.3-0.1 0.2-0.1 0.5c-1 2.7-2.9 3.9-5.8 3.4-0.9-0.1-1.7 0.2-2.6 0.4-2.5-2-1-4.2-0.3-6.5q0.3 1.9 0.7 3.8 0.4 0 0.8 0c0.5-2.1 1.1-4.2 1.4-6.4 0.5-4.3 0.8-8.6 1.2-12.8 0-1-0.1-2-0.4-2.9-0.2-0.6-0.8-1-1.3-1.5-0.5 0.6-1.2 1.2-1.3 1.9-0.2 0.7 0.5 1.7 0.3 2.4-0.2 1-0.9 1.8-1.4 2.6-0.1-2.6-0.2-5.2-0.4-8.3 3.7-0.8 7.2-1.6 11.2-2.4 0.7-1.8-0.2-3.8-2.3-5.7-1.4-1.2-2.4-2.9-3.7-4.4 0.4-0.5 1.1-0.9 1.1-1.4 0.4-5.2 0.7-10.4 1-15.5z"/>
					<path id="&lt;Path&gt;" class="s8" d="m1046 836.8c0.7-2.5 1.5-5 1.9-7.5 1.3-6.5 2.4-13.1 3.6-20-0.6-0.3-1.4-0.7-2.2-1.1q10.4-3.6 20.8-7.2c0.4 0.7 1.3 1.5 1.2 2.1-0.8 4-1.7 8-2.6 11.9q-1.5 7.1-3.1 14.2-9.8 3.8-19.6 7.6z"/>
					<path id="&lt;Path&gt;" class="s7" d="m819 872.3c-0.1 0.4-0.1 0.9-0.2 1.3-1.8 4.7-1.6 5.7 2.4 8.9 3 2.4 5.7 4.8 5.8 9.1 0 1.1 1.2 2.2 1.8 3.3-0.6 1.1-1.8 2.3-1.9 3.4-0.5 7.9-0.7 15.9-1 23.8-0.2-0.2-0.7-0.4-0.6-0.6 0.2-5.1-3.1-7.9-6.4-10.9-1.6-1.5-3-4.2-3-6.3 0-6.6 0.7-13.2 1-19.8 0.1-1.5 0-3.1 0-5.1-2.2 1.8-4 3.3-5.7 4.7 0.2-6.3 0.3-12.7 0.6-19 0.2-2.9 0.8-5.7 1.2-8.6q3.4-3.5 6.7-7c0.1 1.2 0.3 2.3 0.3 3.5-0.3 6.4-0.7 12.9-1 19.3z"/>
					<path id="&lt;Path&gt;" class="s3" d="m912.2 836.2c2-0.4 3.9-1.2 5.8-1.1 3.7 0.1 7.4 0.7 11.1 1.1 0.5 0.1 1 0.4 1.5 0.6q-2 14.3-4 28.6-0.7-0.1-1.4-0.1-3-0.1-6-0.3-5-0.3-10.1-0.5c0.1-1.4 0.1-2.8 0.3-4.2q1.4-12.1 2.8-24.1z"/>
					<path id="&lt;Path&gt;" class="s3" d="m634.3 887.1q7.1 1.4 14.3 2.8c0.7 1.1 1.8 2.2 1.9 3.3 0.4 6.7 0.5 13.4 0.7 20.1 0.1 1.5 0.3 2.9 0.4 4.4q-1.9 0.1-3.9 0.3-6.4-1.4-12.9-2.8c-0.5-7.4-1.2-14.8-1.6-22.3-0.1-1.9-1.5-4.3 1.1-5.8z"/>
					<path id="&lt;Path&gt;" class="s3" d="m675.4 907.4q7.2 1 14.3 2 0.3 14 0.7 28c-5.2 2-9.7-0.6-14.4-1.9q-0.3-14.1-0.6-28.1z"/>
					<path id="&lt;Path&gt;" class="s3" d="m721.6 899q0.1 13.9 0.1 27.9-5.8 1.4-11.6 2.8c-2.2 0.2-2.8-1-2.8-3.1 0.1-8.2 0-16.4 0-24.5q7.2-1.6 14.3-3.1z"/>
					<path id="&lt;Path&gt;" class="s3" d="m1112 786c1.3-0.2 2.7-0.6 4-0.5 3 0.1 6 0.4 9 0.6-1.1 4.8-2.1 9.6-3.1 14.4-1.2 5-2.4 10.1-3.5 15.1q-6.8-0.2-13.5-0.4c0.9-3.8 1.7-7.7 2.6-11.5 1.5-5.9 3-11.8 4.5-17.7z"/>
					<path id="&lt;Path&gt;" class="s7" d="m590.5 883.9q1.1 13.1 2.1 26.3c0.1 0.6 0.4 1.2 0.6 1.8-0.9 1.3-2.7 2.6-2.6 3.8 0.8 5.7 0 11.3-0.7 17-0.4 3.6-0.6 7.3-3.6 10.2q-2.1-1.1-4.2-2.2-1-13.8-2-27.5c0.7 0.2 1.4 0.3 2 0.7 1.9 1.1 3.1 0.7 3.8-1.3 0.8-2.1 3.2-4.1 0.1-6.4-0.4-0.2 0.1-2 0.5-2.9 1.7-3.3 2.8-6.3 0.6-10-1.8-3-0.3-6.4 3.4-9.5z"/>
					<path id="&lt;Path&gt;" class="s7" d="m988 856.5q1.4-10 2.8-20.1c0.4-2.5 0.7-5.1 1.1-7.6 1.2-0.9 2.5-1.6 3.6-2.5 3.8-2.8 7.5-5.7 11.2-8.5-0.9 5.3-1.9 10.6-2.7 15.9-0.7 4-1.2 8.1-1.7 12.1-1.2 1.1-2.2 2.4-3.5 3.3-3.5 2.6-7.2 5-10.8 7.4z"/>
					<path id="&lt;Path&gt;" class="s3" d="m464.7 938.2c0.2 1.6-0.5 2.3-2.2 2.4-2.8 0.1-5.6 0.6-8.4 0.6-0.9 0-2.4-1.1-2.6-1.9-0.7-2.7-0.9-5.5-1.4-8.3q-0.3-1.7-0.6-3.4-0.3-0.3-0.5-0.7-1-6.9-2-13.7 2.6-0.3 5.2-0.6 1-0.1 2.1-0.1 1.8-0.1 3.5-0.2c1 1.1 2.5 2.1 2.7 3.4 1 4.9 1.4 9.8 2.2 14.7 0.5 2.6 1.3 5.2 2 7.8z"/>
					<path id="&lt;Path&gt;" class="s7" d="m1153.6 812.1c1.3-3.8 2.7-7.7 3.8-11.6 1.4-4.8 2.6-9.7 3.8-14.6 0.3-1 0.3-2 0.4-3.1 2 1.3 4 2.4 2.5 5.5-1.3 2.5 1.7 7.3 4.6 7.4 0.7 0 1.5-0.9 2.1-1.5 1.6-1.6 3.1-3.4 4.7-4.9 1.3-1.3 2.8-2.3 4.2-3.4q-0.9 2.7-1.8 5.4-0.8-0.6-1.5-1.2c-3.3 2.8-0.9 5 0.9 7.3-1.7 1.3-3.3 2.6-5.1 4-1.5-1.7-2.9-3.2-4.3-4.9-1.7 2-2 3.8-0.3 5.8 0.4 0.6 0.6 1.6 0.5 2.3-0.1 2 0.5 2.9 2.6 3.1 0.9 0.2 1.7 1.3 2.6 1.9q-0.6 2.2-1.3 4.4-0.3 0-0.6 0.1c-1.2-1.6-2.5-3.2-3.7-4.9-1.6-2.5-3.1-2.7-4.8 0 2 2.6 4 5.1 6.1 7.9-1.1 0.9-2 1.7-3 2.2-0.9 0.4-2.5 1-2.9 0.6-3-2.9-5.1-6.6-9.5-7.8z"/>
					<path id="&lt;Path&gt;" class="s3" d="m444.8 897.4c0.7-0.4 1.5-1.1 2.2-1 9.4 1.1 17.9-2.5 26.8-4.2 3.4-0.7 6.9-1.2 10.5-1.5-2.6 1.7-3.6 5.6-7.7 5.3-0.7 0-1.7 2.5-2.3 3.9-0.3 1 0 2.1 0 3.5-9.2 0.8-18.3 1.4-26 6.9-0.2-1.5-0.3-3-0.8-4.4-0.8-2.8 0.2-6.3-2.7-8.5z"/>
					<path id="&lt;Path&gt;" class="s7" d="m521.8 929.6c-3.7-1.3-6.1 0.4-6.4 4.3q-4.7-0.9-9.5-1.7c0.7-0.1 1.5-0.3 2.1-0.2 2.7 0.6 4-0.2 3.6-3.1-0.5-3.1-0.8-6.2-1.3-9.3-0.9-5.3-1.8-10.6-2.7-16 1.1 0.9 2.3 1.7 2.9 2.2 1.6-1.8 2.9-3.9 4.8-5.2 0.7-0.5 2.7 1 4.1 1.6q0.6 2.9 1.2 5.8 0.5 0.5 0.9 1c-0.2 2.3-0.5 4.6-0.4 6.8 0.1 4.6 0.4 9.2 0.7 13.8z"/>
					<path id="&lt;Path&gt;" class="s7" d="m675.4 907.4q0.3 14 0.6 28.1c-4.5-2.1-8.8-4.4-11.8-8.7q0.1-2.7 0.1-5.5 0-10.2-0.1-20.5 5.6 3.3 11.2 6.6z"/>
					<path id="&lt;Path&gt;" class="s7" d="m411.6 732.4c2.7-1.7 5.5-3.3 8.1-5.1 0.9-0.6 1.2-1.9 1.7-2.9 0.1-0.1 0-0.3 0.1-0.3q3.9-5.3 7.8-10.6c0.7 3 1.2 6 2.1 8.9 0.4 1.4 1.2 2.7 1.9 4.1-1 0.5-2 0.9-3.6 1.6 0.8 1.2 1.6 2.2 2.3 3.2 0.3 1 0.5 2 0.9 3.5-3.7-1-3.7 1.2-3.5 3.4 0.1 1.8 0.4 3.6 0.6 5.4-1.8-0.9-3.6-2-5.5-2.5-3.1-0.7-6.3-1-9.5-1.4-0.3-1.7-0.4-3.4-1-5-0.3-0.9-1.5-1.5-2.4-2.3z"/>
					<path id="&lt;Path&gt;" class="s8" d="m495.2 927q0 0.6 0 1.3-0.3 0.6-0.6 1.2c-1.5-0.5-2.9-1-4.8-1.5 0.1 1.8 0.5 3.3 0.2 4.7-0.1 0.8-1.2 1.4-1.9 2.1-0.7-1.1-1.6-2.1-1.9-3.3-0.5-1.7-0.6-3.6-0.9-5.4q-1.6-8.7-3.1-17.5c0.6-0.6 1.1-1.1 1.8-1.6 1.3-1.1 2.1-2.1 1-3.9-0.5-0.7-0.3-2.3 0.3-3.1 0.3-0.4 1.9 0 2.9 0.1 1.1 0.2 2.1 0.5 3.2 0.8q2 12.6 3.9 25.2 0 0.4-0.1 0.9z"/>
					<path id="&lt;Path&gt;" class="s3" d="m873.1 852.6q5.9-0.1 11.8-0.2-1 10.5-2 21.1c-4.7 0.4-5.4 1.7-3.9 7.4-0.9-0.1-1.7-0.2-2.5-0.3q-0.4-0.3-0.8-0.7c-0.3-0.2-0.7-0.7-0.9-0.6-0.6 0.4-1.1 0.9-1.7 1.5q-0.8 0-1.6 0.1c-0.4-0.7-1.4-1.4-1.3-2 0.9-8.8 1.9-17.6 2.9-26.3z"/>
					<path id="&lt;Path&gt;" class="s8" d="m926.6 865.4q2-14.3 4-28.6 4.5 2.4 9.1 4.8-1.5 10.3-2.9 20.7c-0.4 2.6-0.7 5.2-1 7.9q-4.6-2.4-9.2-4.8z"/>
					<path id="&lt;Path&gt;" class="s3" d="m433.3 726.5c-0.7-1.4-1.5-2.7-1.9-4.1-0.9-2.9-1.4-5.9-2.1-8.9 1.3-1.8 7.7-4.1 9.7-3.6 2 0.6 4 1 6 1.4q1.3 10 2.7 19.9-1.3 0.3-2.6 0.7-1.7 0.1-3.4 0.3-1.2 0-2.4 0-0.7-2.5-1.4-5-0.3 0-0.7-0.1-0.3-0.2-0.7-0.4-1.6-0.1-3.2-0.2z"/>
					<path id="&lt;Path&gt;" class="s3" d="m772 862.3c-0.3 7.9-0.5 15.9-0.7 23.8 0 1.8 0 3.5-2.3 3.9q-3.4 0.4-6.7 0.7-0.1-13.6-0.2-27.1c2.8-3.3 5.1-3.6 9.9-1.3z"/>
					<path id="&lt;Path&gt;" class="s3" d="m475 934.8c-1.6 0.4-3.2 0.8-4.9 1.1-1.2 0.2-2.4 0.2-3.5 0.3-0.7-1.4-1.6-2.8-1.9-4.3-1-6.1-1.8-12.2-2.8-18.2-0.1-0.9-0.8-1.6-1.3-2.4-0.3-2.8 0.8-4 3.7-3.9 2 0 4.1-0.2 6.2-0.3q2.2 13.9 4.5 27.7z"/>
					<path id="&lt;Path&gt;" class="s7" d="m563 918.3q4.5-2.2 9-4.4c0.7-0.3 1.4-0.5 2.1-0.8q1.4 13.7 2.8 27.5-4.3 2.9-8.5 5.8c-0.7-8.1-1.5-16.1-1.9-24.2-0.2-2.6-0.8-4-3.5-3.9z"/>
					<path id="&lt;Path&gt;" class="s7" d="m912.2 836.2q-1.4 12-2.8 24.1c-0.2 1.4-0.2 2.8-0.3 4.2-1-0.1-2.2 0.1-2.9-0.4-1.1-0.9-1.8-2.3-2.8-3.5-2.4-2.9-3.6-2.9-6 0.1 0.4-4.3 0.7-8.6 1.3-12.8 0.3-2-0.4-2.6-2.1-2.5q5.9-3.5 11.8-6.9 1.9-1.2 3.8-2.3z"/>
					<path id="&lt;Path&gt;" class="s8" d="m845.4 886.4c0.5-0.8 1.2-1.6 1.4-2.6 0.2-0.7-0.5-1.7-0.3-2.4 0.1-0.7 0.8-1.3 1.3-1.9 0.5 0.5 1.1 0.9 1.3 1.5 0.3 0.9 0.4 1.9 0.4 2.9-0.4 4.2-0.7 8.5-1.2 12.8-0.3 2.2-0.9 4.3-1.4 6.4q-0.4 0-0.8 0-0.4-1.9-0.7-3.8c-0.7 2.3-2.2 4.5 0.3 6.5-1.7 0.6-2.5 1.8-2.6 3.8-0.2 4.5-0.7 8.9-6.4 9.7 0.2-1.8 0.4-3.6 0.5-5.4 0.5-4.8 1-9.6 1.2-14.5 0.1-0.9-1.1-1.8-1.7-2.8 2.2-0.2 1.9-1.9 1.7-3.4-0.2-2.2 0.5-3.2 2.9-3.7 1.5-0.3 2.8-2 4.1-3.1z"/>
					<path id="&lt;Path&gt;" class="s8" d="m690.4 937.4q-0.4-14-0.7-28 3.9-2 7.8-4c0.3 6.5 0.6 13 0.7 19.6 0 2.6-0.3 5.3-0.5 8q-3.7 2.2-7.3 4.4z"/>
					<path id="&lt;Path&gt;" class="s7" d="m482.2 908.6q1.5 8.8 3.1 17.5c0.3 1.8 0.4 3.7 0.9 5.4 0.3 1.2 1.2 2.2 1.9 3.3-2.1 2.3-4.1 4.7-6.3 7-1.3 1.3-2.5 1.3-2.8-1-0.2-2.2-0.5-4.4-0.7-6.6-0.1-1.4-0.2-2.8-0.4-4.2q-1.1-7.7-2.2-15.5 3.2-3 6.5-5.9z"/>
					<path id="&lt;Path&gt;" class="s8" d="m1087.2 801.8q3.5-1.5 7-2.9c0.1 1 0.6 2.2 0.4 3.2-1.1 4.6-2.4 9-3.5 13.6-0.5 2.1-0.8 4.3-1.2 6.5-0.6 1.7-0.7 4-2 5-2 1.7-4.8 2.6-7.3 3.8 0.3-2.2 0.4-4.5 0.9-6.7 1.8-7.5 3.8-15 5.7-22.5z"/>
					<path id="&lt;Path&gt;" class="s7" d="m447.7 731.2q-1.4-9.9-2.7-19.9 2.8-2.1 5.7-4.3c0.5 1.8 1.3 3.6 1.6 5.4 1.2 7.8 2.1 15.6 3.2 23.3q-3 1.2-5.9 2.4-0.3-0.4-0.5-0.8c1.1-1.8 2.3-3.6 3.9-6.1-2.3 0-3.8 0-5.3 0z"/>
					<path id="&lt;Path&gt;" class="s3" d="m1100.9 788q2.9 0.1 5.7 0.2c-0.1 2.1-0.1 4.4-0.5 6.5-1.6 7.6-3.4 15.2-5.2 22.9q-3-0.3-6-0.6 1.6-7.9 3.2-15.8 1.4-6.6 2.8-13.2z"/>
					<path id="&lt;Path&gt;" class="s3" d="m417.6 874.2q-1.9 0.3-3.8 0.7c-0.9-0.6-2.4-1.1-2.6-1.9-1-4.6-1.8-9.3-2.8-13.9-0.8-3.8-1.8-7.5-2.7-11.2 0.8-3.3 3.5-2.3 5.5-2.3 0.6 0 1.2 2 1.8 3.1 0.8 3.7 1.6 7.4 2.3 11.1 0.8 4.8 1.5 9.6 2.3 14.4z"/>
					<path id="&lt;Path&gt;" class="s7" d="m1087.2 801.8c-1.9 7.5-3.9 15-5.7 22.5-0.5 2.2-0.6 4.5-0.9 6.7-0.4-0.4-1-0.8-1.3-1.3-1.4-1.9-2.6-3.8-3.9-5.7 2.5-9.8 5.4-19.5 6-29.7q2 2.6 4 5.1c0.6 0.8 1.2 1.6 1.8 2.4z"/>
					<path id="&lt;Path&gt;" class="s3" d="m507.6 903.6c0.9 5.4 1.8 10.7 2.7 16 0.5 3.1 0.8 6.2 1.3 9.3 0.4 2.9-0.9 3.7-3.6 3.1-0.6-0.1-1.4 0.1-2.1 0.2 0 0-0.1-0.2-0.1-0.2q-1.5-10.8-3-21.7-0.4-3.3-0.9-6.6 0.9-0.1 1.8-0.1 1.4 0 2.7 0 0.6 0 1.2 0z"/>
					<path id="&lt;Path&gt;" class="s7" d="m882.9 873.5q1-10.6 2-21.1 3.9-2.9 7.8-5.8c-0.2 2.5-0.4 5-0.5 7.4-0.2 3.5-0.4 6.9-0.5 10.3q0 0.3-0.2 0.5-0.4 1.4-0.8 2.8c-2.4-0.9-4.4 0.1-5.2 2.1-0.5 1.3 0.1 3.5 1 4.8 1.1 1.6 0.9 2.4-0.5 3.4q-1.2 1-2.4 2.1-1.7-1.3-3.5-2.7c0.9-0.5 2-0.9 2.6-1.6 0.4-0.5 0.2-1.5 0.2-2.2z"/>
					<path id="&lt;Path&gt;" class="s3" d="m836.7 896.6c0.6 1 1.8 1.9 1.7 2.8-0.2 4.9-0.7 9.7-1.2 14.5-0.1 1.8-0.3 3.6-0.5 5.4 0 1.8 0 3.7 0 5.8-1.9-0.1-3.3-0.1-4.7-0.2-0.4-1.3-1.3-2.5-1.2-3.7 0.5-8.3 1.2-16.6 1.9-24.9q2 0.2 4 0.3z"/>
					<path id="&lt;Path&gt;" class="s3" d="m1002.3 845.8c0.5-4 1-8.1 1.7-12.1 0.8-5.3 1.8-10.6 2.7-15.9q3-1.2 6-2.4c-0.1 1.4-0.1 2.8-0.4 4.2q-1.6 8.4-3.4 16.7c-0.6 2.8-1.3 5.6-2 8.3q-2.3 0.6-4.6 1.2z"/>
					<path id="&lt;Path&gt;" class="s8" d="m647.7 918q2-0.2 3.9-0.3c-0.1-1.5-0.3-2.9-0.4-4.4-0.2-6.7-0.3-13.4-0.7-20.1-0.1-1.1-1.2-2.2-1.9-3.3 5 0.6 7.5 2.5 7.8 5.8-0.2 0.4-0.6 0.9-0.5 1.4 0.1 4.1 0.3 8.1 0.5 12.2q0.3 5.9 0.6 11.8-4.6-1.6-9.3-3.1z"/>
					<path id="&lt;Path&gt;" class="s3" d="m664.2 900.8q0.1 10.3 0.1 20.5 0 2.8-0.1 5.5-2.5-0.9-5-1.8-0.4-13.7-0.8-27.4c2.5 0.2 5.5-0.7 5.8 3.2z"/>
					<path id="&lt;Path&gt;" class="s3" d="m576.9 940.6q-1.4-13.8-2.8-27.5 3 0.1 6 0.2 1 13.7 2 27.5-2.6-0.1-5.2-0.2z"/>
					<path id="&lt;Path&gt;" class="s7" d="m1006.9 844.6c0.7-2.7 1.4-5.5 2-8.3q1.8-8.3 3.4-16.7c0.3-1.4 0.3-2.8 0.4-4.2q3-2 6-3.9c-0.8 4.8-1.5 9.5-2.4 14.3-0.6 4-1.5 7.8-2.1 11.8-0.1 0.6 0.8 1.3 1.3 2q-4.3 2.5-8.6 5z"/>
					<path id="&lt;Path&gt;" class="s8" d="m832.7 896.3c-0.7 8.3-1.4 16.6-1.9 24.9-0.1 1.2 0.8 2.4 1.2 3.7q-3-1.4-6.1-2.8c0.3-7.9 0.5-15.9 1-23.8 0.1-1.1 1.3-2.3 1.9-3.4q2 0.7 3.9 1.4z"/>
					<path id="&lt;Path&gt;" class="s3" d="m697.7 933c0.2-2.7 0.5-5.4 0.5-8-0.1-6.6-0.4-13.1-0.7-19.6q1.4-0.3 2.7-0.6 1 0 2-0.1 0.6 0.1 1.2 0.1 0 14 0.1 28-2.9 0.1-5.8 0.2z"/>
					<path id="&lt;Path&gt;" class="s7" d="m444.8 897.4c2.9 2.2 1.9 5.7 2.7 8.5 0.5 1.4 0.6 2.9 0.8 4.4q-0.6 1.4-1.3 2.9 1 6.8 2 13.7c-0.6 0.4-1.3 0.6-1.8 1.1-1.7 1.5-2.1 0.6-2.2-1-1.3-6.7-2.4-13.3-3.7-19.9-1.1-5.5-0.3-7.8 3.5-9.7z"/>
					<path id="&lt;Path&gt;" class="s7" d="m1065.6 829.2q1.6-7.1 3.1-14.2c0.9-3.9 1.8-7.9 2.6-11.9 0.1-0.6-0.8-1.4-1.2-2.1q3.6-2.4 7.2-4.7c-0.1 1.3-0.2 2.6-0.4 3.8-1.6 7.7-3.2 15.3-4.8 22.9q-3.2 3.1-6.5 6.2z"/>
					<path id="&lt;Path&gt;" class="s8" d="m1118.4 815.6c1.1-5 2.3-10.1 3.5-15.1 1-4.8 2-9.6 3.1-14.4q2.3 1 4.6 1.9-3.6 14.7-7.2 29.3-2-0.9-4-1.7z"/>
					<path id="&lt;Path&gt;" class="s3" d="m813 856.5c-0.4 2.9-1 5.7-1.2 8.6-0.3 6.3-0.4 12.7-0.6 19q-2.3 1-4.5 1.9c-0.1-0.8-0.4-1.5-0.4-2.3 0.2-6.3 0.5-12.6 0.8-18.9 0-0.8 0.1-1.7 0.1-2.6 0.1-5.4 0.3-5.5 5.8-5.7z"/>
					<path id="&lt;Path&gt;" class="s8" d="m475.7 914.5q1.1 7.8 2.2 15.5c0.2 1.4 0.3 2.8 0.4 4.2q-1.6 0.3-3.3 0.6-2.3-13.8-4.5-27.7 3.7-1.7 7.5-3.5 0.3 0.4 0.6 0.8c-1.8 3.2-5.1 5.9-2.9 10.1z"/>
					<path id="&lt;Path&gt;" class="s8" d="m873.1 852.6c-1 8.7-2 17.5-2.9 26.3-0.1 0.6 0.9 1.3 1.3 2q-0.1 0.3-0.3 0.6c-1.4 0.4-2.7 1-4.1 1.2-0.7 0.1-1.4-0.4-2.1-0.6 0.3-1.1 0.8-2.2 0.9-3.3 0.2-1.8 0.1-3.6 0.2-5.5 0.6-6.2 1.2-12.4 1.8-18.7q2.6-1 5.2-2z"/>
					<path id="&lt;Path&gt;" class="s3" d="m546.8 921.2q1.3 11.7 2.6 23.4c0.6 4.8 0.6 4.8-4.3 4.4q-1.7-13.5-3.5-26.9 0.5 0 1 0.1 1.1-0.5 2.3-1 0.9 0 1.9 0z"/>
					<path id="&lt;Path&gt;" class="s7" d="m634.3 887.1c-2.6 1.5-1.2 3.9-1.1 5.8 0.4 7.5 1.1 14.9 1.7 22.3q-5.3-1.6-10.5-3.1c6-0.3 5.8-0.3 5.4-6.1-0.4-6.9-0.4-13.9-0.6-20.9q2.5 1 5.1 2z"/>
					<path id="&lt;Path&gt;" class="s3" d="m800.7 866.3q1 0.1 1.9 0.1c1.7 1.2 2.1 2.7 2 4.7-0.5 8-0.8 16-1.3 24q-2.2 0-4.4 0c0.1-1.2 0.4-2.3 0.4-3.5q0.7-12.6 1.4-25.3z"/>
					<path id="&lt;Path&gt;" class="s3" d="m500.6 928.6q-0.8-0.3-1.5-0.6c-0.9-6-1.9-12.1-2.5-18.1-0.4-3.3 0-6.7 0-10.1 1.5-0.1 3.3-1.1 3.3 1.6q1.7 12.9 3.4 25.8-1.4 0.7-2.7 1.4z"/>
					<path id="&lt;Path&gt;" class="s8" d="m1072.1 823c1.6-7.6 3.2-15.2 4.8-22.9 0.2-1.2 0.3-2.5 0.4-3.8 0.3-2.9 1.8-3.1 4.1-2-0.6 10.2-3.5 19.9-6 29.7q-1.7-0.5-3.3-1z"/>
					<path id="&lt;Path&gt;" class="s3" d="m780.5 864.2c-0.3 8.8-0.5 17.5-1 26.2 0 0.7-1.6 1.7-2.6 1.8-0.5 0.1-1.9-1.3-1.8-2 0.1-8.6 0.5-17.3 0.8-25.9q2.3 0 4.6-0.1z"/>
					<path id="&lt;Path&gt;" class="s7" d="m561.9 948.6c-0.4-0.9-1.2-1.9-1.3-2.9-0.8-7.4-1.4-14.8-2.1-22.2-0.1-0.4-0.5-0.9-0.8-1.3q2.3-1.6 4.6-3.2 1.1 13.8 2.2 27.7-1 0.2-1.9 0.5-0.4 0.7-0.7 1.4z"/>
					<path id="&lt;Path&gt;" class="s3" d="m819 872.3c0.3-6.4 0.7-12.9 1-19.3 0-1.2-0.2-2.3-0.3-3.5q3.7-2.3 7.1 0.4c-0.6 1.4-1.7 2.6-1.9 4.1-0.6 4.7-0.9 9.5-1.4 14.2q-2.3 2.1-4.5 4.1z"/>
					<path id="&lt;Path&gt;" class="s7" d="m703.5 932.8q-0.1-14-0.1-28 1.9-1.4 3.9-2.7c0 8.1 0.1 16.3 0 24.5 0 2.1 0.6 3.3 2.8 3.1q-3.3 1.5-6.6 3.1z"/>
					<path id="&lt;Path&gt;" class="s7" d="m1100.9 817.6c1.8-7.7 3.6-15.3 5.2-22.9 0.4-2.1 0.4-4.4 0.5-6.5q2.7-1.1 5.4-2.2c-1.5 5.9-3 11.8-4.5 17.7-0.9 3.8-1.7 7.7-2.6 11.5q-2 1.2-4 2.4z"/>
					<path id="&lt;Path&gt;" class="s3" d="m521.8 929.6c-0.3-4.6-0.6-9.2-0.7-13.8-0.1-2.2 0.2-4.5 0.4-6.8q0.5 0 0.9 0 0.6 0.1 1.1 0.1 1 4 1.9 8c0.1 1.9 0.1 3.8 0.4 5.7 0.4 3.9 1.1 7.7 1.3 11.6 0.1 0.8-1.2 1.7-1.9 2.6-0.6-1-1.3-2-1.8-3.1-0.6-1.4-1.1-2.9-1.6-4.3z"/>
					<path id="&lt;Path&gt;" class="s7" d="m800.7 866.3q-0.7 12.7-1.4 25.3c0 1.2-0.3 2.3-0.4 3.5q-1.8 1.2-3.5 2.3c0.3-8.2 0.5-16.4 0.8-24.5 0-1.2 0.3-2.4 0.5-3.5q2-1.5 4-3.1z"/>
					<path id="&lt;Path&gt;" class="s3" d="m564.5 946.7q-1.1-13.9-2.2-27.7 0.3-0.3 0.7-0.7c2.7-0.1 3.3 1.3 3.5 3.9 0.4 8.1 1.2 16.1 1.9 24.2q-1.9 0.1-3.9 0.3z"/>
					<path id="&lt;Path&gt;" class="s7" d="m1100.9 788q-1.4 6.6-2.8 13.2-1.6 7.9-3.2 15.8c-3 0.4-3.7 3-5 5.2 0.4-2.2 0.7-4.4 1.2-6.5 1.1-4.6 2.4-9 3.5-13.6 0.2-1-0.3-2.2-0.4-3.2 0.9-2 1.8-4 2.9-5.8 1.1-1.8 2.5-3.4 3.8-5.1z"/>
					<path id="&lt;Path&gt;" class="s3" d="m891.7 864.3c0.1-3.4 0.3-6.8 0.5-10.3 0.1-2.4 0.3-4.9 0.5-7.4q1.9-0.6 3.9-1.2c1.7-0.1 2.4 0.5 2.1 2.5-0.6 4.2-0.9 8.5-1.3 12.8q-2.9 1.8-5.7 3.6z"/>
					<path id="&lt;Path&gt;" class="s8" d="m395.6 746.8q-0.5-0.6-1.1-1.2 0.9-2 1.7-3.9c2.7-0.1 5.5 0.5 7.4-2.2 0.2-0.2-0.2-0.8-0.2-1.3q3.8-2.6 7.6-5.2 0.4 3.4 0.8 6.8c-1.4 1-2.7 2.9-4.2 3-4.4 0.2-8.4 1.5-12 4z"/>
					<path id="&lt;Path&gt;" class="s8" d="m823.5 868.2c0.5-4.7 0.8-9.5 1.4-14.2 0.2-1.5 1.3-2.7 1.9-4.1 0.6 0.2 1.4 0.2 1.8 0.5 1.7 1.3 2.8 10.2 1.4 11.7-2 2.2-4.3 4.1-6.5 6.1z"/>
					<path id="&lt;Path&gt;" class="s7" d="m405.7 847.9c0.9 3.7 1.9 7.4 2.7 11.2 1 4.6 1.8 9.3 2.8 13.9 0.2 0.8 1.7 1.3 2.6 1.9q-2 1.5-4 3.1c-1.8-8.6-3.5-17.2-5.4-25.8-0.3-1.2-1.7-2.2-2.6-3.3q2-0.5 3.9-1z"/>
					<path id="&lt;Path&gt;" class="s3" d="m430 743.6c-0.2-1.8-0.5-3.6-0.6-5.4-0.2-2.2-0.2-4.4 3.5-3.4-0.4-1.5-0.6-2.5-0.9-3.5q1-0.3 2-0.7 0.3-0.2 0.6-0.4 0.7-0.1 1.3-0.2 0.7 5.9 1.4 11.8-0.3 0-0.6 0c-1.1-0.2-2.1-0.5-3.3-0.7q-0.1 0.8-0.2 1.8-1.6 0.3-3.2 0.7z"/>
					<path id="&lt;Path&gt;" class="s7" d="m803.3 895.1c0.5-8 0.8-16 1.3-24 0.1-2-0.3-3.5-2-4.7q2.2-0.8 4.5-1.6c-0.3 6.3-0.6 12.6-0.8 18.9 0 0.8 0.3 1.5 0.4 2.3q-1.7 4.6-3.4 9.1z"/>
					<path id="&lt;Path&gt;" class="s8" d="m1134.1 699.9c-2.2 0.1-3.6-0.7-4.4-3-0.4-1.2-1.6-2.1-2.4-3.2-0.7-0.9-1.2-1.9-2.1-3.3 4.1 0.1 7.3-3.4 10.9-0.3q-1 4.9-2 9.8z"/>
					<path id="&lt;Path&gt;" class="s8" d="m497.5 706.9q3.9 1.9 7.7 3.8 0.3 1.9 0.6 3.8c-1.5 2.6-4.3 2.9-6.8 3.6q-0.6-0.1-1.2-0.1c-0.3-2.9-0.7-5.7-0.9-8.5-0.1-0.9 0.4-1.7 0.6-2.6z"/>
					<path id="&lt;Path&gt;" class="s7" d="m417.6 874.2c-0.8-4.8-1.5-9.6-2.3-14.4-0.7-3.7-1.5-7.4-2.3-11.1q1.7 1.7 3.4 3.4c0.8 4.6 1.5 9.2 2.4 13.9 0.8 4.2 1.7 8.3 2.6 12.5 0.1 0.7-0.2 1.4-0.3 2.2q-1.8-3.3-3.5-6.5z"/>
					<path id="&lt;Path&gt;" class="s3" d="m505.8 714.5q-0.3-1.9-0.6-3.8 1.2 0.1 2.3 0.2 0.8 0 1.5 0c4.9-0.4 9.9-0.9 14.8-1.3 1.3-0.1 2.7 0 4 0q0.2 0.7 0.3 1.3c-3.8 0.9-7.5 2-11.2 2.6-3.7 0.6-7.4 0.7-11.1 1z"/>
					<path id="&lt;Path&gt;" class="s3" d="m401.4 792q-0.8-4.4-1.6-8.8 0.3-0.1 0.5-0.1 1.5-0.5 3-0.9 3.3-0.4 6.7-0.8c-0.4 4.7-5.2 10.5-8.6 10.6z"/>
					<path id="&lt;Path&gt;" class="s7" d="m867.9 854.6c-0.6 6.3-1.2 12.5-1.8 18.7-0.1 1.9 0 3.7-0.2 5.5-0.1 1.1-0.6 2.2-0.9 3.3q-1-1.6-1.9-3.2c0.5-3.3 1.1-6.5 1.5-9.8 0.6-6.2 1-12.4 1.5-18.7q0.9 2.1 1.8 4.2z"/>
					<path id="&lt;Path&gt;" class="s7" d="m407.9 818.1c-0.9-4.9-1.9-9.7-2.8-14.6-0.3-1.5-0.3-3-0.5-4.5 1.3 0.9 2.7 1.9 4.1 2.8 1.6 1 1.8 2.1 0.7 3.7-2 3-1.8 3.8 1.7 6q0.4 2.8 0.8 5.6-2 0.5-4 1z"/>
					<path id="&lt;Path&gt;" class="s7" d="m658.4 897.6q0.4 13.7 0.8 27.4-1.1-1.9-2.2-3.9-0.3-5.9-0.6-11.8c-0.2-4.1-0.4-8.1-0.5-12.2-0.1-0.5 0.3-1 0.5-1.4q1 0.9 2 1.9z"/>
					<path id="&lt;Path&gt;" class="s7" d="m406.5 825.2q-0.2-1.8-0.5-3.5 5.6 6 11.2 11.9-0.2 0.6-0.4 1.2-3.9 0-7.8 0c-0.4-2.2-0.7-4.3-1.3-6.5-0.2-1-0.8-2.1-1.2-3.1z"/>
					<path id="&lt;Path&gt;" class="s3" d="m497.5 706.9c-0.2 0.9-0.7 1.7-0.6 2.6 0.2 2.8 0.6 5.6 0.9 8.5q-0.3 0.1-0.7 0.3-0.5 0-1 0.1c-0.9-0.7-2.4-1.1-2.7-2-0.7-2.6-0.9-5.3-1.3-7.9-0.2-1.6-0.1-2.9 2-2.9q1.7 0.7 3.4 1.3z"/>
					<path id="&lt;Path&gt;" class="s7" d="m500.6 928.6q1.3-0.7 2.7-1.4-1.7-12.9-3.4-25.8 1 1.1 2 2.3 0.5 3.3 0.9 6.6 1.5 10.9 3 21.7c-0.4-0.3-0.9-0.5-1-0.8-0.1-3-1.8-3.4-4.2-2.6z"/>
					<path id="&lt;Path&gt;" class="s7" d="m852.3 848.7c-0.3 5.1-0.6 10.3-1 15.5 0 0.5-0.7 0.9-1.1 1.4-0.6-0.9-1.8-1.9-1.8-2.8 0-3.6 0.1-7.1 0.7-10.6 0.2-1.3 2.1-2.4 3.2-3.5z"/>
					<path id="&lt;Path&gt;" class="s3" d="m495.3 926.1q-1.9-12.6-3.9-25.2 0-0.7 0-1.4-0.2-0.6-0.5-1.3c2.5-1 2.6-0.9 3.1 2 0.1 2.3 0.1 4.5 0.4 6.8 0.8 5.6 1.8 11.3 2.5 16.9 0.1 0.7-0.6 1.4-1 2.1 0 0-0.2 0.2-0.2 0.2q-0.2 0-0.4-0.1z"/>
					<path id="&lt;Path&gt;" class="s7" d="m460.6 911.3c0.5 0.8 1.2 1.5 1.3 2.4 1 6 1.8 12.1 2.8 18.2 0.3 1.5 1.2 2.9 1.9 4.3q-1 1-1.9 2c-0.7-2.6-1.5-5.2-2-7.8-0.8-4.9-1.2-9.8-2.2-14.7-0.2-1.3-1.7-2.3-2.7-3.4q1.4-0.5 2.8-1z"/>
					<path id="&lt;Path&gt;" class="s7" d="m495.9 926c0.4-0.7 1.1-1.4 1-2.1-0.7-5.6-1.7-11.3-2.5-16.9-0.3-2.3-0.3-4.5-0.4-6.8q1.3-0.2 2.6-0.4c0 3.4-0.4 6.8 0 10.1 0.6 6 1.6 12.1 2.5 18.1q-1.6-1-3.2-2z"/>
					<path id="&lt;Path&gt;" class="s7" d="m494.1 705.6c-2.1 0-2.2 1.3-2 2.9 0.4 2.6 0.6 5.3 1.3 7.9 0.3 0.9 1.8 1.3 2.7 2q-2.1 0.5-4.1 1c-0.6-4.3-1.1-8.6-1.9-12.8-0.1-0.7-1.4-1.2-2.2-1.8 3.2-1.8 4.1-4.9 4.9-8.3 0.2-1.2 1.4-2.2 2.1-3.3q0.4 0.1 0.8 0.2c-1.1 3.1-2.5 6.2-3.4 9.4-0.2 0.7 1.2 1.9 1.8 2.8z"/>
					<path id="&lt;Path&gt;" class="s7" d="m437.3 741.8q-0.7-5.9-1.4-11.8 1-1.4 2-2.8 0.7 2.5 1.4 5c-2.9 2.4 0.4 3.3 1.3 4.5 0.7 1 2.2 1.5 3.3 2.2q0 0.6 0 1.1-3.3 0.9-6.6 1.8z"/>
					<path id="&lt;Path&gt;" class="s3" d="m445.3 883.4c-1.8-0.2-2.4-1.1-2.1-2.8-1.8-0.9-3.1-0.5-4 1.3-1 2.1-1.9 1.4-2.9 0-0.6-0.6-1.6-1-1.8-1.7-0.6-2.5-1.1-5.1-1.1-7.7-0.1-1.8-0.6-2.2-2.2-2.4-2.5-0.2-4.9-0.6-7.4-1 1.1-3.5 3.8-4.5 6.5-4.7 7-0.3 0.5-5.6 2.9-7.6 0.4-0.3-0.3-2-0.7-2.9-0.2-0.4-0.8-0.7-1.3-1-3.9-1.9-7.8-3.1-12.2-1.9q-0.2 0.2-0.5 0.3-0.4 0.2-0.8 0.3-0.7 0.2-1.3 0.4c0 0 0 0.1 0 0.1 0.8 4.6 1.5 9.2 2.4 13.9 0.8 4.2 1.7 8.3 2.6 12.5 0.1 0.7-0.2 1.4-0.3 2.2 5.3-1.3 5.1 2.8 5.8 5.9q0.4 1.5 0.5 2.9c0.7 8.2 1.6 9.1 9.9 10q0.6-0.6 1.2-1.3c-0.7-3.1 1.3-4.8 3.2-6.7 2 2.5 4.2 2.5 7.5 0.2 0.8-0.5 2.1-0.8 2.2-1.4 0.3-1.9 0.3-3.9 0.4-6.1-2.1-0.3-4.3-0.6-6.5-0.8z"/>
					<path id="&lt;Path&gt;" class="s7" d="m525.2 937c0.7-0.9 2-1.8 1.9-2.6-0.2-3.9-0.9-7.7-1.3-11.6-0.3-1.9-0.3-3.8-0.4-5.7q0.9 0.3 1.9 0.7c0.6 5.3 1.3 10.7 1.9 16 0.2 2.3 0 4.6 0 6.9-0.9-1.7-1.4-3.9-4-3.7z"/>
					<path id="&lt;Path&gt;" class="s3" d="m411.9 817.1q-0.4-2.8-0.8-5.6c2.7-0.6 5.2-2.9 8.8-0.7-2.2 2.1-4.3 3.9-6.3 5.8q-0.3 0.2-0.6 0.5-0.6 0-1.1 0z"/>
					<path id="&lt;Path&gt;" class="s7" d="m1134.1 699.9q1-4.9 2-9.8 1.9-1.1 3.8-2.2-1.9 6.7-3.8 13.3-1-0.7-2-1.3z"/>
					<path id="&lt;Path&gt;" class="s5" d="m443.2 880.6c-1.8-0.9-3.1-0.5-4 1.3-1 2.1-1.9 1.4-2.9 0-0.1-4.7 1.3-5.9 5.7-5.2 2.5 0.4 2.8 1.5 1.2 3.9z"/>
					<path id="&lt;Path&gt;" class="s7" d="m393.3 841.2q-1-4.3-1.9-8.7c1.9 2 3.9 4 6.5 6.6-1.9 0.9-3.2 1.5-4.6 2.1z"/>
					<path id="&lt;Path&gt;" class="s3" d="m411.8 739.8q-0.4-3.4-0.8-6.8 0.3-0.3 0.6-0.6c0.9 0.8 2.1 1.4 2.4 2.3 0.6 1.6 0.7 3.3 1 5 0 0-0.3 0-0.3 0 0 0-0.3 0-0.3 0q-0.4 0-0.8 0-0.9 0.1-1.8 0.1z"/>
					<path id="&lt;Path&gt;" class="s8" d="m437.3 899.5q0.6-0.6 1.2-1.3 1.3 6.6 2.5 13.2c-0.6-1.1-1.5-2-1.8-3.1-0.8-2.9-1.3-5.9-1.9-8.8z"/>
					<path id="&lt;Path&gt;" class="s8" d="m520.6 908q-0.6-2.9-1.2-5.8 1 0.1 2 0.2 0.3 0.2 0.7 0.4c0.2 0.6 0.7 1.3 0.5 1.7-0.5 1.3-1.3 2.4-2 3.5z"/>
					<path id="&lt;Path&gt;" class="s7" d="m433.2 742.9q0.1-1 0.2-1.8c1.2 0.2 2.2 0.5 3.3 0.7q-1.7 0.5-3.5 1.1z"/>
					<path id="&lt;Path&gt;" class="s8" d="m403.3 782.2q-1.5 0.4-3 0.9 1.5-0.5 3-0.9z"/>
					<path id="&lt;Path&gt;" class="s8" d="m544.9 921.2q-1.2 0.5-2.3 1 1.1-0.5 2.3-1z"/>
					<path id="&lt;Path&gt;" class="s7" d="m702.2 904.7q-1 0.1-2 0.1 1 0 2-0.1z"/>
					<path id="&lt;Path&gt;" class="s7" d="m441.7 732.2q1.7-0.2 3.4-0.3-1.7 0.1-3.4 0.3z"/>
					<path id="&lt;Path&gt;" class="s8" d="m490.9 898.2q0.3 0.7 0.5 1.3-0.2-0.6-0.5-1.3z"/>
					<path id="&lt;Path&gt;" class="s7" d="m506.4 903.6q-1.3 0-2.7 0 1.4 0 2.7 0z"/>
					<path id="&lt;Path&gt;" class="s8" d="m942.3 841q-0.6 0.3-1.3 0.5 0.7-0.2 1.3-0.5z"/>
					<path id="&lt;Path&gt;" class="s7" d="m497.1 718.3q0.4-0.2 0.7-0.3 0.6 0 1.2 0.1-0.9 0.1-1.9 0.2z"/>
					<path id="&lt;Path&gt;" class="s7" d="m454.3 912.5q-1.1 0-2.1 0.1 1-0.1 2.1-0.1z"/>
					<path id="&lt;Path&gt;" class="s8" d="m509 710.9q-0.7 0-1.5 0 0.8 0 1.5 0z"/>
					<path id="&lt;Path&gt;" class="s7" d="m417.7 851.6q-0.7 0.2-1.3 0.4 0.6-0.2 1.3-0.4z"/>
					<path id="&lt;Path&gt;" class="s4" d="m442.4 922.4q-0.1-0.4-0.2-0.9 0.1 0.5 0.2 0.9z"/>
					<path id="&lt;Path&gt;" class="s7" d="m523.5 909.1q-0.5 0-1.1-0.1 0.6 0.1 1.1 0.1z"/>
					<path id="&lt;Path&gt;" class="s7" d="m522.1 902.8q-0.4-0.2-0.7-0.4 0.3 0.2 0.7 0.4z"/>
					<path id="&lt;Path&gt;" class="s7" d="m419 851q-0.2 0.2-0.5 0.3 0.2-0.1 0.5-0.3z"/>
					<path id="&lt;Path&gt;" class="s8" d="m960.7 840q-0.5 0-1 0 0.5 0 1 0z"/>
					<path id="&lt;Path&gt;" class="s7" d="m413 817.1q0.3-0.3 0.6-0.5-0.3 0.2-0.6 0.5z"/>
					<path id="&lt;Path&gt;" class="s3" d="m401.5 792.7q-0.1-0.4-0.1-0.8 0 0.4 0.1 0.8z"/>
					<path id="&lt;Path&gt;" class="s7" d="m1180.6 784.2q-0.3 0.3-0.5 0.6 0.2-0.3 0.5-0.6z"/>
					<path id="&lt;Path&gt;" class="s8" d="m413.6 739.7q0.4 0 0.8 0-0.4 0-0.8 0z"/>
					<path id="&lt;Path&gt;" class="s9" d="m594.3 932.5q2.1 0 4.3 0-2.2 0-4.3 0z"/>
					<path id="&lt;Path&gt;" class="s9" d="m1035 859.1q1.3-0.3 2.6-0.5-1.3 0.2-2.6 0.5z"/>
					<path id="&lt;Path&gt;" class="s9" d="m1030.9 860.1q0.8-0.3 1.6-0.7-0.8 0.4-1.6 0.7z"/>
					<path id="&lt;Compound Path&gt;" fill-rule="evenodd" class="s4" d="m1171.5 834q-0.3 1-0.6 2.1c-0.8-0.2-1.6-0.2-2.3-0.5-2-1-3.4-0.3-4.6 1.4-2.4 3.5-7.4 4.5-8.7 9.2 0 0.1-1.4-0.1-2.2-0.2q-1.3-1-2.6-2.1-0.4-0.9-0.9-1.7l-22.6-2.7q-1 0-2-0.1-0.6-0.2-1.3-0.4c-6.6-0.8-13.2-1.8-19.8-2.4-1.8-0.2-4.2-0.1-5.5 0.9-2.3 1.6-4.4 1.6-6.8 1.1-2.7-0.5-5.2 0.8-6.2 3.3-0.9 2.3-1.4 5-3 6.7-1.6 1.8-4.3 2.7-7 4.1-0.7-1.4-1.1-2.9-2-4-1.3-1.5-2.7-2.9-4.4-3.8-0.7-0.4-2.4 0.4-3.4 1.1-2.6 1.9-4.7 4.5-7.5 5.8-5.3 2.5-10.8 4.3-16.3 6.3-1.3 0.4-2.8 0.3-4.2 0.5q-1.3 0.2-2.6 0.5-1.3 0.2-2.5 0.3-0.8 0.4-1.6 0.7-7.1 0.1-14.1 0.1-0.8 0-1.5 0c-2.5 0.8-5.1 1.4-7.5 2.4-2.8 1.1-5.6 2.4-8.2 4.1-2.5 1.6-4.6 3.7-6.9 5.6-1 0.9-1.9 1.8-2.8 2.6-4.1 2-8.2 4.1-12.4 5.9-6.9 2.9-13.9 5.6-20.9 8.2-2.2 0.7-4.7 0.5-7.1 0.7-4.6 0.4-9.2 1.1-13.8 1-2.5 0-5.1-0.7-7.2-1.9-3.4-2-6.7-3.3-10.7-3-1.8 0.1-3.7-0.7-5.5-0.5-2.8 0.3-5.8 0.6-8.2 1.9-3.6 2.1-6.8 5-10.2 7.6q-1.3 0.1-2.5 0.2c-4.1 0-6.9 2.7-9.8 5.1-0.7 0.6-1.6 1.3-2.4 1.4-4 0.1-8.1-0.2-12 0.7l-3.9 1.3-9.2-1.5-0.2-2.9q-1.3-1.7-2.5-3.3 1.4-0.7 2.8-1.5 0.4-2.1 0.7-4.2 0-0.3 0-0.6 0.3-2 0.5-3.9 0.1-0.7 0.1-1.4 0.3-2.5 0.6-5.1 1.1 0 2.3-0.1l27-7.2c-0.1-0.8-0.1-1.5 0.1-2.1 0.8-2 2.8-3 5.2-2.1 1.5 2.1 3.1 4.2 4.8 6.5 0.5-0.4 1.1-1 1.8-1.6-2.1-2.8-3.9-5.3-5.8-7.7q0.2-0.2 0.2-0.5 2.8-1.8 5.7-3.6c2.4-3 3.6-3 6-0.1 1 1.2 1.7 2.6 2.8 3.5 0.7 0.5 1.9 0.3 2.9 0.4q5 0.2 10.1 0.5 3 0.2 6 0.3 0.7 0 1.4 0.1 4.6 2.4 9.2 4.8c6.9-0.4 13.8-0.8 20.7-1.3 0.5 0 1-0.4 1.5-0.6 4.4-1.3 9-2.3 13.3-4 5.7-2.3 11.1-5.2 16.7-7.8 3.6-2.4 7.3-4.8 10.8-7.4 1.3-0.9 2.3-2.2 3.5-3.3q2.3-0.6 4.6-1.2 4.3-2.5 8.6-5c4.6-0.2 9.3-0.3 13.9-0.7 5.6-0.5 11.1-1.4 16.6-2.1q9.8-3.8 19.6-7.6 3.3-3.1 6.5-6.2 1.6 0.5 3.3 1c1.3 1.9 2.5 3.8 3.9 5.7 0.3 0.5 0.9 0.9 1.3 1.3 2.5-1.2 5.3-2.1 7.3-3.8 1.3-1 1.4-3.3 2-5 1.3-2.2 2-4.8 5-5.2q3 0.3 6 0.6 2-1.2 4-2.4 6.7 0.2 13.5 0.4 2 0.8 4 1.7c5.1 0 10.2 0.1 15.3-0.1 2.4 0 4-0.9 5.4-3.2 0.9-1.5 3.7-2.1 5.8-2.5 1.5-0.3 3.1 0.4 4.7 0.6 4.3 1.2 6.5 4.9 9.5 7.8 0.4 0.4 2-0.2 2.9-0.6 1-0.5 1.9-1.3 3-2.2-2.1-2.8-4.1-5.3-6.1-7.9 1.7-2.7 3.2-2.5 4.8 0 1.2 1.7 2.5 3.3 3.7 4.9l0.6-0.1 3.8 2 0.6 2.9c0 0-4.8 15-4.9 15.1zm-278 39.5c-1.9-1.6-3.1-2.8-4.5-3.8-0.2-0.1-1.9 1.5-1.8 1.6l4.5 3.3c0.5-0.3 1.1-0.7 1.8-1.1zm276.5-55.2l1.4-4.2c-1.3 1.4-2.1 2.8-1.4 4.2z"/>
					<path id="&lt;Path&gt;" class="s9" d="m571 966.1q0.6-0.3 1.2-0.7-0.6 0.4-1.2 0.7z"/>
					<path id="&lt;Path&gt;" class="s9" d="m1015.3 860.2q0.7 0 1.5 0-0.8 0-1.5 0z"/>
					<path id="&lt;Path&gt;" class="s9" d="m592.5 933.5q0.6-0.4 1.2-0.8-0.6 0.4-1.2 0.8z"/>
					<path id="&lt;Path&gt;" class="s9" d="m600.3 932.7q0.7-0.2 1.4-0.4-0.7 0.2-1.4 0.4z"/>
					<path id="&lt;Path&gt;" class="s9" d="m592.6 947.2q0.1-0.3 0.1-0.7c0.1 0.1 0.1 0.3 0.1 0.5 0 0.1-0.1 0.2-0.2 0.2z"/>
					<path id="&lt;Path&gt;" class="s8" d="m383.8 702.6q-1.4-7.2-2.8-14.4c3.3 0.3 5.5 1.5 5.4 5.3-0.1 1.8 0.3 3.7 0.5 5.5 0.3 2.4-0.6 3.7-3.1 3.6z"/>
					<path id="&lt;Path&gt;" class="s7" d="m486.2 705q-1.1 0.3-2.2 0.6 1.1-0.3 2.2-0.6z"/>
					<path id="&lt;Path&gt;" class="s3" d="m374 763.3c-0.7-3.2-1.3-6.6-1.2-7.6q-0.6-1.8-1.2-3.7 0.4-0.3 0.8-0.5 2.5 3.1 4.9 6.2c-0.3 0.6-3.1 5-3.3 5.6z"/>
					<path id="&lt;Path&gt;" class="s7" d="m449.5 927.6q0.3 1.7 0.6 3.4-0.3-1.7-0.6-3.4z"/>
					<path id="&lt;Path&gt;" class="s7" d="m494.6 929.5q0.3-0.6 0.6-1.2-0.3 0.6-0.6 1.2z"/>
					<path id="&lt;Path&gt;" class="s7" d="m495.3 926.1q0.2 0.1 0.4 0.1-0.3 0.4-0.5 0.8 0.1-0.5 0.1-0.9z"/>
					<path id="&lt;Path&gt;" class="s5" d="m856.1 879.1q-0.3 2.6-0.6 5.1 0.3-2.5 0.6-5.1z"/>
					<path id="&lt;Path&gt;" class="s5" d="m854.9 890.1q-0.3 2.1-0.7 4.2 0.4-2.1 0.7-4.2z"/>
					<path id="&lt;Path&gt;" class="s5" d="m855.4 885.6q-0.2 1.9-0.5 3.9 0.3-2 0.5-3.9z"/>
					<path id="&lt;Path&gt;" class="s8" d="m925.2 865.3q-3-0.1-6-0.3 3 0.2 6 0.3z"/>
					<path id="&lt;Path&gt;" class="s5" d="m437.9 727.2q-1 1.4-2 2.8-0.6 0.1-1.3 0.2-0.3 0.2-0.6 0.4-1 0.4-2 0.7c-0.7-1-1.5-2-2.3-3.2 1.6-0.7 2.6-1.1 3.6-1.6q1.6 0.1 3.2 0.2 0.4 0.2 0.7 0.4 0.4 0.1 0.7 0.1z"/>
					<path id="&lt;Path&gt;" class="s7" d="m437.2 727.1q-0.3-0.2-0.7-0.4 0.4 0.2 0.7 0.4z"/>
					<path id="&lt;Path&gt;" class="s5" d="m396.2 741.7q-0.8 1.9-1.7 3.9c-0.3-0.3-0.7-0.5-0.9-0.8-0.6-1-1-2-1.5-3 1.1-0.1 2.1-0.2 3.2-0.3 0.3 0 0.6 0.1 0.9 0.2z"/>
					<path id="&lt;Path&gt;" class="s8" d="m891.5 864.8c1.9 2.4 3.7 4.9 5.8 7.7-0.7 0.6-1.3 1.2-1.8 1.6-1.7-2.3-3.3-4.4-4.8-6.5q0.4-1.4 0.8-2.8z"/>
					<path id="&lt;Path&gt;" class="s8" d="m562.4 948.5q-0.2 0.1-0.5 0.1 0.3-0.7 0.7-1.4-0.1 0.6-0.2 1.3z"/>
					<path id="&lt;Path&gt;" class="s7" d="m434 730.6q0.3-0.2 0.6-0.4-0.3 0.2-0.6 0.4z"/>
					<path id="&lt;Path&gt;" class="s8" d="m893.5 873.5c-1.6 0.9-2.9 1.9-3.1 1.7-1.2-1.1-2.3-2.5-3.2-3.9-0.1-0.1 1.6-1.7 1.8-1.6 1.4 1 2.6 2.2 4.5 3.8z"/>
					<path id="&lt;Compound Path&gt;" fill-rule="evenodd" class="s4" d="m572.2 965.4c0 0 0 0 0 0q-0.6 0.4-1.2 0.7-0.7 0-1.3 0-1.7 0.6-3.4 1.3-0.3 0.3-0.6 0.6c-2.1 1.1-4.1 2.6-6.4 3.1-1.6 0.3-3.5-0.7-5.3-1.1-1.8-0.1-3.6-2.6-5.4-0.1q-0.6 0.1-1.1 0.2c-1.7-0.2-3.5-0.1-5.1-0.5-1.8-0.5-3.4-1.5-5.1-2-3.9-1.2-5.8-3.7-6.3-7.7-0.1-1-1.8-1.9-2.8-2.8q-1.1-1.2-2.1-2.3c-0.1-0.2-0.1-0.5-0.1-0.7 0.1-2.7-1.2-4.6-3.7-5.4-1.5-0.5-3.8 3.1-3.9 5.2-2.9-0.6-6-1-8.9-1.6-0.7-0.2-1.6-1-1.7-1.6-0.4-2.4-1.7-2.7-3.8-2.3-0.6 0.2-1.6 0.1-2.1-0.3-3.4-2.2-3.3-2.3-4.4 1.4-1.4-0.5-2.9-1.1-4.7-1.7 0 1-0.2 1.6 0 2 1.3 3-0.2 4.6-2.5 6.4-2.5 1.9-4.3 4.5-7.1 7.5-0.6-2.9-1.3-5.1-1.7-7.3-0.2-1.8-0.5-2.4-2.4-1.5-1.6 0.8-3.5 1.2-5.3 1.3-2.3 0.2-4.9-0.5-5.5 2.9 0 0.2-0.2 0.5-0.4 0.5-4 0.6-8 1.2-12.1 1.6-0.2 0-0.7-1.4-0.9-2.2q-0.8-2.8-1.4-5.6c-0.3-1.8-0.6-3.6-1-5.6-1.2 0.3-2.3 0.6-4 1-0.8-2.5-1.5-5-2.2-7.5-1.2-4.3-2.4-8.6-3.5-13-0.3-1.1-0.2-2.3-0.3-3.4q1.2 1 2.5 2.1c0.1 1.6 0.5 2.5 2.2 1 0.5-0.5 1.2-0.7 1.8-1.1q0.2 0.4 0.5 0.7 0.3 1.7 0.6 3.4c0.5 2.8 0.7 5.6 1.4 8.3 0.2 0.8 1.7 1.9 2.6 1.9 2.8 0 5.6-0.5 8.4-0.6 1.7-0.1 2.4-0.8 2.2-2.4q0.9-1 1.9-2c1.1-0.1 2.3-0.1 3.5-0.3 1.7-0.3 3.3-0.7 4.9-1.1q1.7-0.3 3.3-0.6c0.2 2.2 0.5 4.4 0.7 6.6 0.3 2.3 1.5 2.3 2.8 1 2.2-2.3 4.2-4.7 6.3-7 0.7-0.7 1.8-1.3 1.9-2.1 0.3-1.4-0.1-2.9-0.2-4.7 1.9 0.5 3.3 1 4.8 1.5q0.3-0.6 0.6-1.2 0-0.7 0-1.3 0.2-0.4 0.5-0.8l0.2-0.2q1.6 1 3.2 2 0.7 0.3 1.5 0.6c2.4-0.8 4.1-0.4 4.2 2.6 0.1 0.3 0.6 0.5 1 0.8l0.1 0.2q4.8 0.8 9.5 1.7c0.3-3.9 2.7-5.6 6.4-4.3 0.5 1.4 1 2.9 1.6 4.3 0.5 1.1 1.2 2.1 1.8 3.1 2.6-0.2 3.1 2 4 3.7 0.5 1.7 0.6 4.4 1.7 4.9 3.5 1.6 6.5 4.4 11 3.8 3.5-0.4 7.4 0 10.7 1.2 3.7 1.5 6.4 0.3 9.3-1.4q0-0.3 0-0.6 0 0 0 0 0.3 0 0.5-0.1 0.1-0.7 0.2-1.3 0.9-0.3 1.9-0.5 2-0.2 3.9-0.3 4.2-2.9 8.5-5.8 2.6 0.1 5.2 0.2 2.1 1.1 4.2 2.2 0.2-0.2 0.4-0.4l-14.5 22.8q2.7-1.9 5.3-3.8c4-1.9 7.6-0.3 11.3 1.6 0.8-1.5 1.4-2.8 2.1-4.2 0.3-1 0.8-2 0.9-3 0.3-2.7 0.5-5.5 0.7-8.2q0.1-0.3 0.1-0.6 0.1-0.3 0.1-0.7-0.1-0.7-0.2-1.3c0-1 0.2-1.9 0.2-2.9-0.1-3-0.1-5.9-0.2-8.8l-4 6.3c0.9-2.2 1.1-4.6 1.4-7 0.7-5.7 1.5-11.3 0.7-17-0.1-1.2 1.7-2.5 2.6-3.8 3.9-0.3 7.7-0.7 11.5-0.7 5.6 0 11.2 0.3 16.8 0.5 0.9 0.1 1.9 0.2 2.9 0.3q5.2 1.5 10.5 3.1 6.4 1.4 12.8 2.8 4.7 1.5 9.3 3.1 1.1 2 2.2 3.9 2.5 0.9 5 1.8c3 4.3 7.3 6.6 11.8 8.7 4.7 1.3 9.2 3.9 14.4 1.9q3.6-2.2 7.3-4.4 2.9-0.1 5.8-0.2 3.3-1.6 6.6-3.1 5.8-1.4 11.6-2.8c1.9-0.6 3.6-3 6-1.1 0.1 0.1 1.1-0.8 1.6-1.4 1.9-2.4 3.8-4.8 6-7.6 0.7 1.3 1.3 2.3 1.8 3.4 4-0.8 5.5-2.5 5.6-6.4 0.1-4.3 2.6-7.4 5.2-10.1 4.5-4.6 9.6-8.7 14.4-13q3.3-0.3 6.7-0.7c3.2 1.4 6.2 2.8 9.9 3.1 4.1 0.4 8.1 2.4 12.2 3.6 1.4 0.4 2.9 0.5 4.3 0.7q1.7-1.1 3.5-2.3 2.2 0 4.4 0 1.7-4.5 3.4-9.1 2.2-0.9 4.5-1.9c1.7-1.4 3.5-2.9 5.7-4.7 0 2 0.1 3.6 0 5.1-0.3 6.6-1 13.2-1 19.8 0 2.1 1.4 4.8 3 6.3 3.3 3 6.6 5.8 6.4 10.9-0.1 0.2 0.4 0.4 0.6 0.6q3.1 1.4 6.1 2.8c1.4 0.1 2.8 0.1 4.7 0.2 0-2.1 0-4 0-5.8 5.7-0.8 6.2-5.2 6.4-9.7 0.1-2 0.9-3.2 2.6-3.8 0.9-0.2 1.7-0.5 2.6-0.4 2.9 0.5 4.8-0.7 5.8-3.4-0.6 6.7-1.2 13.3-1.9 20-0.2 1.9-1.1 3.3-3.3 3.3-1 0-2 0.2-2.9 0.4-2.5 0.6-4.8 1.3-4.5 4.8 0.1 1.8-0.5 3.7-1.1 5.4-0.3 0.8-1.2 1.9-2 2.1-2.7 0.6-3.5 2.1-3.3 4.6 0.1 0.8-0.3 1.7-0.5 3-2.4-0.6-4.7-1-7-1.6-2.6-0.7-4-2-4.2-5.2-0.1-1.9-2.1-3.8-3.3-5.7-0.1-0.2-0.3-0.3-0.5-0.4-5.3-3.1-5.6-7.9-5.1-13.4 0.5-6.1 0.1-12.3 0.1-17.7-2.7 1.6-5.9 3.3-9 5.4-0.6 0.4-0.7 1.6-1 2.5-0.6 1.7-0.9 3.6-1.6 5.2-0.4 0.7-1.9 1.5-2.5 1.2-2-0.8-3.5-0.2-5 1.2-2.3 2.2-4.5 0.1-6.6-0.4-4.8-1.3-9.1-4-14.4-3.5-0.8 0-1.8-0.7-2.6-1.1-4.7-2.6-8.9-2.4-12.7 1.3-5.4 5.2-12.2 9.2-15.5 16.4-0.6 1.1-1.1 2.4-1.1 3.6 0.3 3.9-2.2 5.7-5.2 7.5-0.8-1.3-1.5-2.3-2.4-3.8-2.4 3.2-4.7 6-7 8.9q-0.1-0.4-0.3-0.7-2.8 0.7-5.6 1.5c-4.3 1.1-8.6 2.2-12.8 3.5-1.4 0.4-2.7 1.2-4.1 1.7-0.8 0.4-1.6 1.1-2.3 1-4.2-0.7-7.1 2.2-10.6 3.5-2.6 0.9-5.8 1.7-8.3 1-4.7-1.2-9.2-3.4-13.7-5.5-1.4-0.7-2.5-2.3-3.8-3.5-0.7-0.6-1.4-1.7-2.1-1.8-3.4 0-4.6-2.4-6.5-4.6-1.4-1.8-4.3-2.7-6.8-3.3-4.4-1.2-8.9-1.8-13.3-2.7-1-0.2-2-0.5-2.8-1-2.9-2.4-6.3-2.5-9.8-2.4q-6.6-0.9-13.1-1.9-2 0-3.9 0.1 0 0-0.1 0-2.9 0.6-5.8 1.3-0.3 0.1-0.6 0.1-0.7 0.2-1.4 0.4-0.9-0.1-1.7-0.2-2.2 0-4.3 0-0.3 0.1-0.6 0.2-0.6 0.4-1.2 0.8 0 0 0 0"/>
					<path id="&lt;Path&gt;" class="s7" d="m377.3 757.7c-0.3 0.6-3.1 5-3.3 5.6 0.2 0.8 1 4.8 1.3 5.6 1.4-1.5 2.6-3.9 4.2-4.2 3.9-0.6 4.8-2.8 4.9-6-2.5 0.9-4.9 0.9-7.1-1z"/>
				</g>
				<path id="&lt;Compound Path&gt;" fill-rule="evenodd" class="s5" d="m1185.3 784.3q-2.4-0.1-4.7-0.1-0.3 0.3-0.5 0.6-0.2 0.5-0.4 1.1c-1.4 1.1-2.9 2.1-4.2 3.4-1.6 1.5-3.1 3.3-4.7 4.9-0.6 0.6-1.4 1.5-2.1 1.5-2.9-0.1-5.9-4.9-4.6-7.4 1.5-3.1-0.5-4.2-2.5-5.5-1.6-0.4-3.2-1.2-4.7-1.1-1.8 0.1-4.6 0.6-5.1 1.7-1.5 4-4.8 4.3-8.1 4.5-4.7 0.3-9.4 0.1-14.1 0.1q-2.3-0.9-4.6-1.9c-3-0.2-6-0.5-9-0.6-1.3-0.1-2.7 0.3-4 0.5q-2.7 1.1-5.4 2.2-2.8-0.1-5.7-0.2c-1.3 1.7-2.7 3.3-3.8 5.1-1.1 1.8-2 3.8-2.9 5.8q-3.5 1.4-7 2.9c-0.6-0.8-1.2-1.6-1.8-2.4q-2-2.5-4-5.1c-2.3-1.1-3.8-0.9-4.1 2q-3.6 2.3-7.2 4.7-10.4 3.6-20.8 7.2c-6.2 0.4-12.5 0.7-18.7 1.3-4 0.4-8 1.3-11.9 2q-3 1.9-6 3.9-3 1.2-6 2.4c-3.7 2.8-7.4 5.7-11.2 8.5-1.1 0.9-2.4 1.6-3.6 2.5-6.1 2.4-12.2 4.9-18.4 7.2-4 1.5-8.1 2.7-12.2 4q-0.3 0-0.6 0-0.5 0-1 0-8.7 0.5-17.4 1-0.6 0.3-1.3 0.5-0.7 0.1-1.3 0.1-4.6-2.4-9.1-4.8c-0.5-0.2-1-0.5-1.5-0.6-3.7-0.4-7.4-1-11.1-1.1-1.9-0.1-3.8 0.7-5.8 1.1q-1.9 1.1-3.8 2.3-5.9 3.4-11.8 6.9-2 0.6-3.9 1.2-3.9 2.9-7.8 5.8-5.9 0.1-11.8 0.2-2.6 1-5.2 2-0.9-2.1-1.8-4.2c-4.3-2.8-9.3-0.2-13.8-1.7-1.1 1.1-3 2.2-3.2 3.5-0.6 3.5-0.7 7-0.7 10.6 0 0.9 1.2 1.9 1.8 2.8 1.3 1.5 2.3 3.2 3.7 4.4 2.1 1.9 3 3.9 2.3 5.7-4 0.8-7.5 1.6-11.2 2.4 0.2 3.1 0.3 5.7 0.4 8.3-1.3 1.1-2.6 2.8-4.1 3.1-2.4 0.5-3.1 1.5-2.9 3.7 0.2 1.5 0.5 3.2-1.7 3.4q-2-0.1-4-0.3-1.9-0.7-3.9-1.4c-0.6-1.1-1.8-2.2-1.8-3.3-0.1-4.3-2.8-6.7-5.8-9.1-4-3.2-4.2-4.2-2.4-8.9 0.1-0.4 0.1-0.9 0.2-1.3q2.2-2 4.5-4.1c2.2-2 4.5-3.9 6.5-6.1 1.4-1.5 0.3-10.4-1.4-11.7-0.4-0.3-1.2-0.3-1.8-0.5q-3.4-2.7-7.1-0.4-3.3 3.5-6.7 7c-5.5 0.2-5.7 0.3-5.8 5.7 0 0.9-0.1 1.8-0.1 2.6q-2.3 0.8-4.5 1.6-0.9 0-1.9-0.1-2 1.6-4 3.1-8.1-2.6-16.2-5.2-2.3 0.1-4.6 0.1-2-1-3.9-2c-4.8-2.3-7.1-2-9.9 1.3-5.2 4.7-10.8 9.2-15.6 14.3-2.1 2.2-4 5-3.5 9 0.2 1.4-2.8 3.3-4.4 5q-1.3-1.5-2.7-2.9c-0.1-0.2-0.4-0.1-0.6-0.2-1.9 2.5-3.8 4.9-5.9 7.3-0.5 0.6-1.5 1.4-1.9 1.3-2.5-1.3-4.1 0.3-5.9 1.6q-7.1 1.5-14.3 3.1-2 1.3-3.9 2.7-0.6 0-1.2-0.1-1 0.1-2 0.1-1.3 0.3-2.7 0.6-3.9 2-7.8 4-7.1-1-14.3-2-5.6-3.3-11.2-6.6c-0.3-3.9-3.3-3-5.8-3.2q-1-1-2-1.9c-0.3-3.3-2.8-5.2-7.8-5.8q-7.2-1.4-14.3-2.8-2.6-1-5.1-2c-0.5-0.4-1-1.1-1.5-1.1-6.1-0.8-12.2-1.9-18.3-1.9-6.3 0-12.6 1.1-18.9 1.8-3.7 3.1-5.2 6.5-3.4 9.5 2.2 3.7 1.1 6.7-0.6 10-0.4 0.9-0.9 2.7-0.5 2.9 3.1 2.3 0.7 4.3-0.1 6.4-0.7 2-1.9 2.4-3.8 1.3-0.6-0.4-1.3-0.5-2-0.7q-3-0.1-6-0.2c-0.7 0.3-1.4 0.5-2.1 0.8q-4.5 2.2-9 4.4-0.4 0.4-0.7 0.7-2.3 1.6-4.6 3.1c-3.8 1.6-7.4 0.9-10.9-0.9q-1 0-1.9 0-1.2 0.5-2.3 1-0.5-0.1-1-0.1c-0.7-0.4-1.5-1.1-2.2-1-4.6 0.8-8.2-2-12.1-3.3q-1-0.4-1.9-0.7-0.9-4-1.9-8-0.5 0-1.1-0.1-0.4 0-0.9 0-0.4-0.5-0.9-1c0.7-1.1 1.5-2.2 2-3.5 0.2-0.4-0.3-1.1-0.5-1.7q-0.4-0.2-0.7-0.4-1-0.1-2-0.2c-1.4-0.6-3.4-2.1-4.1-1.6-1.9 1.3-3.2 3.4-4.8 5.2-0.6-0.5-1.8-1.3-2.9-2.2q-0.6 0-1.2 0-1.3 0-2.7 0-0.9 0-1.8 0.1-1-1.2-2-2.3c0-2.7-1.8-1.7-3.3-1.6q-1.3 0.2-2.6 0.4c-0.5-2.9-0.6-3-3.1-2q0.3 0.7 0.5 1.3 0 0.7 0 1.4c-1.1-0.3-2.1-0.6-3.2-0.8-1-0.1-2.6-0.5-2.9-0.1-0.6 0.8-0.8 2.4-0.3 3.1 1.1 1.8 0.3 2.8-1 3.9-0.7 0.5-1.2 1-1.8 1.6q-3.3 2.9-6.5 5.9c-2.2-4.2 1.1-6.9 2.9-10.1q-0.3-0.4-0.6-0.8-3.8 1.8-7.5 3.5c-2.1 0.1-4.2 0.3-6.2 0.3-2.9-0.1-4 1.1-3.7 3.9q-1.4 0.5-2.8 1-1.7 0.1-3.5 0.2-1.1 0-2.1 0.1-2.6 0.3-5.2 0.6 0.7-1.5 1.3-2.9c7.7-5.5 16.8-6.1 26-6.9 0-1.4-0.3-2.5 0-3.5 0.6-1.4 1.6-3.9 2.3-3.9 4.1 0.3 5.1-3.6 7.7-5.3-3.6 0.3-7.1 0.8-10.5 1.5-8.9 1.7-17.4 5.3-26.8 4.2-0.7-0.1-1.5 0.6-2.2 1-3.8 1.9-4.6 4.2-3.5 9.7 1.3 6.6 2.4 13.2 3.7 19.9q-1.3-1.1-2.5-2.1 0-1.3-0.1-2.5-0.1-0.4-0.2-0.9l-0.1-0.3q-0.6-4.9-1.1-9.8-1.2-6.6-2.5-13.2c-0.7-3.1 1.3-4.8 3.2-6.7 2 2.5 4.2 2.5 7.5 0.2 0.8-0.5 2.1-0.8 2.2-1.4 0.3-1.9 0.3-3.9 0.4-6.1-2.1-0.3-4.3-0.6-6.5-0.8-1.8-0.2-2.4-1.1-2.1-2.8 1.6-2.4 1.3-3.5-1.2-3.9-4.4-0.7-5.8 0.5-5.7 5.2-0.6-0.6-1.6-1-1.8-1.7-0.6-2.5-1.1-5.1-1.1-7.7-0.1-1.8-0.6-2.2-2.2-2.4-2.5-0.2-4.9-0.6-7.4-1 1.1-3.5 3.8-4.5 6.5-4.7 7-0.3 0.5-5.6 2.9-7.6 0.4-0.3-0.3-2-0.7-2.9-0.2-0.4-0.8-0.7-1.3-1-3.9-1.9-7.8-3.1-12.2-1.9q-0.3 0.2-0.5 0.3-0.4 0.2-0.8 0.3-0.7 0.2-1.3 0.4c0 0 0 0.1 0 0.1q-1.7-1.7-3.4-3.4c-0.6-1.1-1.2-3.1-1.8-3.1-2 0-4.7-1-5.5 2.3q-1.9 0.5-3.9 1-7.1-1.6-14.2-3.2 1.3-1.9 2.6-3.8 1.6-0.4 3.1-0.7c1.4-0.6 2.7-1.2 4.6-2.1-2.6-2.6-4.6-4.6-6.5-6.6q-0.4-3.5-0.8-7c5-0.6 12.1 3.6 13.2 7.3 1.3 4.4 1.3 4.4 5.2 2q3.9 0 7.8 0 0.2-0.6 0.4-1.2-5.6-5.9-11.2-11.9 1-1.8 1.9-3.6 2-0.5 4-1 0.5 0 1.1 0 0.3-0.3 0.6-0.5c2-1.9 4.1-3.7 6.3-5.8-3.6-2.2-6.1 0.1-8.8 0.7-3.5-2.2-3.7-3-1.7-6 1.1-1.6 0.9-2.7-0.7-3.7-1.4-0.9-2.8-1.9-4.1-2.8-1.6-1.5-3.2-2.9-5.3-4.8 0.5-0.4 1.3-0.9 2.2-1.5q-0.1-0.4-0.1-0.7c3.4-0.1 8.2-5.9 8.6-10.6q-3.4 0.4-6.7 0.8-1.5 0.4-3 0.9-0.2 0-0.5 0.1c-2.1 0.6-4.3 1.2-6.5 1.9-6.2 1.8-11.9 5.2-18.6 5q-0.2-0.4-0.3-0.9c0.7-2.4 1.8-4.7 1.9-7.2 0.3-3-0.2-6-0.4-9.1-0.1-1.3-0.4-2.7-0.6-4 1.4-1.5 2.6-3.9 4.2-4.2 3.9-0.6 4.8-2.8 4.9-6 1.6-2.2 3.2-4.4 4.8-6.6 0.9-1.3 0.6-2.8-0.9-3-1 0-2.2 1.2-3.1 2.1-1 1.1-1.6 3.2-2.7 3.5-1.1 0.3-2.7-1-4-1.7-0.5-3.4 0.8-5.6 4.1-6.9 1.4-0.5 2.7-1.6 4-2.5 1.3 1.3 2.7 2.5 3.8 3.9 2.2 2.9 2.9 1 5.2-0.7 3.6-2.5 7.6-3.8 12-4 1.5-0.1 2.8-2 4.2-3q0.9 0 1.8-0.1 0.4 0 0.8 0h0.3 0.3c3.2 0.4 6.4 0.7 9.5 1.4 1.9 0.5 3.7 1.6 5.5 2.5q1.6-0.4 3.2-0.7 1.8-0.6 3.5-1.1 0.3 0 0.6 0 3.3-0.9 6.6-1.8 0-0.5 0-1.1c-1.1-0.7-2.6-1.2-3.3-2.2-0.9-1.2-4.2-2.1-1.3-4.5q1.2 0 2.4 0 1.7-0.2 3.4-0.3 1.3-0.4 2.6-0.7c1.5 0 3 0 5.3 0-1.6 2.5-2.8 4.3-3.9 6.1q0.2 0.4 0.5 0.8 2.9-1.2 5.9-2.4 5.8-0.3 11.6-0.6c2.8-0.1 5.6-0.1 8.4-0.3 4.7-0.5 9.3-1.1 14-1.8 3-0.5 6-1.1 8.8-1.6 0.4-3.3-0.6-4.2-3.2-4.2-3.6-0.1-7.4 1.2-10.8-1.6 2.7-2.2 5.2-4.2 7.7-6.2q2-0.5 4.1-1 0.5-0.1 1-0.1 1-0.1 1.9-0.3c2.5-0.6 5.3-0.9 6.8-3.5 3.7-0.3 7.4-0.4 11.1-1 3.7-0.6 7.4-1.7 11.2-2.6q-0.1-0.6-0.3-1.3c-1.3 0-2.7-0.1-4 0-4.9 0.4-9.9 0.9-14.8 1.3q-0.7 0-1.5 0-1.1-0.1-2.3-0.2-3.8-1.9-7.7-3.8-1.7-0.6-3.4-1.3c-0.6-0.9-2-2.1-1.8-2.8 0.9-3.2 2.3-6.3 3.4-9.4 1-0.2 1.9-0.7 2.8-0.7 6.9 0.1 13.7 0.3 20.5 0.2 3.4 0 6.8-0.5 10.1-0.8q7.7-2.6 15.4-5.3 7.4 0.6 14.7 1.1 1.7 0.1 3.3 0.1c8.3 1.3 16.3 0.5 23.6-4.1q0.8-0.9 1.7-1.7 0-0.4 0.1-0.7 0.3-0.6 0.6-1.2 0-0.3 0.1-0.7 0.3-2.2 0.6-4.5c0.3-0.4 0.6-1.1 0.9-1.2 4.9-0.9 8.2-4.3 11.9-7.1 2.2-1.7 4.7-3 7-4.4q3.5-2.1 7.1-4.3 0.3-0.2 0.6-0.5 1.2-1.1 2.4-2.1 0.2-0.3 0.4-0.6c1.4-0.9 2.7-2 4.2-2.8 4.7-2.7 8.7-6.7 14.3-7.9 4.4-0.8 8.4-2.8 12.4-4.9 5-2.7 10.3-5.2 16.4-5 5.6 0.2 11.3-0.3 16.9-1.2 5-0.7 9.9-2.3 15-0.7 0.6 0.1 1.3 0 1.9-0.2 5.4-1.9 11-2.1 16.7-2.2 2.2 0 4.7-1.7 6.6-3.2 1.6-1.3 2.4-4.4 4.1-4.8 1.4-0.4 3.7 1.7 5.4 2.9 0.6 0.4 1.3 1.5 1.3 2.2-0.4 2.6 1 4 2.8 5.5 6 5.2 12.9 7 20.4 5.4 3.8-0.8 7.3-3.3 10.9-4.9 3.9-1.7 7.7-0.6 8.7 3.3 1.4 5.9 5.6 8.9 10 12 5.9 4.1 9.8 3.5 13.7-2.5 1-1.6 2-2.1 3.9-1.8 3.2 0.5 6.5 0.6 9.7 1.2 1.2 0.2 3 1 3.3 2 1.7 4.7 5.7 4.8 9.3 4.6 4.4-0.3 8.4 0.6 12.3 2.2 2 0.8 3.1 0.7 4.3-1.2 1.1-1.9 4.8-2.8 6.3-1.3 2.5 2.5 5.6 2.7 8.7 2.9 4.4 0.3 8.9 0.7 13.3 0.5 3.5-0.1 7.2-0.2 10.2-1.6 4.6-2.2 10.3-1.9 14-6.1 0.2-0.2 0.6-0.1 0.9-0.2q3.9-1.1 7.7-2.2 0.6-0.2 1.1-0.5 0.5-0.2 0.9-0.4 2.3-0.3 4.5-0.6c1.3-0.2 2.6-0.5 4-0.7 1.5-0.2 3-0.3 4.4-0.5q0.5 0.1 0.9 0.2 0.9 0.3 1.8 0.6 0.3 0.1 0.7 0.2 2.2 0.3 4.4 0.6c0 0 0.1 0 0.1 0q0.4 0.1 0.9 0.1 1.2 0 2.5-0.1 1.6 0 3.1 0 0.4 0.5 0.8 1c4 0.2 8.1 0.7 12.2 0.5 1.7-0.1 3.9-0.9 5.1-2.2 3.1-3.5 7.2-4.7 11.5-5.8 3.5-0.8 6.6-1.8 7.8-5.8 0.3-0.8 2.1-1.6 3.2-1.6 4.2-0.1 6.8-2.7 9.7-5.2 2.5-2.2 5.4-4 8-6.1 0.9-0.7 1.8-1.6 2.2-2.7 1.3-3.4 3.9-4 7.1-3.4 1.4 0.2 2.7 0.6 4.1 0.8 2.5 0.5 4.9 0.5 6.5-2.1 0.5-0.8 1.9-1.3 2.9-1.3q8.3-0.2 16.6 0c3.1 0 4.5-1.1 5-4.2 0.2-1.1 1.9-2.2 3.1-2.7 1-0.5 2.4 0.1 3.5-0.3 2.4-0.8 3.7-0.2 4.2 2.3 0.1 0.4 0.8 0.8 1.3 1 5.1 2.1 10.3 4 15.4 6 0.4 4.6 3.7 6.6 7.8 4.4 2.4-1.2 4.3-0.6 5.2 1.4 2.1 4.6 6.5 5.6 10.4 6.9 2.2 0.7 2.6 1.9 3.4 3.4 0.6 1.1 1.4 2.2 2.1 3.3 2.8 3.1 2.3 6.9 1.1 10.1-2.2 5.6 0.3 9.4 3.5 13.3 0.8 1 1.7 2.2 1.8 3.3 0.4 3.1 2.4 3.7 4.9 4.6 5.4 2 10.2 0.3 15.2-1.1 4.4-1.3 8.6-1.7 12.7 1q4.6 3 9.2 5.8c0.9 0.5 2 0.7 2.9 1.2 1.2 0.8 2.3 1.8 3.5 2.7-0.7 0-1.3 0.1-2 0-4.7-1-6.5 0.7-6.3 5.4 0.1 3.4-0.1 6.8-0.1 10.2q-1.9 1.1-3.8 2.2c-3.6-3.1-6.8 0.4-10.9 0.3 0.9 1.4 1.4 2.4 2.1 3.3 0.8 1.1 2 2 2.4 3.2 0.8 2.3 2.2 3.1 4.4 3q1 0.6 2 1.3 0.5 0.7 0.9 1.4c-0.5 3.5-0.8 6.8 3.1 8.7 2.6 1.2 4.4 2.8 3.7 6.2-0.2 1 0.2 2.6 1 3.2 2.6 2.2 3 5 3.3 8.1 0.4 3.7 2.3 4.9 6 4.5 1.1-0.1 2.2-0.1 3.5-0.2-1.5 7.5-2.9 14.8-4.4 22.4 1.9 0.2 2.9 0.3 4 0.3 0.7 0.1 1.8-0.2 2.2 0.2 3.5 3.6 8.6 2.3 12.6 4-0.9 6 2 12.3 7.4 14.7 4.4 2 7 4.5 5.9 9.6zm-415.1 11.7q0 0 0 0 0 0 0 0 0 0 0 0z"/>
				<path id="&lt;Path&gt;" class="s3" d="m391.8 733.1l-11.2 3.9q-6 0.8-11.9 1.6 0 0.8 0 1.6c0.6 1.4 1.1 2.8 1.7 4.3l1.2 7.5 5.7 5.7 1.2-4.7c-0.5-3.4 0.8-5.6 4.1-6.9 1.4-0.5 2.7-1.6 4-2.5l9.1-6c1.6-1.3 3.2-2.6 4.8-3.8-3-3.2-5.8-1.1-8.7-0.7z"/>
				<path id="&lt;Path&gt;" class="s5" d="m378.5 753l-1.2 4.7 3.3 2.8 7.2-0.7 2.1-4.9 0.6-4.7c0 0-0.4-1.8-1.1-2-0.6-0.1-5-0.9-5-0.9l-3.4 5z"/>
				<g id="&lt;Group&gt;">
					<path id="&lt;Path&gt;" class="s3" d="m385.8 748.4l-2.6 3.6-5.9 5.7 3.3 2.8 5.2-4.4c0 0 3.7-2.9 4.4-3.7 0.5-0.4 1.4-1.4 2.3-2.2l-4.8-6.3z"/>
					<path id="&lt;Path&gt;" class="s3" d="m407.6 742.8l-4.2-4.6-2.9 0.7-5.4 1.9 3.4 6 4.1-1.9z"/>
					<path id="&lt;Path&gt;" class="s8" d="m392.1 741.8l-4.4 2.1 4.8 6.3c0.7-0.8 1.4-1.4 1.4-1.4l3.5-1.5 1.1-0.5-3.4-6z"/>
				</g>
				<path id="&lt;Path&gt;" class="s3" d="m879 880.9l4.6-0.9-3.5-2.7 3-1.3-0.2-2.5-1-2.2-6.1 1.7z"/>
				<path id="&lt;Path&gt;" class="s7" d="m890.7 867.6l-0.3 7.6-6.8 4.8 1.3-14.4 5-3z"/>
				<path id="&lt;Path&gt;" class="s3" d="m891.7 864.3l-1 3.3-0.3 7.6 5.1-1.1 1.8-1.6 1.4-1.2-1.3-10.6-1.7-4.1z"/>
				<path id="&lt;Path&gt;" class="s7" d="m897.4 860.7l1.3 10.6 9.7-2.6 0.7-4.2-4.1-15-7 8.8z"/>
				<path id="&lt;Path&gt;" class="s3" d="m1177.9 791.3l-5.9 22.7 3.8 2 3.3-7.2 1.7-5.8 0.5-0.7 2.1-9.3v-6z"/>
				<path id="&lt;Path&gt;" class="s7" d="m1178.4 789.6l-0.5 1.7-4.6 18.3-1.3 4.4-0.6 0.1-2.5 7.4-3.9-0.3-1.9-1.3-2.7-7.4 1.2-9.3 5.1-6.8h3.1l3.6-3.4 3.8-4.4z"/>
			</g>
			<g id="&lt;Group&gt;">
				<path id="&lt;Path&gt;" class="s7" d="m860.1 965.6q-0.5 0.3-1 0.5 0.7 1 1.5 2-0.8-1-1.5-2 0.5-0.2 1-0.5z"/>
				<path id="&lt;Path&gt;" class="s7" d="m451.9 996.6q0.4 0.4 0.8 0.7-0.4-0.3-0.8-0.7z"/>
			</g>
			<g id="&lt;Group&gt;">
				<path id="&lt;Path&gt;" class="s10" d="m1028.3 711.4c-2.6-15-11.1-27.8-23.9-36.1-8.4-5.5-16-9.9-29.6-12.6-8.2-1.7-19.5-1.7-27.4-0.2-12.1 2.5-21.5 8.2-27.3 16.6-4.4-2.1-11.6-5.2-20.2-7.1-18.8-4.3-35.3-0.8-47.7 10-10.1 8.9-14.7 22-12.3 35.1q1.5 8.5 5.3 15.6l10.8-1c-3.2-4.7-5.4-10.2-6.5-16.4-1.7-9.7 1.7-19.4 9.2-25.9 24.1-21.2 60.3 0.2 60.6 0.4l4.6 2.8 2.3-4.8c4.2-8.1 11.9-13.4 23.1-15.7 6.6-1.3 16.6-1.2 23.6 0.2 11.9 2.4 18.4 6.1 26.2 11.2 10.5 6.8 17.5 17.3 19.6 29.6 2.1 12.3-1.1 25.1-8.7 35.1l-35.9 46.7-97.3-41.6-77.1 6.6-39.8-59.3 11.9 63.8-21.7-22.4 9.9 59.5-81.4-123.7 16.8 88.5-21.5-22.9-2.8 28.8-17.8-13.3-11.2 18.4-131.6 15.1 1.1 9.7 136.3-15.6 8.2-13.3 23.1 17.2 2.4-24.5 29.7 31.5-13.9-73.3 79.9 121.4-12.4-74.2 22.5 23.2-9.2-49 16.6 24.7 80.4-6.9 102 43.6 40.5-52.8c9.4-12.1 13.2-27.7 10.6-42.7z"/>
			</g>
		</g>
		<g id="&lt;Group&gt;">
			<path id="&lt;Compound Path&gt;" class="s11" d="m111.7 631.6q-10.2-10.3-13.6-24.1-3.4-13.8 0.7-28.7 4.9-17.4 17.4-27.9 12.6-10.6 29.8-11.4l-6.7 23.9q-8.4 1.5-13.9 6.9-5.6 5.4-7.9 13.9-2.5 9-0.3 17.3 2.3 8.2 8.9 14.3 6.6 6.1 17 9 10.3 2.8 19.2 1.1 8.8-1.8 15-7.7 6.2-5.8 8.8-14.9 2.3-8.4 0.3-16-1.9-7.5-8.4-13.1l6.7-23.9q14.4 9.6 19.6 25.1 5.2 15.4 0.4 32.9-4.2 14.9-14.3 25-10.1 10-24 13.6-14 3.5-29.2-0.7-15.3-4.3-25.5-14.6z"/>
			<path id="&lt;Compound Path&gt;" fill-rule="evenodd" class="s11" d="m233.1 479.8l-18.9 38.5 15.2 15.4-10 20.3-79.5-82.3 11.1-22.5 113.7 12.9-10.1 20.4zm-18-2.3l-47.3-5.9 33.5 33.8z"/>
			<path id="&lt;Compound Path&gt;" class="s11" d="m324.3 381.2l-12.8 17.3-88.4-4.7 59.3 44-12.9 17.3-86.5-64.1 12.8-17.4 88.5 4.8-59.4-44 12.8-17.4z"/>
			<path id="&lt;Compound Path&gt;" class="s11" d="m369.6 332.7q-9.3 3-18 0.9-8.7-2.1-15.3-9.5l17.6-15q4.6 4.7 10.4 4.8 5.7 0.2 11.3-4.6 5.7-5 6.6-10.5 0.9-5.6-2.9-10-3.1-3.6-7.3-4.1-4.3-0.4-8.8 1.1-4.4 1.6-11.7 4.9-9.9 4.5-16.9 6.5-6.9 2-14.4 0.5-7.6-1.6-14.2-9.3-6.2-7.2-7.2-15.7-1-8.5 3.1-17 4-8.5 12.4-15.7 12.7-10.9 25.8-11.5 13.2-0.7 23.5 9.6l-18 15.5q-3.9-4-9.6-3.9-5.7 0.1-11.2 4.8-4.8 4.2-5.5 9.1-0.8 4.9 3.3 9.6 2.8 3.2 6.8 3.5 4 0.3 8.4-1.1 4.4-1.4 11.7-4.7 10-4.5 17-6.5 7-1.9 14.7-0.4 7.6 1.6 14.1 9.2 5.7 6.5 7.1 15 1.4 8.5-2.2 17.5-3.7 9-12.7 16.7-8.5 7.3-17.9 10.3z"/>
			<path id="&lt;Compound Path&gt;" fill-rule="evenodd" class="s11" d="m471.6 236.9l-36.6 22.3 4.6 21.2-19.4 11.8-23-112.1 21.5-13.1 89.1 71.9-19.5 11.9zm-14-11.7l-36.7-30.4 10.1 46.6z"/>
			<path id="&lt;Compound Path&gt;" class="s11" d="m558.8 138.6q-5.8-5-13.1-6.1-7.3-1-15.4 2.1-9 3.3-14.3 10-5.4 6.7-6.5 15.6-1 9 2.7 18.8 3.8 10.1 10.6 16.1 6.8 6 15.4 7.3 8.6 1.4 17.9-2.2 11.6-4.3 16.6-13.2 5-8.9 3.2-20.8l-34.6 13.1-5.8-15.4 54.4-20.6 6.7 17.6q2 11.3-1.3 22.7-3.2 11.5-11.6 20.8-8.4 9.4-21.4 14.3-14.6 5.5-28.8 3.4-14.2-2.1-25.4-11.3-11.1-9.1-16.7-24-5.6-14.8-3.4-29.1 2.3-14.3 11.6-25.3 9.2-11 23.6-16.4 17-6.5 32.7-2.9 15.7 3.5 26.1 16.7zm-24-39.7q-4 8.3-14.7 12.3-10.3 4-18.9 0.3-8.5-3.6-12.4-13.9l-1.1-2.9 10.6-4.1q1.9 4.9 5.6 6.4 3.7 1.5 10.4-1 6.8-2.6 8.6-6.2 1.8-3.5-0.1-8.4l10.8-4.1 1.2 3q3.9 10.4 0 18.6z"/>
			<path id="&lt;Compound Path&gt;" class="s11" d="m639.5 177.1l34.6-7.3 3.6 16.7-55.8 11.9-22.3-105.3 21.1-4.5z"/>
			<path id="&lt;Compound Path&gt;" class="s11" d="m696.3 76.5l12.7 106.8-21.4 2.6-12.7-106.8z"/>
			<path id="&lt;Compound Path&gt;" class="s11" d="m786 180.2l-39.9-47.3 0.8 47.9-21.6 0.3-1.7-107.5 21.5-0.4 0.8 48.3 38.4-48.9 26-0.4-43.5 54 46.5 53.5z"/>
			<path id="&lt;Compound Path&gt;" class="s11" d="m872.8 186.6q-8-5.6-11.6-13.8-3.7-8.2-1.7-17.9l22.6 4.9q-1 6.5 2.4 11.2 3.3 4.6 10.6 6.2 7.3 1.6 12.3-1.1 5-2.6 6.2-8.4 1-4.6-1.2-8.3-2.2-3.6-6.2-6.2-3.9-2.7-11-6.4-9.6-5.2-15.4-9.5-5.7-4.3-9.1-11.2-3.3-7-1.2-16.9 2-9.4 8.2-15.3 6.1-5.9 15.4-7.8 9.2-1.9 20 0.4 16.3 3.5 24.8 13.5 8.5 10.1 6.5 24.5l-23.2-4.9q0.9-5.5-2.7-10-3.5-4.4-10.6-6-6.2-1.3-10.5 1.1-4.4 2.4-5.7 8.4-0.9 4.2 1.3 7.6 2.2 3.4 6 6 3.7 2.6 10.8 6.5 9.6 5.2 15.4 9.6 5.9 4.4 9.3 11.4 3.3 7.1 1.3 16.8-1.8 8.5-7.8 14.8-5.9 6.3-15.2 8.8-9.4 2.5-21 0-11-2.3-19-8z"/>
			<path id="&lt;Compound Path&gt;" class="s11" d="m993.4 128.6l-9.3 25.3 34 12.5-5.9 16.1-34-12.5-9.8 26.8 38.3 14.1-6.1 16.4-58.6-21.5 37.2-101.1 58.6 21.5-6.1 16.5z"/>
			<path id="&lt;Compound Path&gt;" class="s11" d="m1094.2 277.1l-18.9-10.5-6.6-88.3-36 64.5-18.8-10.6 52.5-94 18.9 10.5 6.5 88.4 36.1-64.5 18.8 10.5z"/>
			<path id="&lt;Compound Path&gt;" fill-rule="evenodd" class="s11" d="m1222.9 250.9q5.7 13.3 3.3 27.2-2.3 13.9-12.6 26.4-10.3 12.5-23.4 17.3-13.2 4.9-27.3 1.8-14.1-3-27.2-13.8l-29-24 68.4-82.9 29 23.9q13.1 10.8 18.8 24.1zm-50 53.8q13-1.3 23.7-14.2 10.6-13 9.5-26.2-1.1-13.2-14.1-24l-11.8-9.7-45.2 54.8 11.8 9.7q13 10.8 26.1 9.6z"/>
			<path id="&lt;Compound Path&gt;" class="s11" d="m1279.1 297l-78 74.1-14.9-15.7 78.1-74zm-2.8-22.2q0.1-4.2 3.2-7.1 3.1-3 7.3-2.9 4.2 0 7.2 3.1 3 3.2 2.8 7.4-0.1 4.3-3.2 7.2-3.1 3-7.3 2.8-4.2-0.1-7.2-3.2-3-3.2-2.8-7.3z"/>
			<path id="&lt;Compound Path&gt;" class="s11" d="m1249.6 431.4l14.9-60.1-38.3 28.7-13-17.2 86-64.6 13 17.3-38.6 28.9 62.1 2.4 15.6 20.8-69.3-3.5-16 69.1z"/>
			<path id="&lt;Compound Path&gt;" fill-rule="evenodd" class="s11" d="m1318.5 509.8l-19.5-38.2-21.4 3.1-10.4-20.2 113.6-14.6 11.4 22.3-78.3 83.5-10.4-20.3zm12.7-13l33-34.4-47.2 6.6z"/>
			<path id="&lt;Compound Path&gt;" class="s11" d="m1323.9 569.6q0.9-9.8 6.2-16.9 5.4-7.2 14.7-10.4l7 22.1q-6.2 2.4-8.6 7.6-2.3 5.2-0.1 12.3 2.3 7.2 7 10.2 4.8 3 10.4 1.2 4.5-1.4 6.6-5.1 2-3.8 2.4-8.5 0.4-4.7 0.1-12.7-0.3-10.9 0.6-18.1 0.9-7.1 5.3-13.5 4.4-6.3 14.1-9.4 9.1-2.9 17.3-0.5 8.2 2.5 14.4 9.5 6.2 7.1 9.6 17.7 5 15.9 0.4 28.2-4.5 12.4-18 17.8l-7.2-22.6q5.2-2 7.3-7.3 2.1-5.3 0-12.2-2-6-6.2-8.6-4.2-2.6-10.1-0.8-4.1 1.4-6 4.9-1.8 3.6-2.2 8.2-0.4 4.6-0.3 12.6 0.2 10.9-0.7 18.2-0.9 7.2-5.3 13.7-4.5 6.4-14 9.4-8.2 2.6-16.6 0.6-8.5-2-15.3-8.9-6.8-6.9-10.3-18.2-3.5-10.7-2.5-20.5z"/>
			<path id="&lt;Compound Path&gt;" class="s11" d="m1450.7 640.2l-105.5 21.2-4.2-21.2 105.5-21.1z"/>
		</g>
		<g id="&lt;Group&gt;">
			<path id="&lt;Compound Path&gt;" class="s11" d="m102.1 829.9q1.7-4.6 5-7.5 3.4-2.8 8.1-3.1l0.7 9.8q-3.5 0.6-5.6 3.3-2.1 2.7-1.8 7.3 0.3 4.7 2.8 7.2 2.4 2.5 5.9 2.3 2.8-0.2 4.4-2 1.6-1.8 2.4-4.3 0.8-2.5 1.6-6.9 1-5.6 2.2-9.1 1.2-3.6 4.1-6.2 2.9-2.6 8.1-3 4.7-0.3 8.4 1.8 3.7 2.2 5.9 6.4 2.2 4.2 2.6 10 0.6 8.1-3 13.6-3.6 5.4-10.5 6.5l-0.7-10.2q2.9-0.4 4.9-3.2 1.9-2.8 1.6-7.2-0.3-3.9-2.4-6.3-2.2-2.3-5.9-2.1-2.5 0.2-4 1.9-1.5 1.7-2.3 4.2-0.7 2.4-1.6 6.7-1.1 5.7-2.3 9.3-1.3 3.6-4.2 6.2-2.9 2.7-8.1 3.1-4.2 0.3-8.1-1.8-3.9-2-6.4-6.2-2.6-4.2-3-10.2-0.4-5.6 1.2-10.3z"/>
			<path id="&lt;Compound Path&gt;" fill-rule="evenodd" class="s11" d="m120.5 904.1l-3.6-23.2-11.7-2.3-1.5-9.5 57.4 11.4 1.6 10.5-51.2 28.4-1.5-9.6zm6.9-3.7l23.8-12.9-26.6-5.2z"/>
			<path id="&lt;Compound Path&gt;" class="s11" d="m161.8 959.9q3.4-3.1 4.5-7.4 1-4.2-0.2-9.2-1.4-5.4-4.9-9-3.4-3.6-8.4-4.8-5-1.3-10.7 0.2-5.7 1.4-9.5 5-3.8 3.5-5.1 8.3-1.3 4.8 0.1 10.2 1.9 7.3 7 10.8 5.2 3.5 12.2 2.8l-5.2-20.4 6.9-1.8 7.7 29.9-6.8 1.8q-6.4 0.7-12.5-1.6-6.2-2.3-10.8-7.3-4.6-5-6.4-12.1-2-7.7-0.1-14.9 1.9-7.3 7.1-12.6 5.2-5.3 13-7.3 7.8-2 15 0.1 7.1 2.2 12.3 7.6 5.1 5.5 7 13.1 2.3 8.7-0.2 16.5-2.4 7.8-9.3 12.9zm20.2-12q-3.7-2.4-5.1-7.9-1.4-5.5 0.7-9.4 2.2-3.9 7-5.1l1.6-0.4 1.3 5.1q-2.8 0.7-3.8 2.5-1 1.9 0 5.5 0.9 3.7 2.7 4.8 1.8 1.2 4.5 0.5l1.3 5.1-1.6 0.4q-4.9 1.3-8.6-1.1z"/>
			<path id="&lt;Compound Path&gt;" class="s11" d="m140.7 998.7l6.2 17.9-6.9 2.4-9.1-26.7 51.9-17.8 3 8.7z"/>
			<path id="&lt;Compound Path&gt;" class="s11" d="m197.6 1015.1l-51 20.2-3.4-8.5 51.1-20.3z"/>
			<path id="&lt;Compound Path&gt;" class="s11" d="m164.5 1075.7l13.1-30-22.3 10.3-3.8-8.3 49.7-23.2 3.9 8.4-22.7 10.5 31.9 9.2 4.9 10.5-35.2-10.5-14.4 34z"/>
			<path id="&lt;Compound Path&gt;" class="s11" d="m256.8 1126.6l-57.8 10.9-5.6-9 35.6-46.9 5.1 8.4-30 38.2 47.6-9.9z"/>
			<path id="&lt;Compound Path&gt;" class="s11" d="m259.7 1142.4l-13 9.5 11.4 15.6-5.9 4.4-11.5-15.7-13.5 10 12.8 17.6-5.9 4.3-18.3-25 44.4-32.5 18.3 25-5.9 4.4z"/>
			<path id="&lt;Compound Path&gt;" class="s11" d="m262.2 1219.9q-1.6-4.6-0.7-8.9 0.9-4.3 4.5-7.5l6.6 7.3q-2.5 2.6-2.4 6 0 3.4 3 6.9 3.2 3.5 6.7 3.9 3.5 0.5 6.1-1.9 2-1.8 2.2-4.2 0.2-2.4-0.8-4.9-0.9-2.4-3-6.4-2.6-5-3.9-8.6-1.2-3.5-0.5-7.3 0.6-3.9 4.4-7.4 3.6-3.1 7.8-3.7 4.3-0.6 8.6 1.3 4.3 2 8.2 6.2 5.5 6.1 6 12.6 0.5 6.6-4.2 11.6l-6.9-7.5q2.1-2.2 1.9-5.6-0.2-3.4-3.1-6.6-2.7-3-5.8-3.5-3.2-0.5-5.9 2-1.9 1.7-2.1 3.9-0.1 2.3 0.8 4.7 0.9 2.4 2.9 6.3 2.7 5.1 3.9 8.7 1.3 3.6 0.6 7.6-0.7 3.9-4.5 7.4-3.1 2.8-7.4 3.6-4.3 0.8-8.9-1-4.7-1.7-8.7-6.2-3.8-4.1-5.4-8.8z"/>
			<path id="&lt;Compound Path&gt;" fill-rule="evenodd" class="s11" d="m300.3 1257.6q-2.4-7.1-0.8-14.4 1.6-7.4 7-13.3 5.5-5.9 12.7-8 7.1-2.1 14.4-0.2 7.3 1.8 13 7.1 5.8 5.4 8.2 12.5 2.4 7.1 0.8 14.4-1.5 7.3-7 13.2-5.5 5.9-12.6 8-7.2 2.2-14.5 0.3-7.2-1.8-13-7.2-5.8-5.3-8.2-12.4zm22.4 11.6q4.9 1.1 9.9-0.6 4.9-1.7 9.1-6.2 4.1-4.4 5.4-9.4 1.3-5.1-0.2-9.8-1.6-4.8-5.6-8.6-4.1-3.8-9-4.9-4.8-1.2-9.8 0.5-4.9 1.7-9 6.1-4.2 4.5-5.5 9.6-1.3 5 0.2 9.8 1.5 4.8 5.6 8.6 4.1 3.8 8.9 4.9z"/>
			<path id="&lt;Compound Path&gt;" class="s11" d="m346.1 1300q-2.4-4.3-2.3-8.7 0.2-4.4 3.1-8.1l7.8 6q-2 3-1.4 6.4 0.6 3.3 4.3 6.2 3.7 2.9 7.2 2.7 3.5-0.1 5.7-2.9 1.7-2.2 1.4-4.6-0.2-2.4-1.6-4.6-1.3-2.3-4.1-5.8-3.5-4.5-5.3-7.8-1.8-3.2-1.8-7.2 0-3.9 3.1-7.9 2.9-3.8 7-5.1 4.1-1.3 8.7-0.1 4.6 1.1 9.2 4.7 6.4 5 8.1 11.3 1.6 6.3-2.2 12.2l-8-6.3q1.6-2.5 0.8-5.8-0.8-3.3-4.2-6-3.1-2.4-6.3-2.4-3.2 0-5.5 3-1.5 2-1.3 4.2 0.3 2.3 1.6 4.5 1.3 2.2 4 5.7 3.4 4.6 5.3 7.9 1.8 3.3 1.9 7.3 0 4-3.2 8.1-2.6 3.3-6.7 4.8-4 1.6-8.9 0.6-4.9-0.9-9.6-4.5-4.4-3.5-6.8-7.8z"/>
			<path id="&lt;Compound Path&gt;" class="s11" d="m443.8 1303.7l-34.8 19-10.9 16.6-7.7-5.1 11-16.6 3.8-39.5 8.5 5.7-4 29.6 25.7-15.3z"/>
			<path id="&lt;Compound Path&gt;" fill-rule="evenodd" class="s11" d="m456.5 1360.8l-20.6-11.4-8.9 7.9-8.4-4.6 44.1-38.5 9.3 5.1-8.9 57.9-8.5-4.7zm1.3-7.7l4.3-26.7-20.3 17.9z"/>
			<path id="&lt;Compound Path&gt;" class="s11" d="m483.9 1378.7l17.2 7.9-3 6.6-25.6-11.8 23-49.8 8.4 3.8z"/>
			<path id="&lt;Compound Path&gt;" class="s11" d="m586.5 1367.5l-17.8 51.9-8.7-3 7.8-22.7-25-8.5-7.8 22.7-8.7-3 17.8-52 8.7 3-7.6 22.3 25 8.6 7.6-22.3z"/>
			<path id="&lt;Compound Path&gt;" class="s11" d="m605.1 1372.4l-14.6 52.9-8.9-2.5 14.6-52.9zm-5.9-8.8q-0.9-1.7-0.4-3.6 0.5-1.9 2.2-2.9 1.8-0.9 3.7-0.4 2 0.6 2.9 2.3 1 1.7 0.5 3.6-0.5 1.9-2.2 2.8-1.8 1-3.7 0.5-2-0.6-3-2.3z"/>
			<path id="&lt;Compound Path&gt;" class="s11" d="m613.4 1423l25.4 5.7-1.7 7.6-36.1-8 1.6-6.9 34.1-33.4-25.4-5.7 1.7-7.6 36.1 8.1-1.5 6.8z"/>
			<path id="&lt;Compound Path&gt;" class="s11" d="m714.9 1392.2l-7.2 54.5-9.1-1.2 4.9-37.3-21.8 35-6.4-0.8-12.1-39.5-4.9 37.3-9.1-1.2 7.1-54.5 9.9 1.3 13.9 45.3 25-40.1z"/>
			<path id="&lt;Compound Path&gt;" class="s11" d="m733.3 1400.1l-0.7 16.1 19.3 0.9-0.3 7.3-19.3-0.8-0.8 16.8 21.8 1-0.4 7.3-30.9-1.4 2.4-54.9 31 1.4-0.3 7.3z"/>
			<path id="&lt;Compound Path&gt;" class="s11" d="m800.5 1393.3l0.1 7.3-14.9 0.3 0.9 47.6-9.2 0.1-0.9-47.5-15 0.3-0.2-7.4z"/>
			<path id="&lt;Compound Path&gt;" class="s11" d="m866.9 1432.1q3.6-2.6 5.2-7.2l11-1.5q-2 7.6-7.5 12.6-5.5 5-13.4 6.7l0.4 3.4q4.6-0.7 7.8 1.1 3.2 1.8 3.7 5.7 0.5 3.9-2.1 6.6-2.5 2.7-6.9 3.3l-10.6 1.4-0.7-5.7 8.7-1.1q2.2-0.3 3.3-1.1 1-0.8 0.8-2.4-0.2-1.6-1.5-2.1-1.2-0.5-3.4-0.2l-4.4 0.6-1.2-8.8q-7.1 0.2-13.3-2.7-6.3-2.9-10.4-8.5-4.1-5.7-5.1-13.1-1.1-8 1.9-14.8 2.9-6.9 9-11.3 6-4.4 13.8-5.5 8.9-1.1 16.4 2.2 7.4 3.4 11.6 10.8l-11 1.4q-2.7-4-6.8-5.6-4.1-1.6-9.2-0.9-5.5 0.7-9.5 3.7-4 3-5.8 7.9-1.9 4.8-1.1 10.9 0.8 6 3.9 10.2 3 4.2 7.7 6.1 4.6 1.9 10.1 1.2 5.1-0.7 8.6-3.3z"/>
			<path id="&lt;Compound Path&gt;" fill-rule="evenodd" class="s11" d="m928.5 1418.3l-22.9 5.2-1.5 11.9-9.4 2.1 7.5-58.1 10.4-2.3 31.7 49.2-9.4 2.1zm-4.2-6.6l-14.5-22.9-3.3 26.9z"/>
			<path id="&lt;Compound Path&gt;" class="s11" d="m960.9 1413.6l18.1-5.5 2.1 6.9-26.9 8.2-15.9-52.6 8.8-2.7z"/>
			<path id="&lt;Compound Path&gt;" class="s11" d="m979.5 1357.4l18.1 51.8-8.6 3-18.2-51.8z"/>
			<path id="&lt;Compound Path&gt;" class="s11" d="m1040.1 1383.5q-0.4 3.9-2.9 7.4-2.4 3.5-6.8 6l1.5 3.7q4.3-1.8 7.8-0.9 3.5 0.9 5 4.6 1.5 3.6-0.3 6.9-1.8 3.2-5.9 4.9l-9.8 4.1-2.2-5.3 8.1-3.3q2.1-0.9 2.9-1.9 0.8-1 0.2-2.5-0.6-1.6-1.9-1.7-1.3-0.2-3.4 0.7l-4.1 1.7-3.5-8.7q-7.3 2.3-13.3 0.3-6-2.1-8.5-8.2l9.1-3.7q1.7 3.2 4.9 4.3 3.2 1.2 7.5-0.6 4.4-1.8 6-4.9 1.6-3.1 0.2-6.4-1-2.5-3.2-3.5-2.2-1-4.8-0.9-2.7 0-7.1 0.7-5.6 0.7-9.4 0.7-3.7 0-7.1-2-3.4-1.9-5.4-6.7-1.8-4.3-0.9-8.5 0.9-4.3 4.2-7.7 3.3-3.4 8.6-5.6 7.6-3.1 13.9-1.3 6.3 1.7 9.5 7.9l-9.4 3.8q-1.4-2.6-4.6-3.6-3.3-1-7.3 0.7-3.7 1.5-5.3 4.3-1.5 2.8-0.1 6.2 0.9 2.3 3 3.2 2.1 0.9 4.7 0.9 2.6-0.1 6.9-0.6 5.7-0.8 9.5-0.7 3.8 0 7.3 2 3.5 1.9 5.5 6.8 1.4 3.5 0.9 7.4z"/>
			<path id="&lt;Compound Path&gt;" fill-rule="evenodd" class="s11" d="m1081.8 1359.9l-20.9 10.6 1.5 11.8-8.6 4.4-7-58.1 9.5-4.9 42.8 39.9-8.6 4.4zm-5.6-5.4l-19.7-18.6 3.3 27z"/>
			<path id="&lt;Compound Path&gt;" class="s11" d="m1147.7 1333.7l-7.8 4.8-45.3-20 21.8 34.7-7.8 4.9-29.2-46.6 7.8-4.9 45.2 20-21.7-34.6 7.8-4.9z"/>
			<path id="&lt;Compound Path&gt;" class="s11" d="m1162 1314.3l15.3-11.2 4.3 5.9-22.8 16.6-32.4-44.3 7.4-5.4z"/>
			<path id="&lt;Compound Path&gt;" fill-rule="evenodd" class="s11" d="m1207.5 1273l-17.9 15.1 4.2 11.2-7.4 6.2-20.2-54.9 8.1-6.9 50.9 28.9-7.4 6.3zm-6.7-3.9l-23.4-13.6 9.4 25.4z"/>
			<path id="&lt;Compound Path&gt;" fill-rule="evenodd" class="s11" d="m1253.6 1244.5l-24.7-6.3-5 4.9 15.6 15.5-6.5 6.5-38.9-38.7 13.7-13.7q4.5-4.6 9.3-6.2 4.7-1.6 8.9-0.6 4.2 1.1 7.4 4.3 3.8 3.8 4.7 9.1 0.8 5.4-2.7 11.2l25.9 6.2zm-34.7-6.4l7.2-7.2q3.6-3.7 3.7-7.3 0-3.7-3-6.7-3-3-6.5-2.9-3.6 0.2-7.3 3.9l-7.1 7.2z"/>
			<path id="&lt;Compound Path&gt;" class="s11" d="m1234.3 1184.3l41 36.6-6.1 6.8-41-36.5z"/>
			<path id="&lt;Compound Path&gt;" class="s11" d="m1301.4 1187.1q-4.2 2.4-8.6 2.4-4.4-0.1-8.2-2.9l5.9-7.9q3 1.9 6.4 1.2 3.3-0.7 6.1-4.4 2.8-3.8 2.6-7.3-0.2-3.4-3.1-5.6-2.2-1.6-4.6-1.3-2.3 0.2-4.6 1.7-2.2 1.4-5.7 4.2-4.4 3.5-7.6 5.4-3.3 1.9-7.2 2-3.9 0.1-8-3-3.8-2.8-5.2-6.9-1.4-4.1-0.3-8.7 1.1-4.6 4.5-9.2 4.9-6.5 11.2-8.3 6.3-1.8 12.2 1.9l-6.1 8.1q-2.5-1.6-5.8-0.7-3.3 0.9-6 4.4-2.3 3.1-2.2 6.3 0.1 3.2 3 5.4 2.1 1.5 4.3 1.2 2.2-0.3 4.4-1.6 2.3-1.4 5.7-4.1 4.5-3.6 7.8-5.5 3.3-1.9 7.3-2 3.9-0.1 8.1 3 3.4 2.5 5 6.6 1.6 4 0.7 8.9-0.8 4.9-4.4 9.7-3.3 4.5-7.6 7z"/>
			<path id="&lt;Compound Path&gt;" class="s11" d="m1292 1120.4l13.6 8.7 10.4-16.3 6.2 3.9-10.4 16.3 14.2 9.1 11.7-18.4 6.2 4-16.7 26.1-46.3-29.6 16.7-26.1 6.2 3.9z"/>
			<path id="&lt;Compound Path&gt;" class="s11" d="m1372.4 1075.7l-4.3 8.2-49.2 5.2 36.2 19.2-4.3 8.1-48.5-25.8 4.3-8.1 49.1-5.2-36.1-19.2 4.3-8.2z"/>
			<path id="&lt;Compound Path&gt;" fill-rule="evenodd" class="s11" d="m1344.2 1011.4q5.7-5 12.9-5.9 7.2-1 14.9 2.2 7.7 3.3 12 9 4.3 5.8 4.7 13.3 0.4 7.5-3 15.7l-7.1 16.9-50.6-21.1 7-16.9q3.5-8.3 9.2-13.2zm35.7 15.6q-2.8-6.9-11.5-10.6-8.8-3.6-15.8-0.9-7 2.8-10.8 11.9l-3.5 8.4 37.1 15.5 3.5-8.4q3.8-9.1 1-15.9z"/>
			<path id="&lt;Compound Path&gt;" class="s11" d="m1342.2 987q-1.7 0.8-3.6 0.2-1.9-0.6-2.7-2.4-0.9-1.8-0.2-3.7 0.6-1.9 2.4-2.8 1.8-0.9 3.6-0.3 1.9 0.7 2.8 2.5 0.8 1.8 0.1 3.7-0.6 1.9-2.4 2.8zm9.2-5.4l51.9 17.9-3 8.7-51.9-17.9z"/>
			<path id="&lt;Compound Path&gt;" class="s11" d="m1416 957.2l-29.5 14.3 23.6 6.6-2.4 8.9-52.9-14.9 2.5-8.8 24.1 6.8-18.2-27.8 3.1-11.1 19.9 30.9 33.1-16.5z"/>
			<path id="&lt;Compound Path&gt;" fill-rule="evenodd" class="s11" d="m1416.8 900.3l-4.4 23.1 10.3 6-1.8 9.4-50.3-29.9 2-10.5 57.8-9.5-1.8 9.5zm-7.7 1.2l-26.8 4.2 23.4 13.8z"/>
			<path id="&lt;Compound Path&gt;" class="s11" d="m1431.1 869.7q-2.4 4.3-6.2 6.5-3.8 2.2-8.5 1.7l1-9.8q3.5 0.1 6.1-2.2 2.5-2.3 3-6.9 0.5-4.7-1.5-7.6-2-2.9-5.5-3.2-2.8-0.3-4.7 1.1-1.9 1.5-3.1 3.9-1.2 2.3-2.7 6.5-2 5.4-3.8 8.6-1.8 3.3-5.1 5.4-3.3 2.1-8.4 1.6-4.7-0.5-8-3.3-3.3-2.7-4.7-7.3-1.5-4.5-0.9-10.2 0.8-8.1 5.3-12.9 4.5-4.8 11.5-4.6l-1 10.1q-3.1-0.1-5.4 2.4-2.4 2.4-2.9 6.7-0.4 4 1.3 6.7 1.7 2.7 5.4 3 2.6 0.3 4.3-1.1 1.8-1.4 3-3.7 1.2-2.4 2.7-6.4 2.1-5.4 3.9-8.7 1.8-3.4 5.2-5.5 3.4-2.2 8.5-1.6 4.2 0.4 7.7 3.1 3.4 2.6 5.2 7.2 1.8 4.6 1.2 10.6-0.5 5.6-2.9 9.9z"/>
			<path id="&lt;Compound Path&gt;" class="s11" d="m1381.4 816.8l54.9 2.5-0.4 9.1-54.9-2.4z"/>
		</g>
		<path id="&lt;Path&gt;" class="s11" d="m143.9 730.7c0 12.1-9.8 21.9-21.9 21.9-12.2 0-22-9.8-22-21.9 0-12.1 9.8-22 22-22 12.1 0 21.9 9.9 21.9 22z"/>
		<path id="&lt;Path&gt;" class="s11" d="m1436.6 730.7c0 12.1-9.8 21.9-21.9 21.9-12.2 0-22-9.8-22-21.9 0-12.1 9.8-22 22-22 12.1 0 21.9 9.9 21.9 22z"/>
		<g id="&lt;Group&gt;">
			<path id="&lt;Compound Path&gt;" fill-rule="evenodd" class="s0" d="m449.2 520.9q-4.6-2.8-7.3-7.6-2.8-4.9-2.8-11 0-6.1 2.8-11 2.7-4.8 7.3-7.6 4.7-2.7 10.3-2.7 5.7 0 10.4 2.7 4.6 2.8 7.3 7.6 2.7 4.9 2.7 11 0 6.2-2.7 11-2.7 4.8-7.3 7.6-4.7 2.7-10.4 2.7-5.6 0-10.3-2.7zm18-4.1q3.4-2 5.3-5.8 2-3.7 2-8.7 0-5-2-8.7-1.9-3.8-5.3-5.8-3.4-2-7.7-2-4.3 0-7.7 2-3.3 2-5.3 5.8-1.9 3.7-1.9 8.7 0 5 1.9 8.7 2 3.8 5.4 5.8 3.4 2.1 7.6 2.1 4.3 0 7.7-2.1zm-14.4-40.4q-0.9-0.9-0.9-2.2 0-1.3 0.9-2.2 0.9-1 2.2-1 1.2 0 2.1 1 0.9 0.9 0.9 2.2 0 1.3-0.9 2.2-0.9 0.9-2.1 0.9-1.3 0-2.2-0.9zm9.5 0q-0.9-0.9-0.9-2.2 0-1.3 0.9-2.2 0.8-1 2.1-1 1.3 0 2.2 1 0.9 0.9 0.9 2.2 0 1.3-0.9 2.2-0.9 0.9-2.2 0.9-1.3 0-2.1-0.9z"/>
			<path id="&lt;Compound Path&gt;" class="s0" d="m510.4 493.4q3.6 3.6 3.6 10.5v19.3h-5.2v-18.6q0-4.9-2.4-7.5-2.4-2.6-6.5-2.6-4.2 0-6.7 2.7-2.5 2.7-2.5 7.9v18.1h-5.3v-32.8h5.3v4.7q1.6-2.5 4.3-3.9 2.7-1.4 6-1.4 5.8 0 9.4 3.6z"/>
			<path id="&lt;Compound Path&gt;" class="s0" d="m521.2 497.9q2-3.8 5.5-5.9 3.5-2.1 8.1-2.1 5.9 0 9.7 2.9 3.8 2.9 5 8.1h-5.7q-0.8-3-3.2-4.7-2.3-1.7-5.8-1.7-4.6 0-7.4 3.2-2.7 3.2-2.7 9 0 5.9 2.7 9.2 2.8 3.2 7.4 3.2 3.5 0 5.8-1.7 2.3-1.6 3.2-4.8h5.7q-1.3 5.1-5.1 8.1-3.9 3-9.6 3-4.6 0-8.1-2.1-3.5-2.1-5.5-5.9-2-3.8-2-9 0-5 2-8.8z"/>
			<path id="&lt;Compound Path&gt;" fill-rule="evenodd" class="s0" d="m584 508.8h-25.5q0.3 4.9 3.3 7.6 2.9 2.7 7.1 2.7 3.4 0 5.7-1.6 2.3-1.7 3.3-4.4h5.7q-1.3 4.7-5.2 7.6-3.8 3-9.5 3-4.5 0-8.1-2.1-3.6-2.1-5.6-5.9-2.1-3.9-2.1-9 0-5 2-8.9 2-3.8 5.6-5.9 3.5-2 8.2-2 4.5 0 8 2 3.5 2 5.4 5.6 1.9 3.6 1.9 8 0 1.6-0.2 3.3zm-6.6-9.7q-1.3-2.3-3.6-3.5-2.3-1.1-5.1-1.1-4.1 0-6.9 2.6-2.8 2.6-3.2 7.3h20.1q0-3.1-1.3-5.3z"/>
			<path id="&lt;Compound Path&gt;" class="s0" d="m603.9 491q2.6-4.8 7.3-7.6 4.7-2.7 10.6-2.7 7.3 0 12.5 4 5.1 3.9 6.9 10.7h-11q-1.2-2.6-3.4-4-2.3-1.3-5.1-1.3-4.6 0-7.5 3.2-2.8 3.3-2.8 8.8 0 5.5 2.8 8.8 2.9 3.3 7.5 3.3 2.8 0 5.1-1.4 2.2-1.3 3.4-4h11q-1.8 6.8-6.9 10.8-5.2 3.9-12.5 3.9-5.9 0-10.6-2.8-4.7-2.7-7.3-7.5-2.6-4.9-2.6-11.1 0-6.2 2.6-11.1z"/>
			<path id="&lt;Compound Path&gt;" fill-rule="evenodd" class="s0" d="m671.3 515.8h-15.3l-2.4 7.4h-10.4l14.7-42h11.6l14.8 42h-10.6zm-2.5-7.9l-5.1-15.4-5 15.4z"/>
			<path id="&lt;Compound Path&gt;" class="s0" d="m723.8 523.2h-9.9l-16.7-25.9v25.9h-9.9v-42h9.9l16.7 26v-26h9.9z"/>
			<path id="&lt;Compound Path&gt;" fill-rule="evenodd" class="s0" d="m752.7 520.9q-4.7-2.8-7.4-7.6-2.7-4.9-2.7-11 0-6.1 2.7-11 2.7-4.8 7.4-7.6 4.6-2.7 10.3-2.7 5.7 0 10.3 2.7 4.7 2.8 7.3 7.6 2.7 4.9 2.7 11 0 6.2-2.7 11-2.6 4.8-7.3 7.6-4.6 2.7-10.3 2.7-5.7 0-10.3-2.7zm17.9-4.1q3.4-2 5.4-5.8 1.9-3.7 1.9-8.7 0-5-1.9-8.7-2-3.8-5.4-5.8-3.3-2-7.6-2-4.4 0-7.7 2-3.4 2-5.4 5.8-1.9 3.7-1.9 8.7 0 5 1.9 8.7 2 3.8 5.4 5.8 3.4 2.1 7.7 2.1 4.2 0 7.6-2.1zm-14.4-40.4q-0.9-0.9-0.9-2.2 0-1.3 0.9-2.2 0.9-1 2.2-1 1.2 0 2.1 1 0.9 0.9 0.9 2.2 0 1.3-0.9 2.2-0.9 0.9-2.1 0.9-1.3 0-2.2-0.9zm9.5 0q-0.9-0.9-0.9-2.2 0-1.3 0.9-2.2 0.9-1 2.1-1 1.3 0 2.2 1 0.9 0.9 0.9 2.2 0 1.3-0.9 2.2-0.9 0.9-2.2 0.9-1.2 0-2.1-0.9z"/>
			<path id="&lt;Compound Path&gt;" class="s0" d="m813.8 493.4q3.6 3.6 3.6 10.5v19.3h-5.2v-18.6q0-4.9-2.4-7.5-2.4-2.6-6.5-2.6-4.2 0-6.7 2.7-2.4 2.7-2.4 7.9v18.1h-5.3v-32.8h5.3v4.7q1.5-2.5 4.2-3.9 2.7-1.4 6-1.4 5.8 0 9.4 3.6z"/>
			<path id="&lt;Compound Path&gt;" class="s0" d="m824.7 497.9q1.9-3.8 5.5-5.9 3.5-2.1 8-2.1 5.9 0 9.7 2.9 3.8 2.9 5 8.1h-5.7q-0.8-3-3.1-4.7-2.4-1.7-5.9-1.7-4.5 0-7.3 3.2-2.8 3.2-2.8 9 0 5.9 2.8 9.2 2.8 3.2 7.3 3.2 3.5 0 5.8-1.7 2.4-1.6 3.2-4.8h5.7q-1.2 5.1-5.1 8.1-3.8 3-9.6 3-4.5 0-8-2.1-3.6-2.1-5.5-5.9-2-3.8-2-9 0-5 2-8.8z"/>
			<path id="&lt;Compound Path&gt;" fill-rule="evenodd" class="s0" d="m887.5 508.8h-25.5q0.3 4.9 3.2 7.6 2.9 2.7 7.1 2.7 3.5 0 5.8-1.6 2.3-1.7 3.2-4.4h5.7q-1.3 4.7-5.1 7.6-3.9 3-9.6 3-4.5 0-8.1-2.1-3.6-2.1-5.6-5.9-2-3.9-2-9 0-5 1.9-8.9 2-3.8 5.6-5.9 3.6-2 8.2-2 4.6 0 8.1 2 3.5 2 5.3 5.6 1.9 3.6 1.9 8 0 1.6-0.1 3.3zm-6.7-9.7q-1.3-2.3-3.6-3.5-2.3-1.1-5.1-1.1-4 0-6.8 2.6-2.9 2.6-3.3 7.3h20.2q0-3.1-1.4-5.3z"/>
			<path id="&lt;Compound Path&gt;" class="s0" d="m913.2 522.1q-3.4-1.5-5.4-4.3-2-2.8-2.1-6.6h8.8q0.1 2.5 1.7 4 1.6 1.5 4.4 1.5 2.9 0 4.5-1.4 1.6-1.4 1.7-3.7-0.1-1.8-1.2-3-1.1-1.2-2.7-1.9-1.7-0.7-4.6-1.5-3.9-1.2-6.4-2.4-2.5-1.1-4.3-3.5-1.7-2.4-1.7-6.3 0-3.7 1.8-6.5 1.8-2.7 5-4.2 3.3-1.5 7.5-1.5 6.3 0 10.2 3.2 3.9 3.1 4.3 8.7h-8.9q-0.2-2.1-1.8-3.5-1.7-1.4-4.4-1.4-2.4 0-3.8 1.2-1.4 1.3-1.4 3.7 0 1.7 1 2.8 1.1 1.1 2.7 1.8 1.6 0.6 4.5 1.5 4 1.2 6.5 2.4 2.5 1.2 4.3 3.6 1.8 2.4 1.8 6.3 0 3.3-1.7 6.2-1.7 2.9-4.9 4.6-3.3 1.7-7.8 1.7-4.2 0-7.6-1.5z"/>
			<path id="&lt;Compound Path&gt;" fill-rule="evenodd" class="s0" d="m965.7 515.2h-16.2l-2.7 8h-8.5l14.6-41.8h9.5l14.6 41.8h-8.6zm-2.2-6.7l-5.9-17.5-5.9 17.5z"/>
			<path id="&lt;Compound Path&gt;" class="s0" d="m1009.3 494q-1.4-2.6-3.9-4-2.4-1.4-5.7-1.4-3.6 0-6.4 1.7-2.8 1.7-4.3 4.8-1.6 3.1-1.6 7.1 0 4.2 1.6 7.3 1.6 3.1 4.5 4.8 2.8 1.7 6.6 1.7 4.6 0 7.6-2.5 3-2.6 3.9-7.1h-14v-6.4h22v7.3q-0.8 4.3-3.4 8-2.7 3.7-6.9 6-4.3 2.2-9.5 2.2-5.9 0-10.6-2.7-4.8-2.7-7.5-7.6-2.7-4.8-2.7-11 0-6.1 2.7-11 2.7-4.9 7.5-7.6 4.7-2.7 10.5-2.7 6.9 0 12 3.4 5 3.5 7 9.7zm-3.2-17.7q-2.5 2.5-6.9 2.5-4.1 0-6.7-2.5-2.5-2.5-2.5-6.8v-1.2h4.3q0 2 1.1 3.1 1.1 1 3.8 1 2.8 0 3.9-1 1.1-1.1 1.1-3.1h4.4v1.3q0 4.3-2.5 6.7z"/>
			<path id="&lt;Compound Path&gt;" class="s0" d="m1032.4 516.5h13.4v6.7h-21.6v-41.8h8.2z"/>
			<path id="&lt;Compound Path&gt;" class="s0" d="m1057.7 481.4v41.8h-8.2v-41.8z"/>
			<path id="&lt;Compound Path&gt;" class="s0" d="m1087.2 523.2l-14.8-18.6v18.6h-8.2v-41.8h8.2v18.8l14.8-18.8h9.8l-16.8 20.7 17.3 21.1z"/>
		</g>
		<g id="&lt;Group&gt;">
			<path id="&lt;Path&gt;" class="s0" d="m807.8 353.2l10.3 14.1 16.6-5.3-10.3 14.1 10.2 14.1-16.5-5.4-10.3 14.1v-17.4l-16.6-5.4 16.6-5.5z"/>
			<path id="&lt;Path&gt;" class="s0" d="m763.8 415.8c-22 0-39.7-17.8-39.7-39.7 0-22 17.7-39.7 39.7-39.7 14.8 0 27.7 8.1 34.5 20.1-7.6-18-25.4-30.6-46.2-30.6-27.7 0-50.1 22.5-50.1 50.2 0 27.7 22.4 50.1 50.1 50.1 20.8 0 38.6-12.6 46.2-30.5-6.8 12-19.7 20.1-34.5 20.1z"/>
		</g>
		<g id="&lt;Group&gt;">
			<g id="&lt;Group&gt;">
				<g id="&lt;Group&gt;">
					<path id="&lt;Path&gt;" class="s0" d="m647.7 1132.4c-4.2 0-7.9-0.9-11.2-2.8-3.3-1.8-5.9-4.5-7.7-7.8-1.8-3.3-2.8-7.1-2.8-11.3 0-4.1 1-7.9 2.8-11.3 1.8-3.3 4.4-5.9 7.7-7.8 3.3-1.8 7-2.8 11.2-2.8 5 0 9.4 1.4 13.1 4.1 3.6 2.7 6.1 6.4 7.3 11.1l0.5 1.9h-13.6l-0.4-0.9c-0.7-1.4-1.6-2.4-2.8-3.2-1.3-0.7-2.6-1.1-4.2-1.1-2.6 0-4.6 0.9-6.2 2.7-1.6 1.8-2.4 4.2-2.4 7.3 0 3.2 0.8 5.6 2.4 7.4 1.6 1.8 3.6 2.7 6.2 2.7 1.6 0 2.9-0.4 4.2-1.1 1.2-0.8 2.1-1.8 2.8-3.2l0.4-0.9h13.6l-0.5 1.9c-1.2 4.7-3.7 8.4-7.3 11.1-3.7 2.6-8.1 4-13.1 4z"/>
					<path id="&lt;Compound Path&gt;" fill-rule="evenodd" class="s12" d="m661.7 1091.5c3.9 2.9 6.5 6.9 7.9 11.9l0.9 3.8h-16.5l-0.8-1.7q-0.8-1.7-2.2-2.6c-1-0.6-2.1-0.9-3.4-0.9-2.2 0-3.8 0.7-5.1 2.2-1.4 1.5-2 3.6-2 6.3 0 2.8 0.6 4.9 2 6.4 1.3 1.5 2.9 2.2 5.1 2.2 1.3 0 2.4-0.3 3.4-0.9q1.4-0.9 2.2-2.6l0.8-1.7h16.5l-0.9 3.8c-1.4 5-4 9-8 11.9-3.8 2.8-8.5 4.3-13.9 4.3-4.4 0-8.4-1-11.9-3-3.5-2-6.3-4.8-8.3-8.4-2-3.5-3-7.5-3-12 0-4.4 1-8.4 3-12 2-3.6 4.8-6.4 8.3-8.4 3.5-2 7.5-3 11.9-3 5.4 0 10.1 1.5 14 4.4zm-24.4 1.2q-4.6 2.6-7.2 7.3-2.6 4.6-2.6 10.5 0 6 2.6 10.6 2.6 4.6 7.2 7.2 4.6 2.6 10.4 2.6 7.1 0 12.2-3.7 5-3.8 6.8-10.3h-10.8q-1.2 2.5-3.4 3.8-2.2 1.4-4.9 1.4-4.5 0-7.3-3.2-2.8-3.1-2.8-8.4 0-5.2 2.8-8.3 2.8-3.2 7.3-3.2 2.7 0 4.9 1.3 2.2 1.4 3.4 3.9h10.8q-1.8-6.5-6.8-10.3-5.1-3.8-12.2-3.8-5.8 0-10.4 2.6z"/>
				</g>
				<g id="&lt;Group&gt;">
					<path id="&lt;Compound Path&gt;" fill-rule="evenodd" class="s0" d="m708.8 1132.1l-2.4-7.1h-12.7l-2.4 7.1h-13.4l15.5-43h13.4l15.6 43zm-5.9-17.6l-2.9-8.4-2.8 8.4z"/>
					<path id="&lt;Compound Path&gt;" fill-rule="evenodd" class="s12" d="m708.6 1089.6l14.5 40 1.4 4h-16.7l-0.7-2-1.7-5.1h-10.7l-1.7 5.1-0.7 2h-16.6l1.5-4 14.4-40 0.8-2h15.5zm-14.1 1l-14.5 40h10.2l2.4-7h14.9l2.4 7h10.3l-14.5-40zm5.6 10.8l5 14.6h-9.9zm0.8 11.7l-0.8-2.3-0.7 2.3z"/>
				</g>
				<g id="&lt;Group&gt;">
					<path id="&lt;Path&gt;" class="s0" d="m759.8 1132.1l-14-21.2v21.2h-12.7v-43h12.1l13.9 21.3v-21.3h12.8v43z"/>
					<path id="&lt;Compound Path&gt;" fill-rule="evenodd" class="s12" d="m773.4 1133.6h-14.4l-0.9-1.3-10.8-16.4v17.7h-15.7v-46h14.4l0.8 1.3 10.8 16.5v-17.8h15.8zm-12.8-43v24.8l-16.3-24.8h-9.7v40h9.7v-24.7l16.3 24.7h9.8v-40z"/>
				</g>
				<g id="&lt;Group&gt;">
					<path id="&lt;Path&gt;" class="s0" d="m801.9 1132.5c-3.1 0-5.9-0.5-8.4-1.5-2.6-1.1-4.7-2.7-6.2-4.7-1.6-2.1-2.4-4.7-2.5-7.6l-0.1-1.6h13.3l0.2 1.4q0.1 1.6 1 2.4 0.9 0.8 2.4 0.8 1.7 0 2.5-0.7c0.5-0.3 0.7-0.8 0.7-1.6 0-0.5-0.2-1-0.5-1.3q-0.8-0.8-2-1.3-1.4-0.6-4-1.4-4-1.2-6.6-2.5-2.7-1.3-4.7-4c-1.4-1.8-2.1-4.1-2.1-7 0-4.2 1.6-7.5 4.6-9.9 3-2.3 6.8-3.5 11.5-3.5 4.7 0 8.6 1.2 11.6 3.5 3 2.4 4.7 5.7 4.9 9.9l0.1 1.6h-13.6l-0.1-1.4c0-0.9-0.3-1.5-0.8-2q-0.9-0.8-2.4-0.8-1.3 0-1.9 0.6c-0.3 0.2-0.6 0.6-0.6 1.6 0 0.5 0.2 1.1 1.1 1.7q1.7 1 5.4 2.2 4 1.4 6.5 2.6 2.7 1.4 4.7 3.9c1.4 1.8 2.1 4.1 2.1 6.8 0 2.6-0.7 4.9-2 7-1.3 2.1-3.2 3.8-5.6 5-2.4 1.2-5.3 1.8-8.5 1.8z"/>
					<path id="&lt;Compound Path&gt;" fill-rule="evenodd" class="s12" d="m813.5 1090.8c3.4 2.7 5.3 6.4 5.5 11l0.1 3.2h-11.1q2.2 0.8 3.9 1.7 3 1.5 5.2 4.3c1.6 2 2.4 4.6 2.4 7.7 0 2.8-0.7 5.5-2.2 7.8-1.4 2.3-3.5 4.2-6.2 5.5-2.6 1.3-5.7 2-9.2 2-3.3 0-6.3-0.5-9-1.6-2.8-1.2-5.1-2.9-6.8-5.2-1.8-2.4-2.7-5.2-2.8-8.5l-0.1-3.1h11.1q-1.8-0.6-3.2-1.3c-2.1-1-3.9-2.5-5.3-4.5-1.6-2-2.4-4.7-2.4-7.9 0-4.6 1.8-8.4 5.2-11.1 3.2-2.5 7.4-3.8 12.4-3.8 5.1 0 9.3 1.3 12.5 3.8zm-23 2.4q-4.1 3.2-4.1 8.7 0 3.8 1.8 6.1 1.7 2.4 4.2 3.6 2.4 1.2 6.3 2.4 2.7 0.8 4.2 1.4 1.4 0.6 2.4 1.6 1 1 1 2.4 0 1.8-1.3 2.8-1.2 1-3.4 1-2.1 0-3.4-1.2-1.3-1.1-1.5-3.4h-10.4q0.1 4 2.2 6.8 2.1 2.8 5.5 4.2 3.5 1.4 7.9 1.4 4.5 0 7.8-1.6 3.3-1.7 5.1-4.5 1.7-2.8 1.7-6.2 0-3.6-1.8-5.9-1.7-2.3-4.2-3.4-2.4-1.2-6.3-2.6-3.8-1.2-5.7-2.3-1.8-1.1-1.8-3 0-1.8 1.1-2.7 1.1-1 2.9-1 2 0 3.3 1.1 1.3 1.2 1.4 3.1h10.6q-0.3-5.6-4.3-8.8-4.1-3.2-10.7-3.2-6.5 0-10.5 3.2zm12 9c-0.1-0.7-0.3-0.9-0.4-1-0.2-0.1-0.6-0.4-1.4-0.4-0.3 0-0.7 0.1-0.9 0.2 0 0-0.1 0.1-0.1 0.5 0 0.1 0 0.2 0.4 0.4 0.4 0.3 1.2 0.7 2.4 1.1zm0.7 17.7c0.1 0 0.2-0.1 0.2-0.4 0-0.2-0.1-0.2-0.1-0.3q-0.6-0.6-1.6-1-0.8-0.3-2.1-0.8l0.1 1q0.1 1.1 0.6 1.5c0.2 0.1 0.5 0.4 1.4 0.4 0.7 0 1.3-0.1 1.5-0.4z"/>
				</g>
				<g id="&lt;Group&gt;">
					<path id="&lt;Path&gt;" class="s0" d="m831 1132.1v-43h27.5v10.8h-14.8v5.1h13.1v10.5h-13.1v5.8h14.8v10.8z"/>
					<path id="&lt;Compound Path&gt;" fill-rule="evenodd" class="s12" d="m860 1101.4h-14.8v2.1h13.1v13.5h-13.1v2.8h14.8v13.8h-30.5v-46h30.5zm-27.5-10.8v40h24.5v-7.8h-14.8v-8.8h13.1v-7.5h-13.1v-8.1h14.8v-7.8z"/>
				</g>
				<g id="&lt;Group&gt;">
					<path id="&lt;Path&gt;" class="s0" d="m898.5 1132.1l-14-21.2v21.2h-12.7v-43h12l14 21.3v-21.3h12.8v43z"/>
					<path id="&lt;Compound Path&gt;" fill-rule="evenodd" class="s12" d="m912.1 1133.6h-14.4l-0.9-1.3-10.8-16.4v17.7h-15.7v-46h14.3l0.9 1.3 10.8 16.5v-17.8h15.8zm-12.8-43v24.8l-16.3-24.8h-9.7v40h9.7v-24.7l16.3 24.7h9.8v-40z"/>
				</g>
				<g id="&lt;Group&gt;">
					<path id="&lt;Path&gt;" class="s0" d="m685.2 1197.4v-9.5l0.6-0.4q1.5-1.3 1.7-1.4l0.5 0.6-0.4-0.7c3.6-3 6.6-5.5 8.7-7.5 2.1-1.9 3.8-3.9 5.2-5.9q2-2.9 2-5.5 0-1.8-0.8-2.7c-0.1-0.2-0.6-0.8-2-0.8-1 0-1.7 0.3-2.2 1q-1 1.3-1 3.7v1.5h-12.4v-1.5c0.1-3.5 0.9-6.5 2.3-8.8 1.5-2.4 3.4-4.3 5.9-5.4 2.3-1.1 4.9-1.7 7.8-1.7 4.9 0 8.7 1.3 11.2 3.9 2.6 2.6 3.9 6 3.9 10.2 0 4.3-1.5 8.5-4.5 12.2q-3.1 3.9-7.5 7.7h12.7v11z"/>
					<path id="&lt;Compound Path&gt;" fill-rule="evenodd" class="s12" d="m713.4 1155.3c2.9 2.9 4.3 6.6 4.3 11.2 0 4.7-1.6 9.1-4.8 13.1q-2.1 2.7-4.8 5.3h10.3v14h-34.7v-11.7l1.2-0.9c1.3-1.1 1.6-1.3 1.6-1.4l0.7 0.8-0.6-0.8c3.7-3 6.6-5.6 8.7-7.5 2-1.8 3.6-3.7 5-5.7q1.7-2.5 1.7-4.6c0-0.8-0.2-1.4-0.4-1.8-0.2-0.2-0.7-0.2-0.9-0.2-0.7 0-0.9 0.2-1 0.5-0.3 0.3-0.7 1.1-0.7 2.7v3h-15.4v-3c0.1-3.8 1-7 2.5-9.6 1.7-2.7 3.8-4.7 6.5-6 2.5-1.2 5.4-1.8 8.5-1.8 5.3 0 9.4 1.5 12.3 4.4zm-19.5 0.2q-3.2 1.5-5.2 4.7-2 3.3-2.1 8.1h9.4q0-2.9 1.3-4.6 1.2-1.6 3.4-1.6 2.1 0 3.2 1.3 1.1 1.3 1.1 3.7 0 3.1-2.2 6.3-2.3 3.3-5.5 6.2-3.2 3-8.8 7.6 0 0 0 0 0 0-1.8 1.4v7.3h28.7v-8h-15.4q6.4-4.9 10.6-10.1 4.1-5.2 4.1-11.3 0-5.6-3.4-9.1-3.5-3.5-10.2-3.5-4 0-7.2 1.6z"/>
				</g>
				<g id="&lt;Group&gt;">
					<path id="&lt;Compound Path&gt;" fill-rule="evenodd" class="s0" d="m745.6 1197.8c-6.1 0-10.6-2.2-13.4-6.3-2.7-4-4.1-9.6-4.1-16.4 0-6.9 1.4-12.3 4.1-16.3 2.8-4.2 7.3-6.3 13.4-6.3 6.2 0 10.7 2.1 13.5 6.3 2.7 4 4 9.5 4 16.3 0 6.8-1.3 12.4-4 16.4-2.8 4.1-7.3 6.3-13.5 6.3zm0-33.2c-2.6 0-3.4 1.1-3.8 2.2-0.7 1.8-1.1 4.6-1.1 8.3q0 3.7 0.4 6.1 0.4 2.1 1.5 3.4 1 1 3 1 2.1 0 3-1 1.1-1.3 1.5-3.4 0.5-2.4 0.5-6.1c0-3.7-0.4-6.5-1.2-8.3-0.4-1.1-1.2-2.2-3.8-2.2z"/>
					<path id="&lt;Compound Path&gt;" fill-rule="evenodd" class="s12" d="m760.3 1157.9c2.9 4.3 4.3 10 4.3 17.2 0 7.1-1.4 12.9-4.3 17.2-3.1 4.6-8 7-14.7 7-6.6 0-11.6-2.4-14.7-7-2.8-4.3-4.3-10.1-4.3-17.2 0-7.2 1.5-12.9 4.3-17.2 3.1-4.6 8.1-6.9 14.7-6.9 6.7 0 11.6 2.3 14.7 6.9zm-26.9 1.7q-3.8 5.7-3.8 15.5 0 9.9 3.8 15.5 3.8 5.7 12.2 5.7 8.5 0 12.3-5.7 3.7-5.6 3.7-15.5 0-9.8-3.7-15.5-3.8-5.6-12.3-5.6-8.4 0-12.2 5.6zm8.1 26q-1.4-1.6-1.9-4.1-0.4-2.6-0.4-6.4 0-5.8 1.2-8.9 1.3-3.1 5.2-3.1 4 0 5.2 3.1 1.3 3.1 1.3 8.9 0 3.8-0.5 6.4-0.4 2.5-1.8 4.1-1.4 1.5-4.2 1.5-2.7 0-4.1-1.5zm6-2q0.8-1 1.2-2.7 0.4-2.2 0.4-5.8c0-3.5-0.4-6.1-1.1-7.8-0.2-0.5-0.5-1.2-2.4-1.2-1.9 0-2.2 0.7-2.4 1.2-0.7 1.7-1 4.3-1 7.8q0 3.6 0.4 5.8 0.3 1.7 1.1 2.7 0.5 0.5 1.9 0.5 1.4 0 1.9-0.5z"/>
				</g>
				<g id="&lt;Group&gt;">
					<path id="&lt;Path&gt;" class="s0" d="m774.9 1197.4v-9.5l0.6-0.4q1.5-1.3 1.7-1.4l0.5 0.6-0.5-0.7c3.7-3 6.6-5.5 8.8-7.5 2-1.9 3.8-3.9 5.2-5.9q1.9-2.9 1.9-5.5 0-1.8-0.7-2.7c-0.2-0.2-0.6-0.8-2.1-0.8-1 0-1.7 0.3-2.2 1q-0.9 1.3-0.9 3.7v1.5h-12.4v-1.5c0.1-3.5 0.8-6.5 2.3-8.8 1.4-2.4 3.4-4.3 5.8-5.4 2.4-1.1 5-1.7 7.8-1.7 4.9 0 8.7 1.3 11.3 3.9 2.6 2.6 3.9 6 3.9 10.2 0 4.3-1.5 8.5-4.5 12.2q-3.1 3.9-7.6 7.7h12.7v11z"/>
					<path id="&lt;Compound Path&gt;" fill-rule="evenodd" class="s12" d="m803.1 1155.3c2.8 2.9 4.3 6.6 4.3 11.2 0 4.7-1.6 9.1-4.8 13.1q-2.2 2.7-4.9 5.3h10.3v14h-34.6v-11.7l1.1-0.9c1.4-1.1 1.6-1.3 1.7-1.4l0.7 0.8-0.6-0.8c3.6-3 6.5-5.6 8.6-7.5 2-1.8 3.7-3.7 5-5.7q1.7-2.5 1.7-4.6c0-0.8-0.1-1.4-0.4-1.8-0.1-0.2-0.7-0.2-0.9-0.2-0.6 0-0.8 0.2-1 0.5-0.3 0.3-0.6 1.1-0.6 2.7v3h-15.5l0.1-3c0.1-3.8 0.9-7 2.5-9.6 1.6-2.7 3.8-4.7 6.5-6 2.5-1.2 5.3-1.8 8.4-1.8 5.3 0 9.5 1.5 12.4 4.4zm-19.5 0.2q-3.3 1.5-5.2 4.7-2 3.3-2.1 8.1h9.4q0-2.9 1.2-4.6 1.2-1.6 3.4-1.6 2.2 0 3.3 1.3 1 1.3 1 3.7 0 3.1-2.2 6.3-2.2 3.3-5.4 6.2-3.2 3-8.8 7.6 0 0 0 0 0 0-1.8 1.4v7.3h28.6v-8h-15.4q6.5-4.9 10.6-10.1 4.2-5.2 4.2-11.3 0-5.6-3.5-9.1-3.4-3.5-10.2-3.5-3.9 0-7.1 1.6z"/>
				</g>
				<g id="&lt;Group&gt;">
					<path id="&lt;Path&gt;" class="s0" d="m836.6 1197.9c-3.3 0-6.1-0.5-8.6-1.7-2.5-1.1-4.4-2.8-5.8-4.9-1.3-2.1-2.1-4.5-2.2-7.2l-0.1-1.5h12.3l0.3 1.2q0.2 1.3 1.2 2.1 0.8 0.8 2.6 0.8 1.9 0 2.8-1.2 1-1.3 1-3.6 0-2.2-1-3.3-0.9-1-2.9-1-1.4 0-2.3 0.7-0.8 0.6-1.1 1.6l-0.3 1.2h-12.1v-27.8h29.7v11.5h-17.8v3.4q0.5-0.2 1.1-0.5 2.3-0.9 5-0.9c3.2 0 5.8 0.8 8 2.2 2.1 1.5 3.6 3.4 4.6 5.7 1 2.2 1.5 4.7 1.5 7.3 0 4.8-1.4 8.7-4.2 11.6-2.8 2.9-6.7 4.3-11.7 4.3z"/>
					<path id="&lt;Compound Path&gt;" fill-rule="evenodd" class="s12" d="m851.6 1166.3h-7.3q1.6 0.6 2.9 1.5c2.4 1.6 4.1 3.7 5.2 6.3 1 2.4 1.6 5.1 1.6 7.9 0 5.2-1.6 9.4-4.6 12.6-3.1 3.2-7.4 4.8-12.8 4.8-3.5 0-6.6-0.6-9.2-1.8-2.7-1.3-4.9-3.1-6.4-5.5-1.5-2.3-2.4-4.9-2.5-7.9l-0.2-3.1h0.6v-29.3h32.7zm-29.7-11.6v24.8h9.5q0.4-1.5 1.6-2.5 1.3-0.9 3.2-0.9 2.6 0 4 1.5 1.4 1.5 1.4 4.2 0 2.9-1.4 4.6-1.3 1.7-3.9 1.7-2.3 0-3.6-1.1-1.3-1.2-1.7-3h-9.5q0.2 3.7 2 6.5 1.8 2.7 5.2 4.3 3.3 1.6 7.9 1.6 6.8 0 10.6-3.9 3.8-3.9 3.8-10.6 0-3.6-1.4-6.7-1.3-3-4.1-5-2.8-1.9-7.1-1.9-2.4 0-4.4 0.8-2.1 0.8-3.2 2v-7.8h17.8v-8.6zm12 28.7c0.1 0.6 0.3 1 0.7 1.3 0.4 0.3 1.1 0.4 1.6 0.4 1.2 0 1.5-0.4 1.6-0.5q0.7-0.9 0.7-2.8c0-0.7-0.1-1.7-0.6-2.2q-0.5-0.5-1.8-0.5-0.9 0-1.4 0.3c-0.3 0.2-0.4 0.5-0.5 0.9l-0.5 2z"/>
				</g>
			</g>
		</g>
	</g>
</svg>